<?xml version="1.0" encoding="UTF-8"?>
<svg version="1.1" xmlns="http://www.w3.org/2000/svg" width="512" height="512">
<path d="M0 0 C1.89278306 0.47189955 1.89278306 0.47189955 3.97729492 0.68603516 C4.77209763 0.78598785 5.56690033 0.88594055 6.38578796 0.98892212 C7.24203262 1.08796844 8.09827728 1.18701477 8.98046875 1.2890625 C9.86728836 1.39721283 10.75410797 1.50536316 11.6678009 1.61679077 C13.54605799 1.84407272 15.42479584 2.06741107 17.30395508 2.28710938 C20.16027425 2.62180972 23.01469719 2.9700135 25.86914062 3.3203125 C27.69781963 3.53987223 29.52659307 3.75864714 31.35546875 3.9765625 C32.20159225 4.07965729 33.04771576 4.18275208 33.91947937 4.28897095 C41.51772376 5.16683338 48.07468677 5.83773348 55.28125 2.69140625 C56.44172852 2.19552002 57.60220703 1.69963379 58.79785156 1.1887207 C59.40181763 0.92322418 60.00578369 0.65772766 60.62805176 0.38418579 C63.82718143 -1.02006211 67.04810446 -2.37293728 70.265625 -3.734375 C71.23891754 -4.14848885 71.23891754 -4.14848885 72.23187256 -4.57096863 C78.52122153 -7.24107815 84.86399283 -9.75735937 91.25 -12.1875 C92.20583984 -12.56124756 93.16167969 -12.93499512 94.14648438 -13.32006836 C99.56093825 -15.3630131 105.12935408 -17.33701718 111 -17 C115.0451941 -14.64643252 116.61115428 -12.95443949 118.375 -8.625 C119.94370188 0.47347089 119.94370188 0.47347089 117.42944336 4.54052734 C114.49647959 7.50974421 111.65202267 8.56113665 107.75390625 9.7265625 C107.03975555 9.95558258 106.32560486 10.18460266 105.58981323 10.42056274 C104.05334673 10.91214842 102.51458907 11.39661923 100.97384644 11.87463379 C96.85780154 13.15547049 92.76240733 14.49976666 88.6640625 15.8359375 C87.83710373 16.10414307 87.01014496 16.37234863 86.15812683 16.64868164 C65.53790172 23.35718868 45.76206982 31.68182787 26.14428711 40.87011719 C25.41593658 41.21035416 24.68758606 41.55059113 23.93716431 41.90113831 C22.56385592 42.54409334 21.19224354 43.19068714 19.82260132 43.84141541 C15.22056252 46 15.22056252 46 13 46 C13.49637265 93.24719685 14.52373862 140.00562204 19.57470703 187.02099609 C20.07495482 191.67823252 20.54187288 196.33843846 21 201 C22.07894531 200.96519531 23.15789062 200.93039063 24.26953125 200.89453125 C64.96013583 199.98529531 103.59334803 216.15802122 133 244 C133.89589844 244.83144531 134.79179687 245.66289062 135.71484375 246.51953125 C153.56747516 263.62100005 165.46914069 285.97717512 171 310 C171.19142578 310.82016602 171.38285156 311.64033203 171.58007812 312.48535156 C173.24279432 320.458697 173.39859968 328.37885041 173.375 336.5 C173.37418427 337.55731323 173.37418427 337.55731323 173.37335205 338.63598633 C173.332624 350.14019402 172.45729132 360.97375748 169 372 C168.79101074 372.67836914 168.58202148 373.35673828 168.36669922 374.05566406 C162.06304573 393.84016452 151.23417533 410.97632718 137 426 C136.17886719 426.88558594 135.35773438 427.77117187 134.51171875 428.68359375 C108.78214936 455.55669955 69.73148494 472.2455553 32.64215088 473.2628479 C28.86515084 473.32749157 25.08992227 473.33098939 21.3125 473.3125 C20.51874969 473.31034485 19.72499939 473.3081897 18.90719604 473.30596924 C7.04336327 473.25431141 -4.43167734 472.85742191 -16 470 C-17.24378418 469.70198486 -17.24378418 469.70198486 -18.51269531 469.39794922 C-45.10114314 462.86101039 -69.09872756 450.71304496 -88.94140625 431.65234375 C-90.94997758 429.68702126 -90.94997758 429.68702126 -94 430 C-96.30235688 431.30171716 -98.52057171 432.6457865 -100.75 434.0625 C-123.4023981 447.98745764 -150.22788504 457.03141524 -176.98828125 457.203125 C-177.72474884 457.21018463 -178.46121643 457.21724426 -179.22000122 457.22451782 C-210.02150867 457.4527432 -210.02150867 457.4527432 -224 454 C-225.24378418 453.70198486 -225.24378418 453.70198486 -226.51269531 453.39794922 C-254.18361487 446.59487784 -278.26161589 433.63493332 -299 414 C-299.89589844 413.16855469 -300.79179687 412.33710938 -301.71484375 411.48046875 C-319.56747516 394.37899995 -331.46914069 372.02282488 -337 348 C-337.19142578 347.17983398 -337.38285156 346.35966797 -337.58007812 345.51464844 C-339.24279432 337.541303 -339.39859968 329.62114959 -339.375 321.5 C-339.37445618 320.79512451 -339.37391235 320.09024902 -339.37335205 319.36401367 C-339.25517008 285.98186162 -326.07900742 256.04871361 -303 232 C-302.18144531 231.11828125 -301.36289062 230.2365625 -300.51953125 229.328125 C-280.14191206 208.01740951 -252.52338961 194.52685988 -224 188 C-223.32227539 187.83628906 -222.64455078 187.67257813 -221.94628906 187.50390625 C-210.1891284 184.76942006 -198.38072473 184.73993992 -186.375 184.75 C-185.584422 184.75059418 -184.79384399 184.75118835 -183.97930908 184.75180054 C-175.93594496 184.77486627 -167.97902194 184.86796485 -160 186 C-159.74943848 185.50822266 -159.49887695 185.01644531 -159.24072266 184.50976562 C-140.31398255 147.53180808 -113.99193368 113.73130978 -82 87 C-81.10925781 86.22011719 -80.21851563 85.44023438 -79.30078125 84.63671875 C-70.73468563 77.17334039 -61.69708497 70.41981689 -52.47949219 63.78515625 C-50.86504712 62.62280667 -49.25355412 61.45634219 -47.64550781 60.28515625 C-25.63427474 44.27362509 -2.13236107 30.54808227 22 18 C23.04124023 17.42946899 23.04124023 17.42946899 24.10351562 16.84741211 C26 16 26 16 29 16 C29 15.34 29 14.68 29 14 C28.38898438 13.96261719 27.77796875 13.92523438 27.1484375 13.88671875 C16.36873125 13.11240182 5.69544479 11.51751973 -5 10 C-5.29640381 10.61407715 -5.59280762 11.2281543 -5.89819336 11.86083984 C-10.14648531 20.10890856 -17.65476424 27.29901496 -24 34 C-24.59458008 34.6285791 -25.18916016 35.2571582 -25.80175781 35.90478516 C-49.22626734 60.46311001 -79.1707591 82.30284624 -114.31958008 84.17700195 C-156.80564006 84.93165492 -200.97854271 76.31345527 -240 59 C-236.41682879 53.32664559 -232.22917501 48.2016591 -228 43 C-227.30777344 42.13117188 -226.61554688 41.26234375 -225.90234375 40.3671875 C-211.20015624 22.06283063 -194.55687581 4.12640265 -175.60449219 -9.796875 C-173.99559975 -11.00329952 -172.43723904 -12.25562243 -170.8828125 -13.53125 C-116.88896562 -57.47619513 -52.51870319 -35.0124688 0 0 Z M-68 97 C-69.00804687 97.79664063 -70.01609375 98.59328125 -71.0546875 99.4140625 C-76.42215949 103.74075045 -81.59113096 108.25616878 -86.68359375 112.90234375 C-88.67524817 114.70591613 -90.70021857 116.45106096 -92.75 118.1875 C-101.85169524 126.14456014 -110.38820537 134.82154419 -117.87109375 144.31640625 C-120.10875785 147.13709475 -122.45629637 149.84035666 -124.8125 152.5625 C-139.78490932 169.50102101 -139.78490932 169.50102101 -148 189 C-147.37246826 189.1952124 -146.74493652 189.3904248 -146.09838867 189.59155273 C-120.70129285 197.56992813 -99.28304065 207.6742331 -79 225 C-77.00344035 226.67083334 -75.00169282 228.33531207 -73 230 C-72.18660156 229.443125 -71.37320313 228.88625 -70.53515625 228.3125 C-46.20054463 211.97282524 -19.75502971 204.94958489 9 201 C8.83395264 199.81486816 8.66790527 198.62973633 8.49682617 197.40869141 C1.88319958 149.99320941 -1.73649621 102.84878569 -3 55 C-20.42491561 55 -54.77762644 86.54863871 -68 97 Z " fill="#C5053C" transform="translate(339,39)"/>
<path d="M0 0 C0.66 0 1.32 0 2 0 C2.03963867 0.86874756 2.07927734 1.73749512 2.12011719 2.63256836 C4.22729182 46.82793679 10.70309345 89.71809493 41 124 C41.62261719 124.70640625 42.24523438 125.4128125 42.88671875 126.140625 C62.42306151 146.94662525 92.82908181 156.98431553 120.72265625 158.10986328 C148.26605614 158.68128319 174.20191002 155.87666614 199 143 C198.608125 141.824375 198.21625 140.64875 197.8125 139.4375 C197.54050781 138.61507812 197.26851562 137.79265625 196.98828125 136.9453125 C196.2717652 134.80992475 195.53769196 132.6804023 194.79296875 130.5546875 C191.87138626 122.0988687 189.68295038 113.80137565 188 105 C187.82799072 104.23075195 187.65598145 103.46150391 187.47875977 102.66894531 C184.62829332 86.7784307 186.61832276 69.41020237 191 54 C191.28875 52.93394531 191.5775 51.86789062 191.875 50.76953125 C195.45567347 38.92453552 201.08340402 25.61496606 209 16 C209.33 16 209.66 16 210 16 C210.05945801 17.30312134 210.05945801 17.30312134 210.12011719 18.63256836 C212.22729182 62.82793679 218.70309345 105.71809493 249 140 C249.62261719 140.70640625 250.24523437 141.4128125 250.88671875 142.140625 C270.42306151 162.94662525 300.82908181 172.98431553 328.72265625 174.10986328 C365.04888761 174.86349326 399.26079941 168.54341291 428 145 C428.85078125 144.31421875 429.7015625 143.6284375 430.578125 142.921875 C459.84414976 118.07336341 475.36496321 75.16020875 480 38 C480.66 38 481.32 38 482 38 C482.94987892 40.68363849 483.88469959 43.37122079 484.8125 46.0625 C485.20405273 47.16174805 485.20405273 47.16174805 485.60351562 48.28320312 C489.94255722 60.97891742 491.56265692 73.38114812 491.4375 86.75 C491.43293793 87.79232788 491.43293793 87.79232788 491.42828369 88.85571289 C491.35471345 100.26989011 490.42949097 111.06242038 487 122 C486.79101074 122.67836914 486.58202148 123.35673828 486.36669922 124.05566406 C480.06304573 143.84016452 469.23417533 160.97632718 455 176 C454.17886719 176.88558594 453.35773438 177.77117187 452.51171875 178.68359375 C426.78214936 205.55669955 387.73148494 222.2455553 350.64215088 223.2628479 C346.86515084 223.32749157 343.08992227 223.33098939 339.3125 223.3125 C338.51874969 223.31034485 337.72499939 223.3081897 336.90719604 223.30596924 C325.04336327 223.25431141 313.56832266 222.85742191 302 220 C300.75621582 219.70198486 300.75621582 219.70198486 299.48730469 219.39794922 C272.89885686 212.86101039 248.90127244 200.71304496 229.05859375 181.65234375 C227.05002242 179.68702126 227.05002242 179.68702126 224 180 C221.69764312 181.30171716 219.47942829 182.6457865 217.25 184.0625 C194.5976019 197.98745764 167.77211496 207.03141524 141.01171875 207.203125 C140.27525116 207.21018463 139.53878357 207.21724426 138.77999878 207.22451782 C107.97849133 207.4527432 107.97849133 207.4527432 94 204 C92.75621582 203.70198486 92.75621582 203.70198486 91.48730469 203.39794922 C63.81638513 196.59487784 39.73838411 183.63493332 19 164 C18.10410156 163.16855469 17.20820312 162.33710938 16.28515625 161.48046875 C-1.56747516 144.37899995 -13.46914069 122.02282488 -19 98 C-19.19142578 97.17983398 -19.38285156 96.35966797 -19.58007812 95.51464844 C-21.24279432 87.541303 -21.39859968 79.62114959 -21.375 71.5 C-21.37445618 70.79512451 -21.37391235 70.09024902 -21.37335205 69.36401367 C-21.28722627 45.03658021 -14.63521569 19.89194622 0 0 Z " fill="#9E0330" transform="translate(21,289)"/>
<path d="M0 0 C1.89278306 0.47189955 1.89278306 0.47189955 3.97729492 0.68603516 C4.77209763 0.78598785 5.56690033 0.88594055 6.38578796 0.98892212 C7.67015495 1.13749161 7.67015495 1.13749161 8.98046875 1.2890625 C9.86728836 1.39721283 10.75410797 1.50536316 11.6678009 1.61679077 C13.54605799 1.84407272 15.42479584 2.06741107 17.30395508 2.28710938 C20.16027425 2.62180972 23.01469719 2.9700135 25.86914062 3.3203125 C27.69781963 3.53987223 29.52659307 3.75864714 31.35546875 3.9765625 C32.20159225 4.07965729 33.04771576 4.18275208 33.91947937 4.28897095 C41.51772376 5.16683338 48.07468677 5.83773348 55.28125 2.69140625 C56.44172852 2.19552002 57.60220703 1.69963379 58.79785156 1.1887207 C59.40181763 0.92322418 60.00578369 0.65772766 60.62805176 0.38418579 C63.82718143 -1.02006211 67.04810446 -2.37293728 70.265625 -3.734375 C71.23891754 -4.14848885 71.23891754 -4.14848885 72.23187256 -4.57096863 C78.52122153 -7.24107815 84.86399283 -9.75735937 91.25 -12.1875 C92.20583984 -12.56124756 93.16167969 -12.93499512 94.14648438 -13.32006836 C99.56093825 -15.3630131 105.12935408 -17.33701718 111 -17 C115.0451941 -14.64643252 116.61115428 -12.95443949 118.375 -8.625 C119.94370188 0.47347089 119.94370188 0.47347089 117.42944336 4.54052734 C114.49647959 7.50974421 111.65202267 8.56113665 107.75390625 9.7265625 C107.03975555 9.95558258 106.32560486 10.18460266 105.58981323 10.42056274 C104.05334673 10.91214842 102.51458907 11.39661923 100.97384644 11.87463379 C96.85780154 13.15547049 92.76240733 14.49976666 88.6640625 15.8359375 C87.83710373 16.10414307 87.01014496 16.37234863 86.15812683 16.64868164 C65.53790172 23.35718868 45.76206982 31.68182787 26.14428711 40.87011719 C25.41593658 41.21035416 24.68758606 41.55059113 23.93716431 41.90113831 C22.56385592 42.54409334 21.19224354 43.19068714 19.82260132 43.84141541 C15.22056252 46 15.22056252 46 13 46 C12.90267224 140.73289192 12.90267224 140.73289192 27.04492188 234.10449219 C27.55859375 236.3515625 27.55859375 236.3515625 28 240 C26.90258789 241.72802734 26.90258789 241.72802734 25 243 C21.8125 243.1875 21.8125 243.1875 19 243 C15.97842774 233.82633694 13.73880965 224.65940035 11.875 215.1875 C11.37389487 212.68068946 10.87133119 210.17416997 10.3671875 207.66796875 C10.15175293 206.57766357 9.93631836 205.4873584 9.71435547 204.36401367 C9.19194646 201.90390647 8.62033473 199.49451928 7.98852539 197.06323242 C7.003507 193.17638817 6.36982032 189.29408822 5.81640625 185.3203125 C5.71632263 184.60329666 5.61623901 183.88628082 5.51312256 183.14753723 C5.18973497 180.80752536 4.87491597 178.46650082 4.5625 176.125 C4.45328217 175.31177277 4.34406433 174.49854553 4.23153687 173.66067505 C-0.97488626 134.63222474 -2.91762888 95.33495057 -4 56 C-26.41793718 68.20008892 -47.96640654 82.16484587 -68 98 C-69.00804687 98.79664063 -70.01609375 99.59328125 -71.0546875 100.4140625 C-76.42072403 104.73959333 -81.58824288 109.25389084 -86.6796875 113.8984375 C-88.69397731 115.72282794 -90.74148614 117.49093802 -92.8125 119.25 C-101.54326342 126.88499959 -109.64491539 135.18133838 -116.8359375 144.28125 C-119.08826237 147.11088558 -121.44603605 149.82791944 -123.8125 152.5625 C-132.64797013 163.14579677 -140.10710129 174.9130367 -146.6953125 187.0078125 C-147.12585938 187.66523438 -147.55640625 188.32265625 -148 189 C-148.66 189 -149.32 189 -150 189 C-150.25378418 189.83354004 -150.50756836 190.66708008 -150.76904297 191.52587891 C-152.1319284 195.37234058 -153.85191201 198.95515946 -155.6953125 202.5859375 C-156.04761932 203.28772125 -156.39992615 203.989505 -156.76290894 204.71255493 C-157.87983696 206.93529034 -159.00231954 209.15516549 -160.125 211.375 C-160.88708856 212.88913684 -161.64881112 214.40345796 -162.41015625 215.91796875 C-164.26921035 219.61412431 -166.13324843 223.3077265 -168 227 C-171.71599191 227.20086443 -172.77208445 227.1519437 -176 225 C-175.34706601 220.75069963 -173.89958849 217.23254639 -172.12109375 213.328125 C-171.83350189 212.69301498 -171.54591003 212.05790497 -171.24960327 211.40354919 C-170.31777458 209.34979199 -169.37817659 207.29971809 -168.4375 205.25 C-167.79040811 203.8331808 -167.14351754 202.41626964 -166.49682617 200.99926758 C-165.23056148 198.22736903 -163.96067534 195.45716771 -162.68847656 192.68798828 C-161.33391857 189.73619081 -160.00066875 186.77559845 -158.6796875 183.80859375 C-148.22513493 160.5462205 -132.95990403 139.92541685 -116 121 C-115.33436035 120.24976563 -115.33436035 120.24976563 -114.65527344 119.484375 C-104.48327845 108.03993949 -93.75924887 96.82560565 -82 87 C-81.10925781 86.22011719 -80.21851563 85.44023438 -79.30078125 84.63671875 C-70.73468563 77.17334039 -61.69708497 70.41981689 -52.47949219 63.78515625 C-50.86504712 62.62280667 -49.25355412 61.45634219 -47.64550781 60.28515625 C-25.63427474 44.27362509 -2.13236107 30.54808227 22 18 C23.04124023 17.42946899 23.04124023 17.42946899 24.10351562 16.84741211 C26 16 26 16 29 16 C29 15.34 29 14.68 29 14 C28.38898438 13.96261719 27.77796875 13.92523438 27.1484375 13.88671875 C16.36873125 13.11240182 5.69544479 11.51751973 -5 10 C-5.29640381 10.61407715 -5.59280762 11.2281543 -5.89819336 11.86083984 C-10.14648531 20.10890856 -17.65476424 27.29901496 -24 34 C-24.59458008 34.6285791 -25.18916016 35.2571582 -25.80175781 35.90478516 C-49.22626734 60.46311001 -79.1707591 82.30284624 -114.31958008 84.17700195 C-156.80564006 84.93165492 -200.97854271 76.31345527 -240 59 C-236.41682879 53.32664559 -232.22917501 48.2016591 -228 43 C-227.30777344 42.13117188 -226.61554688 41.26234375 -225.90234375 40.3671875 C-211.20015624 22.06283063 -194.55687581 4.12640265 -175.60449219 -9.796875 C-173.99559975 -11.00329952 -172.43723904 -12.25562243 -170.8828125 -13.53125 C-116.88896562 -57.47619513 -52.51870319 -35.0124688 0 0 Z " fill="#339945" transform="translate(339,39)"/>
<path d="M0 0 C4.10932679 2.88763504 5.02011388 6.18222659 6 11 C6.41190801 14.98177747 6.54954556 17.11105689 4.42944336 20.54052734 C1.49647959 23.50974421 -1.34797733 24.56113665 -5.24609375 25.7265625 C-5.96024445 25.95558258 -6.67439514 26.18460266 -7.41018677 26.42056274 C-8.94665327 26.91214842 -10.48541093 27.39661923 -12.02615356 27.87463379 C-16.14219846 29.15547049 -20.23759267 30.49976666 -24.3359375 31.8359375 C-25.16289627 32.10414307 -25.98985504 32.37234863 -26.84187317 32.64868164 C-47.46209828 39.35718868 -67.23793018 47.68182787 -86.85571289 56.87011719 C-87.58406342 57.21035416 -88.31241394 57.55059113 -89.06283569 57.90113831 C-90.43614408 58.54409334 -91.80775646 59.19068714 -93.17739868 59.84141541 C-97.77943748 62 -97.77943748 62 -100 62 C-100.09732776 156.73289192 -100.09732776 156.73289192 -85.95507812 250.10449219 C-85.44140625 252.3515625 -85.44140625 252.3515625 -85 256 C-86.09741211 257.72802734 -86.09741211 257.72802734 -88 259 C-91.1875 259.1875 -91.1875 259.1875 -94 259 C-97.02157226 249.82633694 -99.26119035 240.65940035 -101.125 231.1875 C-101.62610513 228.68068946 -102.12866881 226.17416997 -102.6328125 223.66796875 C-102.84824707 222.57766357 -103.06368164 221.4873584 -103.28564453 220.36401367 C-103.80805354 217.90390647 -104.37966527 215.49451928 -105.01147461 213.06323242 C-105.996493 209.17638817 -106.63017968 205.29408822 -107.18359375 201.3203125 C-107.28367737 200.60329666 -107.38376099 199.88628082 -107.48687744 199.14753723 C-107.81026503 196.80752536 -108.12508403 194.46650082 -108.4375 192.125 C-108.54671783 191.31177277 -108.65593567 190.49854553 -108.76846313 189.66067505 C-113.97488626 150.63222474 -115.91762888 111.33495057 -117 72 C-139.41793718 84.20008892 -160.96640654 98.16484587 -181 114 C-182.00804687 114.79664063 -183.01609375 115.59328125 -184.0546875 116.4140625 C-189.42072403 120.73959333 -194.58824288 125.25389084 -199.6796875 129.8984375 C-201.69397731 131.72282794 -203.74148614 133.49093802 -205.8125 135.25 C-214.54326342 142.88499959 -222.64491539 151.18133838 -229.8359375 160.28125 C-232.08826237 163.11088558 -234.44603605 165.82791944 -236.8125 168.5625 C-245.64797013 179.14579677 -253.10710129 190.9130367 -259.6953125 203.0078125 C-260.12585938 203.66523438 -260.55640625 204.32265625 -261 205 C-261.66 205 -262.32 205 -263 205 C-263.25378418 205.83354004 -263.50756836 206.66708008 -263.76904297 207.52587891 C-265.1319284 211.37234058 -266.85191201 214.95515946 -268.6953125 218.5859375 C-269.04761932 219.28772125 -269.39992615 219.989505 -269.76290894 220.71255493 C-270.87983696 222.93529034 -272.00231954 225.15516549 -273.125 227.375 C-273.88708856 228.88913684 -274.64881112 230.40345796 -275.41015625 231.91796875 C-277.26921035 235.61412431 -279.13324843 239.3077265 -281 243 C-284.71599191 243.20086443 -285.77208445 243.1519437 -289 241 C-288.34706601 236.75069963 -286.89958849 233.23254639 -285.12109375 229.328125 C-284.83350189 228.69301498 -284.54591003 228.05790497 -284.24960327 227.40354919 C-283.31777458 225.34979199 -282.37817659 223.29971809 -281.4375 221.25 C-280.79040811 219.8331808 -280.14351754 218.41626964 -279.49682617 216.99926758 C-278.23056148 214.22736903 -276.96067534 211.45716771 -275.68847656 208.68798828 C-274.33391857 205.73619081 -273.00066875 202.77559845 -271.6796875 199.80859375 C-261.22513493 176.5462205 -245.95990403 155.92541685 -229 137 C-228.33436035 136.24976563 -228.33436035 136.24976563 -227.65527344 135.484375 C-217.48327845 124.03993949 -206.75924887 112.82560565 -195 103 C-194.10925781 102.22011719 -193.21851563 101.44023438 -192.30078125 100.63671875 C-183.73468563 93.17334039 -174.69708497 86.41981689 -165.47949219 79.78515625 C-163.86504712 78.62280667 -162.25355412 77.45634219 -160.64550781 76.28515625 C-138.63427474 60.27362509 -115.13236107 46.54808227 -91 34 C-89.95875977 33.42946899 -89.95875977 33.42946899 -88.89648438 32.84741211 C-87 32 -87 32 -84 32 C-84 31.34 -84 30.68 -84 30 C-84.68642578 29.95101562 -85.37285156 29.90203125 -86.08007812 29.8515625 C-95.269811 29.14606348 -104.37801181 27.95882903 -113.50927734 26.72949219 C-128.87293976 24.66901564 -143.82892514 23.79562036 -159.3125 23.8125 C-160.24719116 23.81277191 -161.18188232 23.81304382 -162.14489746 23.81332397 C-176.19574012 23.83212944 -190.04521123 24.25194218 -204 26 C-205.82942392 26.20836113 -207.65885108 26.41669377 -209.48828125 26.625 C-251.84469903 31.69322588 -290.94347454 47.58704413 -329.3515625 65.3984375 C-330.02492142 65.71045105 -330.69828033 66.0224646 -331.39204407 66.34393311 C-336.0371241 68.51184639 -340.59447569 70.81587446 -345.09521484 73.27197266 C-347 74 -347 74 -350 73 C-337.38853037 66.19734225 -324.64982582 59.89508386 -311.5625 54.0625 C-310.7016983 53.67703003 -309.84089661 53.29156006 -308.95401001 52.89440918 C-270.04245274 35.48997046 -230.57408362 21.85569996 -188 17 C-187.22043945 16.90976562 -186.44087891 16.81953125 -185.63769531 16.7265625 C-151.17841133 12.89343659 -116.64691391 14.88275636 -82.40136719 19.67871094 C-78.93753926 20.15551681 -75.47247403 20.59155421 -72 21 C-71.27522461 21.10143311 -70.55044922 21.20286621 -69.80371094 21.30737305 C-63.53168576 21.81246388 -57.96446261 18.84298934 -52.37057495 16.38418579 C-49.1776974 14.98165331 -45.96459311 13.62676488 -42.75390625 12.265625 C-42.10607681 11.9895491 -41.45824738 11.71347321 -40.79078674 11.42903137 C-34.40415035 8.71857163 -27.93931678 6.2330571 -21.4375 3.8125 C-19.94089844 3.25187866 -19.94089844 3.25187866 -18.4140625 2.67993164 C-6.87800293 -1.59667925 -6.87800293 -1.59667925 0 0 Z " fill="#068C38" transform="translate(452,23)"/>
<path d="M0 0 C0.66 0.99 1.32 1.98 2 3 C1.10861328 2.93071289 0.21722656 2.86142578 -0.70117188 2.79003906 C-10.30812093 2.09031053 -19.86822905 1.76037689 -29.5 1.75 C-30.62086502 1.74799088 -30.62086502 1.74799088 -31.76437378 1.74594116 C-52.84799557 1.75402014 -74.00110364 3.49430157 -94.71044922 7.55224609 C-96.35617204 7.87409037 -98.00390793 8.18570356 -99.65283203 8.49072266 C-143.9915819 16.71453943 -186.99596715 35.02055907 -226.78515625 56.01049805 C-229 57 -229 57 -232 57 C-231.56845657 52.12715545 -229.15179663 49.37699625 -226 45.875 C-225.08198113 44.83191769 -224.1653695 43.78759557 -223.25 42.7421875 C-222.74122314 42.1656543 -222.23244629 41.58912109 -221.70825195 40.99511719 C-219.71773272 38.67033183 -217.82516082 36.27640692 -215.91796875 33.8828125 C-210.94752716 27.78749791 -205.54842856 22.21076469 -199.98168945 16.66601562 C-198.32283932 15.01031966 -196.67778956 13.34172503 -195.03320312 11.671875 C-187.98101075 4.57880396 -180.57369983 -1.73626544 -172.60122681 -7.77005005 C-169.94051983 -9.81381824 -167.35242872 -11.94520706 -164.75 -14.0625 C-113.92820703 -53.89579719 -48.65083735 -34.04974571 0 0 Z " fill="#38B449" transform="translate(336,37)"/>
<path d="M0 0 C18.78604047 4.45240876 37.24683363 12.22155207 51 26 C51.598125 26.52722656 52.19625 27.05445313 52.8125 27.59765625 C58.5487258 32.78947173 62.45390061 39.41840121 66.61572266 45.8671875 C68.9993184 49.53969058 71.4409716 53.17331914 73.875 56.8125 C74.88426136 58.32802727 75.89337459 59.84365319 76.90234375 61.359375 C79.01011875 64.52204343 81.12853337 67.67725812 83.25390625 70.828125 C83.78709473 71.62114014 84.3202832 72.41415527 84.86962891 73.23120117 C85.87810562 74.73072534 86.88928241 76.22843901 87.90380859 77.72387695 C97.7787846 92.43336937 97.7787846 92.43336937 97 101 C90.0156798 101.35172836 83.88583721 100.06094795 77.125 98.375 C76.02599365 98.10429687 74.9269873 97.83359375 73.79467773 97.5546875 C55.06183343 92.84113017 40.05033777 87.8125994 26 74 C25.37222656 73.38511719 24.74445313 72.77023437 24.09765625 72.13671875 C11.17878014 58.45618554 5.26107196 39.34411311 1.0625 21.4375 C0.85085205 20.54611328 0.6392041 19.65472656 0.42114258 18.73632812 C-0.87395523 12.83037339 -1.53669249 7.04991805 -1 1 C-0.67 0.67 -0.34 0.34 0 0 Z " fill="#DC6889" transform="translate(258,332)"/>
<path d="M0 0 C18.78604047 4.45240876 37.24683363 12.22155207 51 26 C51.598125 26.52722656 52.19625 27.05445313 52.8125 27.59765625 C58.5487258 32.78947173 62.45390061 39.41840121 66.61572266 45.8671875 C68.9993184 49.53969058 71.4409716 53.17331914 73.875 56.8125 C74.88426136 58.32802727 75.89337459 59.84365319 76.90234375 61.359375 C79.01011875 64.52204343 81.12853337 67.67725812 83.25390625 70.828125 C83.78709473 71.62114014 84.3202832 72.41415527 84.86962891 73.23120117 C85.87810562 74.73072534 86.88928241 76.22843901 87.90380859 77.72387695 C97.7787846 92.43336937 97.7787846 92.43336937 97 101 C90.0156798 101.35172836 83.88583721 100.06094795 77.125 98.375 C76.02599365 98.10429687 74.9269873 97.83359375 73.79467773 97.5546875 C55.06183343 92.84113017 40.05033777 87.8125994 26 74 C25.37222656 73.38511719 24.74445313 72.77023437 24.09765625 72.13671875 C11.17878014 58.45618554 5.26107196 39.34411311 1.0625 21.4375 C0.85085205 20.54611328 0.6392041 19.65472656 0.42114258 18.73632812 C-0.87395523 12.83037339 -1.53669249 7.04991805 -1 1 C-0.67 0.67 -0.34 0.34 0 0 Z " fill="#DC6889" transform="translate(50,316)"/>
<path d="M0 0 C5.99044861 2.88073361 10.42326213 5.72152426 13.48046875 11.8359375 C14.58331157 19.14620992 12.64649217 24.83724165 8.48046875 30.8359375 C-3.34295067 44.49209869 -22.04452442 50.59953278 -39.51953125 52.8359375 C-44.66614797 53.13481884 -49.80337676 53.17546649 -54.95703125 53.1484375 C-56.00744095 53.14620178 -56.00744095 53.14620178 -57.07907104 53.1439209 C-65.80001986 53.11061254 -74.43795286 52.84540053 -83.08203125 51.5859375 C-83.85281006 51.47677002 -84.62358887 51.36760254 -85.41772461 51.25512695 C-91.84797453 50.15095725 -96.84413369 47.98388309 -100.95703125 42.7109375 C-103.12996832 38.3368434 -103.51916465 33.59154638 -102.51953125 28.8359375 C-96.40429189 18.2871496 -87.07488506 9.83898433 -75.51953125 5.8359375 C-70.43994963 4.71790134 -66.20578203 5.90283559 -61.734375 8.35546875 C-57.93879917 10.89254677 -54.49332543 13.83847451 -51.03515625 16.8125 C-48.8934164 18.5352038 -47.02391021 19.7475859 -44.51953125 20.8359375 C-44.18953125 20.1759375 -43.85953125 19.5159375 -43.51953125 18.8359375 C-43.51953125 19.8259375 -43.51953125 20.8159375 -43.51953125 21.8359375 C-39.77522041 21.04387175 -37.17819345 20.47522728 -34.39453125 17.7734375 C-32.84596271 15.34734678 -31.53225126 12.94594781 -30.20703125 10.3984375 C-23.85548818 -1.41701064 -12.32515685 -4.07646697 0 0 Z " fill="#9E0430" transform="translate(401.51953125,260.1640625)"/>
<path d="M0 0 C6.70438747 4.24155126 10.78330631 10.81323407 14.0625 17.9375 C14.0625 18.5975 14.0625 19.2575 14.0625 19.9375 C17.80442608 21.18480869 20.11029522 21.38371667 24.0625 20.9375 C29.78787022 18.05939648 34.57594109 13.79291332 39.23828125 9.453125 C43.23990486 6.12843558 46.53704595 5.49134055 51.6328125 5.625 C63.10229131 7.10017412 72.78937209 16.63828766 80.0625 24.9375 C82.66553182 29.17154542 82.68281451 33.09427513 82.0625 37.9375 C80.99257682 41.79057777 79.55949767 44.79870042 76.33203125 47.25390625 C56.64955686 57.90051415 23.02568817 55.50467479 2.140625 49.57910156 C-12.03615111 45.20215518 -25.33090671 37.84248148 -32.8125 24.625 C-34.42816423 19.3292117 -35.53076232 14.00730213 -32.87109375 8.8828125 C-25.43679224 -0.55692729 -11.27506855 -4.12996893 0 0 Z " fill="#9E0430" transform="translate(148.9375,244.0625)"/>
<path d="M0 0 C4.10932679 2.88763504 5.02011388 6.18222659 6 11 C6.41053595 14.96851421 6.54655024 17.1082149 4.44702148 20.53393555 C1.44156377 23.56278204 -1.54296339 24.62961732 -5.52734375 25.83203125 C-6.26472778 26.0699791 -7.00211182 26.30792694 -7.76184082 26.55308533 C-10.14930076 27.32095938 -12.54311934 28.06652076 -14.9375 28.8125 C-18.21092502 29.85789317 -21.48056362 30.91486437 -24.75 31.97265625 C-25.55279892 32.23082123 -26.35559784 32.48898621 -27.182724 32.75497437 C-34.54290355 35.1371001 -41.75895489 37.83707465 -48.91967773 40.76489258 C-52.75704631 42.30224018 -55.77917526 43.43634769 -60 43 C-62.56235522 35.95650263 -64.5003731 29.49440349 -65 22 C-58.22570429 18.46810223 -51.26713927 15.55082741 -44.1875 12.6875 C-42.4084729 11.96554443 -42.4084729 11.96554443 -40.59350586 11.22900391 C-8.10329122 -1.88112118 -8.10329122 -1.88112118 0 0 Z " fill="#504940" transform="translate(452,23)"/>
<path d="M0 0 C2.0625 1.5625 2.0625 1.5625 3 4 C3.17821261 6.85140177 2.92914963 9.292848 2 12 C-0.93837168 14.85194898 -2.53597436 15 -6.625 15 C-10 14 -10 14 -12 11.875 C-13.30782688 8.11499772 -13.06090617 5.81926223 -12 2 C-8.81688665 -2.07438508 -4.54417813 -1.38635943 0 0 Z " fill="#DC6586" transform="translate(381,425)"/>
<path d="M0 0 C2.0625 1.5625 2.0625 1.5625 3 4 C3.17821261 6.85140177 2.92914963 9.292848 2 12 C-0.93837168 14.85194898 -2.53597436 15 -6.625 15 C-10 14 -10 14 -12 11.875 C-13.30782688 8.11499772 -13.06090617 5.81926223 -12 2 C-8.81688665 -2.07438508 -4.54417813 -1.38635943 0 0 Z " fill="#DC6586" transform="translate(173,417)"/>
<path d="M0 0 C-1.65236651 4.29067546 -4.8905207 7.1429553 -8.1015625 10.296875 C-8.69802582 10.89050842 -9.29448914 11.48414185 -9.9090271 12.09576416 C-11.8096981 13.98526627 -13.71721474 15.86768392 -15.625 17.75 C-16.91712468 19.03209065 -18.20879676 20.31463761 -19.5 21.59765625 C-22.66144479 24.73708432 -25.8290461 27.87017801 -29 31 C-29.66 30.67 -30.32 30.34 -31 30 C-24.73359852 22.9036179 -18.25375991 16.07122007 -11.5625 9.375 C-10.21768555 8.01181641 -10.21768555 8.01181641 -8.84570312 6.62109375 C-7.99041016 5.76386719 -7.13511719 4.90664063 -6.25390625 4.0234375 C-5.48377197 3.24919434 -4.7136377 2.47495117 -3.92016602 1.67724609 C-2 0 -2 0 0 0 Z " fill="#36A648" transform="translate(153,39)"/>
</svg>
