<?xml version="1.0" encoding="UTF-8"?>
<svg version="1.1" xmlns="http://www.w3.org/2000/svg" width="512" height="512">
<path d="M0 0 C1.02030853 0.00037972 2.04061705 0.00075944 3.09184402 0.00115067 C4.85046197 -0.00183591 4.85046197 -0.00183591 6.64460754 -0.00488281 C7.94905333 -0.00196997 9.25349912 0.00094287 10.59747356 0.00394398 C11.98426974 0.0035084 13.37106584 0.00263374 14.7578615 0.00135481 C18.58654136 -0.00089275 22.41519351 0.00313468 26.24386984 0.00813287 C30.36590851 0.01243347 34.48794549 0.01099123 38.60998577 0.0102306 C45.75763424 0.00970512 52.90527362 0.01285447 60.05291981 0.01846844 C70.38733853 0.02658014 80.72175283 0.02919832 91.05617439 0.03045643 C107.82128096 0.03264747 124.58638269 0.03930897 141.35148662 0.04875904 C157.64152544 0.05793182 173.93156294 0.06501331 190.22160381 0.06926686 C191.2249716 0.06952958 192.22833939 0.0697923 193.26211227 0.07006299 C198.29548957 0.07136798 203.32886687 0.0726317 208.36224419 0.07387489 C250.14861939 0.08424913 291.93498925 0.10186885 333.72135967 0.1241985 C334.8433329 2.35741664 335.9641391 4.59120785 337.08428997 6.82533985 C337.39978125 7.45300849 337.71527253 8.08067713 338.04032415 8.72736603 C340.42850105 13.49386101 342.66640243 18.30143628 344.77995342 23.194511 C345.12583004 23.98630757 345.47170666 24.77810414 345.82806438 25.59389454 C346.56223404 27.27550305 347.29479475 28.95781486 348.02580303 30.64080006 C349.99880596 35.1828305 351.98418295 39.71945695 353.96745342 44.257011 C354.36894603 45.17653553 354.77043865 46.09606007 355.18409771 47.04344898 C358.99006604 55.75484261 362.85033149 64.44156961 366.72135967 73.1241985 C372.7455061 86.64560658 378.7138746 100.1908128 384.6566624 113.7481609 C389.83314466 125.55697594 395.0277074 137.35756917 400.24455303 149.14861256 C401.87692991 152.83820138 403.50665329 156.52894162 405.13371319 160.22087818 C408.44805409 167.73907297 411.76815183 175.25262422 415.17448467 182.72966725 C415.65917217 183.8058733 416.14385967 184.88207936 416.64323467 185.99089772 C417.49011939 187.86930048 418.34834806 189.74265845 419.22135967 191.60906178 C421.24290456 196.12732447 422.49635736 199.2341851 420.72135967 204.1241985 C418.93620342 206.5460735 418.93620342 206.5460735 416.65885967 208.8741985 C412.7871159 212.96613622 409.21835778 217.16550089 405.72917217 221.585136 C396.96818578 232.66420439 387.85105772 243.47234561 378.86882061 254.37224537 C370.53137572 264.48695816 370.53137572 264.48695816 362.22135967 274.6241985 C355.46270296 282.89449561 348.66123929 291.12967931 341.86882061 299.37224537 C333.53137572 309.48695816 333.53137572 309.48695816 325.22135967 319.6241985 C318.46270296 327.89449561 311.66123929 336.12967931 304.86882061 344.37224537 C296.53137572 354.48695816 296.53137572 354.48695816 288.22135967 364.6241985 C281.46270296 372.89449561 274.66123929 381.12967931 267.86882061 389.37224537 C259.53137572 399.48695816 259.53137572 399.48695816 251.22135967 409.6241985 C244.46270296 417.89449561 237.66123929 426.12967931 230.86882061 434.37224537 C222.53137572 444.48695816 222.53137572 444.48695816 214.22135967 454.6241985 C207.46270296 462.89449561 200.66123929 471.12967931 193.86882061 479.37224537 C192.04868188 481.58110477 190.228729 483.79011714 188.40885967 485.9991985 C187.82467266 486.70818287 187.24048565 487.41716725 186.638596 488.147636 C183.3228685 492.173439 180.01767299 496.2074877 176.72135967 500.2491985 C173.44563681 504.25966293 170.11270673 508.21110574 166.72135967 512.1241985 C162.64110594 510.57161935 160.34398908 507.66105919 157.65885967 504.3741985 C157.17989239 503.79855152 156.7009251 503.22290455 156.20744365 502.62981373 C152.35374987 497.96998691 148.63195221 493.20952543 144.92277569 488.43450123 C141.11173299 483.55466408 137.11840039 478.85195196 133.06803936 474.17009693 C128.51477726 468.90492414 124.10569662 463.5307488 119.72135967 458.1241985 C118.22221467 456.29016595 116.72220645 454.45683869 115.22135967 452.6241985 C113.02910821 449.9451993 110.83716499 447.26595642 108.64714092 444.585136 C101.69550489 436.07869782 94.70772385 427.60211645 87.72135967 419.1241985 C80.83844914 410.77182104 73.95677475 402.41873599 67.10807842 394.038261 C61.66106939 387.38773933 56.18831648 380.7583232 50.72135967 374.1241985 C43.83844914 365.77182104 36.95677475 357.41873599 30.10807842 349.038261 C24.66106939 342.38773933 19.18831648 335.7583232 13.72135967 329.1241985 C6.83844914 320.77182104 -0.04322525 312.41873599 -6.89192158 304.038261 C-12.33893061 297.38773933 -17.81168352 290.7583232 -23.27864033 284.1241985 C-30.16155086 275.77182104 -37.04322525 267.41873599 -43.89192158 259.038261 C-49.33893061 252.38773933 -54.81168352 245.7583232 -60.27864033 239.1241985 C-64.43207701 234.08402389 -68.58484839 229.04330624 -72.73469502 224.00017506 C-73.70635678 222.81955378 -74.67831878 221.63917946 -75.65071064 220.45915943 C-77.54225026 218.1632318 -79.42745596 215.86292833 -81.29817158 213.54997975 C-82.6445875 211.90081941 -84.01830298 210.27365406 -85.41535908 208.66716725 C-86.07149189 207.88986256 -86.7276247 207.11255787 -87.40364033 206.3116985 C-88.27375752 205.31203053 -88.27375752 205.31203053 -89.16145283 204.29216725 C-90.74174222 201.22552174 -90.02453416 199.45913699 -89.27864033 196.1241985 C-88.512605 194.07410796 -87.6755028 192.04979761 -86.78645283 190.04997975 C-85.99138325 188.24726612 -85.99138325 188.24726612 -85.18025166 186.40813404 C-84.58813514 185.08428316 -83.99592818 183.76047273 -83.40364033 182.4366985 C-82.77888548 181.02658593 -82.15479951 179.61617685 -81.53132588 178.20549732 C-80.17548346 175.14064719 -78.81563684 172.07761601 -77.45295674 169.01580006 C-75.2222896 164.00156 -73.00520728 158.98137976 -70.79035908 153.960136 C-67.59962196 146.72821688 -64.40586209 139.49764631 -61.20832783 132.26872975 C-60.80090855 131.34762913 -60.39348927 130.42652851 -59.97372395 129.47751576 C-59.15086099 127.61724265 -58.32797995 125.75697754 -57.50508076 123.89672047 C-53.90780861 115.7646369 -50.31133573 107.63220042 -46.71614033 99.4991985 C-46.3241042 98.6124242 -45.93206806 97.72564991 -45.52815205 96.81200367 C-40.07213724 84.46892039 -34.63739476 72.11666636 -29.2183376 59.75731617 C-23.26311422 46.17619516 -17.29737982 32.59978303 -11.28776509 19.04262501 C-10.57801111 17.44086299 -9.86903646 15.8387554 -9.160873 14.23628956 C-8.1907038 12.04165017 -7.21755552 9.84835813 -6.24348408 7.6554485 C-5.95587208 7.00345982 -5.66826008 6.35147114 -5.37193257 5.67972523 C-2.91192059 0.15871577 -2.91192059 0.15871577 0 0 Z " fill="#010304" transform="translate(90.2786403298378,-0.12419849634170532)"/>
<path d="M0 0 C5.78762387 0.03133588 11.57529087 0.04452539 17.36297607 0.05950928 C28.6098289 0.09116696 39.85649821 0.14199155 51.10321045 0.20599365 C47.69383679 9.96794974 44.22673284 19.69290729 40.47821045 29.33099365 C40.0584494 30.41649002 39.63868835 31.50198639 39.20620728 32.62037659 C37.84081764 36.14980149 36.47199849 39.67788551 35.10321045 43.20599365 C34.1288431 45.7222927 33.15530613 48.23891268 32.18182373 50.7555542 C30.41648829 55.31863412 28.65037206 59.88141019 26.88315773 64.44376278 C22.36222274 76.11544481 17.85414804 87.79208528 13.34783936 99.46942139 C11.97095296 103.03729972 10.59373625 106.60505043 9.2164917 110.17279053 C3.166996 125.8460205 -2.86872528 141.52451001 -8.89678955 157.20599365 C-25.82249323 201.23476154 -42.82628793 245.23317017 -59.89678955 289.20599365 C-60.55678955 289.20599365 -61.21678955 289.20599365 -61.89678955 289.20599365 C-72.37352076 262.23611953 -82.81530419 235.25320749 -93.19171143 208.24456787 C-98.55400171 194.28864821 -103.93234107 180.33902305 -109.32159424 166.39349365 C-112.5521103 158.03353416 -115.77756233 149.67162482 -119.00106812 141.30895996 C-121.11158329 135.83382082 -123.22358413 130.35927259 -125.34063721 124.88665771 C-127.2120154 120.04835515 -129.07681642 115.20756969 -130.9364624 110.36474609 C-131.6024798 108.63349034 -132.27074168 106.90309584 -132.94158936 105.17370605 C-136.9149627 94.9261133 -140.40316508 84.66671489 -143.36746216 74.08227539 C-144.13001623 71.3792861 -144.93525414 68.68948445 -145.74053955 65.9989624 C-148.78177742 55.72953413 -151.66471063 45.45525937 -154.18267822 35.04437256 C-155.60438905 29.21064104 -157.27976568 23.52767322 -159.1975708 17.8348999 C-159.90585555 15.17190752 -160.03113138 12.94756202 -159.89678955 10.20599365 C-156.12780263 9.37989562 -152.4253183 8.92137842 -148.58233643 8.58929443 C-147.32070679 8.47892853 -146.05907715 8.36856262 -144.75921631 8.25485229 C-143.37799787 8.13691989 -141.99677205 8.01907381 -140.61553955 7.90130615 C-139.16430827 7.77561667 -137.71309608 7.64970663 -136.26190186 7.52359009 C-133.19877398 7.25796867 -130.13549464 6.99419516 -127.07208252 6.73187256 C-121.77937959 6.2786251 -116.48723697 5.81897632 -111.19508076 5.35939693 C-107.39567724 5.03026682 -103.59596573 4.70559591 -99.79551697 4.38874817 C-98.24162089 4.25898619 -96.68773194 4.12913887 -95.1338501 3.99920654 C-94.3639635 3.93484689 -93.5940769 3.87048723 -92.8008604 3.80417728 C-88.31728246 3.42482343 -83.8388275 3.01060223 -79.36153316 2.56334209 C-52.90221252 -0.06955621 -26.57281156 -0.15974485 0 0 Z " fill="#0BCAFC" transform="translate(316.89678955078125,203.79400634765625)"/>
<path d="M0 0 C0.66 0 1.32 0 2 0 C3.59716797 2.34472656 3.59716797 2.34472656 5.4921875 5.640625 C5.83378906 6.2294899 6.17539062 6.8183548 6.52734375 7.42506409 C7.26414323 8.6970723 7.997552 9.97104919 8.72796631 11.24673462 C10.27185939 13.94310491 11.83164667 16.63015611 13.39041138 19.31794739 C14.17276014 20.66752803 14.95423213 22.01761732 15.73483276 23.36820984 C18.72946406 28.54816552 21.78000616 33.69182351 24.875 38.8125 C28.3937295 44.64687984 31.89112054 50.49327998 35.36328125 56.35546875 C35.75191345 57.0115361 36.14054565 57.66760345 36.54095459 58.34355164 C37.34671456 59.70388951 38.15245976 61.06423612 38.95819092 62.42459106 C39.36386292 63.10947601 39.76953491 63.79436096 40.1875 64.5 C40.59349426 65.18544891 40.99948853 65.87089783 41.41778564 66.57711792 C47.13021242 76.21682043 52.90995601 85.81216581 58.75 95.375 C64.76717933 105.22863129 70.59689242 115.17776154 76.33032227 125.19921875 C80.99860752 133.33150876 85.80699787 141.36911483 90.6875 149.375 C91.04407684 149.95996246 91.40065369 150.54492493 91.76803589 151.14761353 C93.5125834 154.00840465 95.25851819 156.86834493 97.00488281 159.72802734 C100.03972205 164.70513398 103.05599278 169.69323827 106.0625 174.6875 C106.56934326 175.52522949 107.07618652 176.36295898 107.59838867 177.22607422 C108.05189697 177.98033691 108.50540527 178.73459961 108.97265625 179.51171875 C109.36718994 180.16615967 109.76172363 180.82060059 110.16821289 181.49487305 C111 183 111 183 111 184 C7.86434185 185.03439644 7.86434185 185.03439644 -41.54101562 179.67578125 C-48.2642416 178.95545391 -54.99602121 178.37120932 -61.734375 177.8125 C-62.83142258 177.7212384 -63.92847015 177.62997681 -65.0587616 177.53594971 C-67.19851185 177.35853921 -69.33829683 177.18154705 -71.4781189 177.00500488 C-76.23754167 176.61151393 -80.99616957 176.21024824 -85.75390625 175.796875 C-86.55370911 175.73040771 -87.35351196 175.66394043 -88.17755127 175.59545898 C-91.29192421 175.32211003 -94.0216293 174.99279023 -97 174 C-94.38944828 155.4589161 -83.51069718 137.30464938 -73.68701172 121.69042969 C-71.40685596 118.05405973 -69.1887227 114.38136458 -66.96679688 110.70922852 C-65.22549219 107.83454051 -63.47532874 104.96542582 -61.72265625 102.09765625 C-57.69837691 95.51022384 -53.69223742 88.91182075 -49.6875 82.3125 C-48.96779176 81.12677924 -48.24806513 79.94106965 -47.52832031 78.75537109 C-46.07659933 76.36380644 -44.6249434 73.97220233 -43.17333984 71.58056641 C-40.67482244 67.46415086 -38.1758188 63.34803059 -35.676651 59.23200989 C-33.91679084 56.3335939 -32.15706922 53.43509405 -30.39770508 50.53637695 C-27.1199463 45.136288 -23.84082383 39.73704236 -20.55670166 34.34082031 C-19.02919337 31.83073871 -17.50248441 29.32017137 -15.97583008 26.80957031 C-14.91629964 25.06788932 -13.8556337 23.32689926 -12.79492188 21.5859375 C-12.13814453 20.50570312 -11.48136719 19.42546875 -10.8046875 18.3125 C-10.17272461 17.27351563 -9.54076172 16.23453125 -8.88964844 15.1640625 C-6.3295213 10.87733799 -3.88063269 6.52910722 -1.44970703 2.16796875 C-0.97130371 1.45253906 -0.49290039 0.73710937 0 0 Z " fill="#B6FBFC" transform="translate(256,12)"/>
<path d="M0 0 C0.89874816 0.00092179 1.79749632 0.00184359 2.72347927 0.00279331 C3.75138073 0.00141865 4.77928219 0.00004398 5.83833218 -0.00137234 C6.975527 0.00222294 8.11272182 0.00581821 9.2843771 0.00952244 C10.47445873 0.00937641 11.66454037 0.00923038 12.89068508 0.00907993 C16.16326569 0.00965889 19.43580402 0.01468801 22.70837617 0.02165389 C26.1250196 0.02788815 29.54166379 0.02849128 32.95831203 0.0296793 C39.43232563 0.0327924 45.90632242 0.0410055 52.3803286 0.05102879 C59.74901216 0.06219058 67.11769651 0.06770054 74.48638642 0.07272422 C89.64814464 0.08318813 104.80988712 0.10078717 119.97163296 0.12304783 C119.02695889 1.39189317 118.08098489 2.65977076 117.13447475 3.92724705 C116.60782726 4.63340153 116.08117977 5.33955601 115.53857327 6.06710911 C113.38687333 8.89029465 111.1035876 11.56014729 108.78413296 14.24804783 C104.91454173 18.76511394 101.17786647 23.35967769 97.53413296 28.06054783 C93.33112342 33.47675851 88.94654318 38.69685764 84.45234585 43.87280369 C81.00233017 47.86653248 77.70319488 51.9511305 74.47163296 56.12304783 C70.24123409 61.58189826 65.83618355 66.85496923 61.3180685 72.07739353 C56.76493919 77.34252874 52.35589788 82.71658635 47.97163296 88.12304783 C46.47248795 89.95708037 44.97247973 91.79040764 43.47163296 93.62304783 C41.2793815 96.30204703 39.08743828 98.98128991 36.89741421 101.66211033 C31.65596184 108.07586535 26.39272154 114.47142136 21.12519741 120.86377048 C17.90048749 124.77796714 14.6804693 128.6958153 11.47163296 132.62304783 C7.03766416 138.04969621 2.58049757 143.45711064 -1.87602329 148.86523533 C-5.10031428 152.77895355 -8.31993288 156.69630751 -11.52836704 160.62304783 C-18.28702375 168.89334495 -25.08848742 177.12852865 -31.88090611 185.3710947 C-38.13962052 192.9664609 -44.39496834 200.56426136 -50.62211704 208.18554783 C-54.36382346 212.75334528 -58.12099248 217.30839032 -61.87602329 221.86523533 C-65.10031428 225.77895355 -68.31993288 229.69630751 -71.52836704 233.62304783 C-75.84003153 238.89905871 -80.16936631 244.16041134 -84.5046854 249.41699314 C-87.63302525 253.21060554 -90.75473753 257.00933854 -93.86430454 260.81836033 C-94.48861362 261.5813242 -95.11292271 262.34428806 -95.75615025 263.13037205 C-96.94695571 264.5859594 -98.13571882 266.04322089 -99.32206821 267.50244236 C-102.39207032 271.24976453 -105.53463348 274.76594072 -109.02836704 278.12304783 C-107.05625868 271.19769396 -104.74462307 264.48395328 -102.13383579 257.77539158 C-101.75431263 256.7911974 -101.37478947 255.80700321 -100.9837656 254.79298496 C-99.73128553 251.54748045 -98.47356872 248.30403202 -97.21586704 245.06054783 C-96.32293465 242.74948676 -95.43036406 240.43828587 -94.53813267 238.12695408 C-92.65975446 233.26273693 -90.77925743 228.3993469 -88.89701939 223.53662205 C-86.09922484 216.30798804 -83.30703919 209.07719881 -80.51664829 201.84570408 C-80.06452473 200.6740218 -79.61240116 199.50233952 -79.14657688 198.29515171 C-78.23261902 195.92660077 -77.31867351 193.55804506 -76.40474033 191.1894846 C-75.01823039 187.59678189 -73.63116783 184.004293 -72.24394321 180.41186619 C-66.15931679 164.65382294 -60.08902342 148.89032411 -54.02836704 133.12304783 C-44.29568233 107.80501169 -34.53797066 82.49668743 -24.76078892 57.19580173 C-22.91436037 52.41736059 -21.0694176 47.63834948 -19.22563267 42.85888767 C-16.98084701 37.04005362 -14.73350356 31.222214 -12.48420811 25.4051218 C-11.64334452 23.22922719 -10.80338858 21.0529816 -9.96437168 18.87637424 C-8.81499432 15.89513781 -7.66234827 12.91518624 -6.50883579 9.93554783 C-5.99803471 8.60725201 -5.99803471 8.60725201 -5.47691441 7.25212193 C-5.1667136 6.45284779 -4.85651279 5.65357365 -4.53691196 4.83007908 C-4.26795612 4.13374363 -3.99900028 3.43740818 -3.72189426 2.71997166 C-2.72973666 0.43541805 -2.54755377 0.15454351 0 0 Z " fill="#006AB9" transform="translate(379.0283670425415,203.87695217132568)"/>
<path d="M0 0 C28.44562002 -1.02137424 55.96720427 -0.58368507 84.0625 4.375 C85.23701721 4.58172333 86.41153442 4.78844666 87.62164307 5.00143433 C94.43752635 6.22103358 101.25083248 7.44875961 108 9 C108.94222412 9.19996582 109.88444824 9.39993164 110.85522461 9.60595703 C114.47729483 11.9601996 115.86528691 15.66267508 117.71875 19.46875 C118.14901489 20.31932983 118.57927979 21.16990967 119.02258301 22.04626465 C119.9197368 23.82148386 120.81057494 25.59990789 121.6953125 27.38134766 C123.28534753 30.57272411 124.9189603 33.74025622 126.55673218 36.90731812 C128.55011396 40.76524504 130.5233127 44.63350085 132.5 48.5 C134.24689095 51.91432104 135.99441491 55.3283177 137.7421875 58.7421875 C138.17985443 59.59726898 138.61752136 60.45235046 139.06845093 61.33334351 C142.01449052 67.08571838 144.97547072 72.83019536 147.9453125 78.5703125 C148.74159205 80.1112994 149.53781685 81.65231459 150.33398438 83.19335938 C151.45260589 85.35850146 152.57209369 87.52315687 153.69555664 89.68579102 C156.1650616 94.44000805 158.5995827 99.21051931 161 104 C161.3879776 104.77214844 161.7759552 105.54429687 162.1756897 106.33984375 C168.83708947 119.69096911 174.41762793 133.31541978 179.64193726 147.28564453 C181.44158414 152.09792903 183.26124424 156.90257839 185.079422 161.70788574 C186.0162838 164.18447725 186.95214569 166.66144723 187.88700867 169.13879395 C192.03226093 180.11720461 196.26188168 191.0617085 200.51895142 201.99716187 C202.45280556 206.96661803 204.38031602 211.93853426 206.30859375 216.91015625 C208.73329647 223.16098532 211.15963615 229.41116663 213.59033203 235.65966797 C215.74159276 241.19182271 217.88474247 246.72706222 220.02261353 252.2644043 C220.83606172 254.3673678 221.65225331 256.46927234 222.47128296 258.57006836 C223.5973359 261.45938743 224.71388068 264.35220434 225.828125 267.24609375 C226.16662979 268.10810898 226.50513458 268.97012421 226.85389709 269.85826111 C227.62812259 271.88398151 228.32276296 273.93982568 229 276 C228.67 276.66 228.34 277.32 228 278 C221.25103301 270.06523321 214.57261022 262.08205235 208 254 C202.07072299 246.73691587 196.11610522 239.49505669 190.15356445 232.25927734 C186.22747162 227.49373259 182.31301136 222.71890943 178.40625 217.9375 C175.27823847 214.11888852 172.13915083 210.30945577 169 206.5 C164.45786868 200.98798441 159.92539199 195.4683902 155.40625 189.9375 C152.27823847 186.11888852 149.13915083 182.30945577 146 178.5 C142.15935985 173.83926544 138.32120446 169.17669799 134.5 164.5 C128.35577669 156.98156039 122.1749163 149.49323 116 142 C109.12355828 133.65547241 102.24777077 125.31070452 95.40625 116.9375 C92.27823847 113.11888852 89.13915083 109.30945577 86 105.5 C82.15935985 100.83926544 78.32120446 96.17669799 74.5 91.5 C68.35577669 83.98156039 62.1749163 76.49323 56 69 C49.12355828 60.65547241 42.24777077 52.31070452 35.40625 43.9375 C31.66751538 39.37333047 27.91350236 34.82176023 24.16113281 30.26879883 C20.15317742 25.40440093 16.15963438 20.52869018 12.17578125 15.64453125 C10.53756123 13.65337334 8.88974412 11.67270339 7.23046875 9.69921875 C6.5329248 8.86837769 6.5329248 8.86837769 5.82128906 8.02075195 C4.50672108 6.45732521 3.18899413 4.89655621 1.87109375 3.3359375 C0 1 0 1 0 0 Z " fill="#B6FBFC" transform="translate(13,204)"/>
<path d="M0 0 C49.83 0 99.66 0 151 0 C149.81669437 6.50818095 148.65057974 12.83473642 147.01171875 19.2109375 C146.8283194 19.93751053 146.64492004 20.66408356 146.45596313 21.41267395 C146.06841734 22.94683988 145.67931968 24.48061458 145.28872681 26.01400757 C144.26551082 30.03213381 143.25456338 34.0533503 142.2421875 38.07421875 C141.94514671 39.25214745 141.94514671 39.25214745 141.6421051 40.45387268 C139.5489527 48.76547395 137.56509921 57.10135315 135.60351562 65.44482422 C134.43710176 70.38320915 133.24832702 75.3162478 132.0625 80.25 C131.55207049 82.37499692 131.04165386 84.49999692 130.53125 86.625 C130.27730469 87.68203125 130.02335938 88.7390625 129.76171875 89.828125 C129.0175498 92.92692082 128.27423456 96.02592001 127.53125 99.125 C127.04167375 101.16666837 126.55209038 103.20833502 126.0625 105.25 C125.81765869 106.27134033 125.57281738 107.29268066 125.32055664 108.3449707 C123.9797441 113.93349821 122.63255732 119.52041494 121.27734375 125.10546875 C118.09475605 138.22947847 114.9607476 151.36175162 111.953125 164.52709961 C110.69381868 170.03434142 109.39326898 175.52504161 108 181 C104.99175468 178.20178342 102.93258453 175.48397513 100.92578125 171.90625 C100.06170654 170.38294067 100.06170654 170.38294067 99.18017578 168.82885742 C98.56384277 167.73033447 97.94750977 166.63181152 97.3125 165.5 C95.96727742 163.12862317 94.61549157 160.76103577 93.26171875 158.39453125 C92.73837952 157.47889153 92.73837952 157.47889153 92.20446777 156.54475403 C88.46181613 150.02066095 84.55162123 143.60194499 80.625 137.1875 C73.94698658 126.26621154 67.41480152 115.26696773 60.97119141 104.20581055 C57.16551486 97.67714744 53.31935471 91.17587597 49.42358398 84.70077515 C46.78672609 80.31669599 44.16803822 75.92229222 41.5625 71.51953125 C41.19386337 70.89681335 40.82522675 70.27409546 40.44541931 69.63250732 C39.68762081 68.35235857 38.9298442 67.07219687 38.17208862 65.79202271 C31.49147721 54.50923937 24.75810149 43.2612203 17.9375 32.0625 C8.43017332 16.44182436 8.43017332 16.44182436 3.9375 8.875 C3.52556396 8.18801025 3.11362793 7.50102051 2.68920898 6.79321289 C0 2.23475582 0 2.23475582 0 0 Z " fill="#0085E8" transform="translate(265,8)"/>
<path d="M0 0 C50.49 0 100.98 0 153 0 C151.47322075 3.81694812 149.97915275 6.921105 147.90234375 10.41015625 C146.96080444 11.99654907 146.96080444 11.99654907 146.00024414 13.61499023 C145.31283635 14.764264 144.62524981 15.91343087 143.9375 17.0625 C143.21915864 18.26821463 142.50098143 19.47402706 141.78295898 20.67993164 C134.99274141 32.0683511 128.11165454 43.40177146 121.2129364 54.72468567 C117.65485408 60.56462515 114.10626676 66.41030751 110.55847168 72.25650024 C109.50607968 73.98998563 108.45287171 75.72297259 107.39941406 77.45581055 C104.09948976 82.88508728 100.80553005 88.31773979 97.53091431 93.7623291 C95.99641486 96.31291656 94.45877298 98.86160275 92.92089844 101.41015625 C92.19390826 102.6168959 91.46843146 103.82454884 90.74462891 105.03320312 C85.27098456 114.17225731 79.41955399 122.53134764 72.4375 130.5625 C71.93009277 131.15039307 71.42268555 131.73828613 70.89990234 132.34399414 C69.26933687 134.23171597 67.63494054 136.11606676 66 138 C64.84754657 139.33063418 63.69520375 140.66136417 62.54296875 141.9921875 C60.36633681 144.50543418 58.18771411 147.01693309 56.0078125 149.52734375 C52.99031136 153.00549427 49.99271126 156.50051231 47 160 C44.38423278 157.38423278 43.80281281 154.97895734 42.60498047 151.47192383 C42.37369949 150.79966263 42.14241852 150.12740143 41.90412903 149.43476868 C41.13547203 147.19430163 40.3758856 144.95088882 39.6171875 142.70703125 C39.07889696 141.12499056 38.54041078 139.54301644 38.0017395 137.96110535 C36.86608023 134.62074799 35.73531136 131.27877941 34.60742188 127.93579102 C33.4710284 124.56946622 32.32700378 121.20591809 31.17480469 117.8449707 C23.83084715 96.41881255 17.26445771 75.03731929 12 53 C11.51669304 51.00311228 11.03314931 49.00628184 10.54931641 47.00952148 C9.76203105 43.74888201 8.98837174 40.48543597 8.2265625 37.21875 C7.30542489 33.27585046 6.35702955 29.34021216 5.3984375 25.40625 C4.98779053 23.71604736 4.98779053 23.71604736 4.56884766 21.99169922 C4.03705862 19.80524399 3.50300855 17.61933699 2.96630859 15.43408203 C2.72477051 14.43747559 2.48323242 13.44086914 2.234375 12.4140625 C2.02006836 11.5370166 1.80576172 10.6599707 1.58496094 9.75634766 C0.9009718 6.53337714 0.46594807 3.26163647 0 0 Z " fill="#0085E8" transform="translate(96,8)"/>
<path d="M0 0 C2.48529938 3.05213794 4.03949696 6.06971402 5.57421875 9.6875 C6.06817139 10.84161377 6.56212402 11.99572754 7.07104492 13.18481445 C7.33307709 13.80345367 7.59510925 14.4220929 7.86508179 15.05947876 C9.30415394 18.45501407 10.76243669 21.84230082 12.21875 25.23046875 C12.52608566 25.94655807 12.83342133 26.6626474 13.15007019 27.4004364 C16.59091478 35.40303586 20.13768179 43.35780028 23.6875 51.3125 C29.43784448 64.21090756 35.14318579 77.12827362 40.8125 90.0625 C46.77468745 103.66469842 52.758965 117.25683781 58.76751709 130.83862305 C62.18179193 138.55755905 65.59149522 146.27851466 69 154 C69.30629333 154.69357605 69.61258667 155.3871521 69.92816162 156.10174561 C71.68724505 160.0860616 73.43984757 164.07315222 75.1875 168.0625 C75.59162109 168.97789551 75.99574219 169.89329102 76.41210938 170.83642578 C76.76466797 171.64450684 77.11722656 172.45258789 77.48046875 173.28515625 C77.77848389 173.96457275 78.07649902 174.64398926 78.38354492 175.34399414 C79 177 79 177 79 179 C38.74 179 -1.52 179 -43 179 C-38.4053968 157.17563478 -38.4053968 157.17563478 -36.13427734 147.86108398 C-35.87665619 146.79435959 -35.61903503 145.72763519 -35.35360718 144.62858582 C-34.51698691 141.1671193 -33.67647167 137.70661173 -32.8359375 134.24609375 C-32.23757705 131.7731816 -31.63948947 129.30020341 -31.04165649 126.8271637 C-29.63199319 120.99829156 -28.21996866 115.16999689 -26.80662978 109.34201533 C-24.15816492 98.42045753 -21.51538284 87.49752334 -18.87241364 76.57463455 C-17.96643894 72.8313246 -17.05974493 69.08818936 -16.15301514 65.34506226 C-13.38204705 53.89952536 -10.62344702 42.45134168 -7.90722656 30.99267578 C-7.55125743 29.49172599 -7.55125743 29.49172599 -7.188097 27.96045399 C-6.09200134 23.33576173 -4.99924041 18.71031738 -3.91171265 14.08360291 C-3.5344473 12.48679588 -3.1571409 10.88999856 -2.77978516 9.29321289 C-2.61190113 8.57376307 -2.44401711 7.85431324 -2.27104568 7.1130619 C-1.1131685 2.226337 -1.1131685 2.226337 0 0 Z " fill="#0BC9FB" transform="translate(422,17)"/>
<path d="M0 0 C2.83901099 2.83901099 3.23535507 6.16591498 4.14111328 9.96240234 C4.34162167 10.78641163 4.54213005 11.61042091 4.74871445 12.45940018 C5.40983905 15.20716585 6.0549287 17.95826665 6.6953125 20.7109375 C6.91803959 21.66398144 7.14076668 22.61702538 7.37024307 23.59894943 C12.35323992 45.12064547 15.56902703 66.79394546 18.47979736 88.67675781 C19.14225816 93.61876649 19.83076391 98.55714947 20.515625 103.49609375 C23.57196313 125.63668479 26.40452337 147.8007097 29 170 C24.15474025 170.95504411 19.30756048 171.89076666 14.44921875 172.77734375 C10.23927807 173.55459309 6.06848969 174.42855867 1.89453125 175.37890625 C-24.37637206 180.94664032 -51.2952999 179.46696905 -78 179 C-76.03088071 172.71255673 -73.67582894 166.72035212 -70.96484375 160.71875 C-70.57433838 159.84467499 -70.18383301 158.97059998 -69.78149414 158.07003784 C-68.94174603 156.19144846 -68.10012872 154.3136937 -67.25680542 152.43670654 C-64.98551234 147.38092404 -62.72833519 142.31883552 -60.46875 137.2578125 C-60.00758286 136.22596832 -59.54641571 135.19412415 -59.0712738 134.13101196 C-54.64930836 124.2315625 -50.2865899 114.30663227 -45.9375 104.375 C-44.45746696 100.99720475 -42.97695089 97.61962154 -41.49609375 94.2421875 C-40.94513283 92.98556305 -40.94513283 92.98556305 -40.38304138 91.70355225 C-36.10872375 81.96018736 -31.80412366 72.23022484 -27.5 62.5 C-18.29285204 41.68440935 -9.13868892 20.84572434 0 0 Z " fill="#0BC9FB" transform="translate(89,17)"/>
<path d="M0 0 C2.02382839 3.03574258 2.99431304 5.58552004 4.15478516 9.03198242 C4.57506989 10.27304245 4.99535461 11.51410248 5.42837524 12.79277039 C5.88203216 14.14697152 6.3355923 15.50120508 6.7890625 16.85546875 C7.25664395 18.24136641 7.724616 19.62713235 8.19296265 21.01277161 C9.42325882 24.65615348 10.64824279 28.30129989 11.87213135 31.94683838 C13.12249001 35.66811255 14.37786126 39.38769454 15.6328125 43.10742188 C18.09345235 50.40330045 20.54848299 57.7010503 23 65 C23.66 65 24.32 65 25 65 C27.01186591 62.83063203 28.92248585 60.64667359 30.8125 58.375 C31.33392578 57.75753906 31.85535156 57.14007813 32.39257812 56.50390625 C33.93493628 54.67464252 35.46881119 52.83861854 37 51 C37.4954834 50.40606445 37.9909668 49.81212891 38.50146484 49.20019531 C39.6684489 47.80080168 40.83434933 46.4005045 42 45 C43 47 43 47 42.10375977 49.79736328 C41.63768311 50.95993652 41.17160645 52.12250977 40.69140625 53.3203125 C40.44583481 53.93897186 40.20026337 54.55763123 39.94725037 55.19503784 C39.15953073 57.17465379 38.36117154 59.14978051 37.5625 61.125 C37.02728972 62.46456226 36.49277544 63.80440283 35.95898438 65.14453125 C34.64870236 68.43348175 33.32492448 71.71692246 32 75 C40.46867983 76.41145559 48.87099959 77.43227909 57.43359375 78.03515625 C58.55516373 78.11873886 59.6767337 78.20232147 60.83229065 78.28843689 C64.36702461 78.55128505 67.90219876 78.80740508 71.4375 79.0625 C74.99772209 79.3220167 78.55781525 79.58304892 82.11769104 79.84727478 C84.32006138 80.01049769 86.52264144 80.17092253 88.72544861 80.32814026 C93.53517694 80.68237843 98.25768853 81.07772879 103 82 C103 82.66 103 83.32 103 84 C62.90534882 88.01355462 62.90534882 88.01355462 46.8125 89.25 C45.78334473 89.32976074 44.75418945 89.40952148 43.69384766 89.49169922 C39.11807669 89.82974884 34.59214164 90.09261462 30 90 C30.21914062 90.59941406 30.43828125 91.19882813 30.6640625 91.81640625 C33.41338529 99.67321081 35.51231611 107.63362589 37.5612793 115.6965332 C39.77334479 124.32658639 42.26860361 132.85993282 44.90356445 141.37011719 C45.19191162 142.32563477 45.48025879 143.28115234 45.77734375 144.265625 C46.03765381 145.10899414 46.29796387 145.95236328 46.56616211 146.82128906 C47 149 47 149 46 152 C45.71914551 151.4330542 45.43829102 150.8661084 45.14892578 150.28198242 C37.12760164 134.0741907 37.12760164 134.0741907 28.6862793 118.08276367 C26.45335309 113.95348724 24.48749385 109.84004137 22.75 105.4765625 C19.0381638 95.7191774 19.0381638 95.7191774 11.43359375 89.21875 C7.86291911 88.4004704 4.2958028 88.26711139 0.64404297 88.16162109 C-4.6486614 87.8380966 -9.84892422 86.74291801 -15.0625 85.8125 C-17.15704332 85.4617916 -19.2520585 85.11388307 -21.34765625 84.76953125 C-22.69355835 84.54680542 -22.69355835 84.54680542 -24.06665039 84.31958008 C-24.70465576 84.21411865 -25.34266113 84.10865723 -26 84 C-26 83.34 -26 82.68 -26 82 C-21.85696045 81.28046981 -17.71268449 80.56868016 -13.56713867 79.86376953 C-12.15955528 79.62333628 -10.75231933 79.380859 -9.34545898 79.13623047 C-7.31323645 78.78323896 -5.27984241 78.43782606 -3.24609375 78.09375 C-2.02591553 77.88427734 -0.8057373 77.67480469 0.45141602 77.45898438 C4.01027314 76.99867124 7.41588385 76.91959358 11 77 C10.85965584 76.09275932 10.85965584 76.09275932 10.71647644 75.16719055 C9.72514981 68.75727191 8.73553479 62.34709055 7.74682617 55.93676758 C7.37973439 53.5581218 7.01223487 51.17953891 6.64428711 48.80102539 C4.80161248 36.88774426 2.96926939 24.97307102 1.23828125 13.04296875 C1.1113237 12.18020828 0.98436615 11.31744781 0.8535614 10.42854309 C0.7398671 9.63509995 0.62617279 8.8416568 0.5090332 8.02416992 C0.41000198 7.33916916 0.31097076 6.6541684 0.2089386 5.94841003 C0 4 0 4 0 0 Z " fill="#F5F5F5" transform="translate(116,117)"/>
<path d="M0 0 C2.00993705 3.01490557 2.72623341 5.2149927 3.625 8.6875 C3.88539062 9.68136719 4.14578125 10.67523438 4.4140625 11.69921875 C4.60742188 12.45847656 4.80078125 13.21773437 5 14 C4.34 14 3.68 14 3 14 C2.67 14.66 2.34 15.32 2 16 C1.34 10.72 0.68 5.44 0 0 Z " fill="#BABABA" transform="translate(116,117)"/>
</svg>
