<?xml version="1.0" encoding="UTF-8"?>
<svg version="1.1" xmlns="http://www.w3.org/2000/svg" width="512" height="512">
<path d="M0 0 C1.08796875 0.33902344 2.1759375 0.67804687 3.296875 1.02734375 C23.98751289 8.25877316 41.64872388 20.67671688 57.453125 35.60546875 C59.52265535 37.55120818 61.6186913 39.38682958 63.8125 41.1875 C66.89925993 43.79822949 69.48963529 46.70874715 72.10546875 49.78515625 C74.96085847 53.1233129 77.93123283 56.3560091 80.88671875 59.60546875 C83 62 83 62 84.78515625 64.79296875 C86.91029251 67.37203584 86.91029251 67.37203584 90.609375 67.3828125 C91.99066863 67.31656899 93.37109255 67.22975939 94.75 67.125 C100.93790125 66.9009469 105.5289331 66.90316968 111 70 C115.08147449 74.44337863 118.16505607 79.26966407 121.25 84.4375 C121.72888672 85.23172363 122.20777344 86.02594727 122.70117188 86.84423828 C123.67717341 88.46410272 124.6511521 90.08518777 125.62304688 91.70751953 C126.84829043 93.74741971 128.08474369 95.77971982 129.328125 97.80859375 C131.5932734 101.51524619 133.80825872 105.24952452 136 109 C136.41185547 109.70189453 136.82371094 110.40378906 137.24804688 111.12695312 C160.05830277 150.33315236 179.12070045 196.41982357 179.24023438 242.3059082 C179.24987279 244.53310483 179.28093614 246.75934967 179.3125 248.98632812 C179.40667734 261.64313132 177.54961262 273.59513654 173.4375 285.625 C173.18774414 286.36024902 172.93798828 287.09549805 172.68066406 287.85302734 C162.23939597 317.39131301 143.85718464 342.93768035 123 366 C122.54592773 366.50515137 122.09185547 367.01030273 121.62402344 367.53076172 C118.45182877 371.05398755 115.23454473 374.53413148 112 378 C111.38189453 378.66322266 110.76378906 379.32644531 110.12695312 380.00976562 C89.4875902 402.12765019 89.4875902 402.12765019 80.31640625 409.96484375 C77.83157076 412.14797914 75.42160319 414.39873871 73.01098633 416.66308594 C66.54953463 422.72918572 59.94383831 428.48577546 53 434 C51.75460181 435.00185066 50.50985074 436.0045061 49.265625 437.0078125 C45.52350327 440.02182281 41.76485367 443.01446329 38 446 C37.13246094 446.69222656 36.26492188 447.38445312 35.37109375 448.09765625 C30.36170213 452 30.36170213 452 27 452 C19.51708428 434.14350797 19.51708428 434.14350797 17 426 C12.8531568 428.62955801 9.41233093 431.37548144 5.875 434.8125 C-28.26776441 466.98047576 -74.19212609 490.85342202 -119.375 502.375 C-120.26388916 502.60171387 -121.15277832 502.82842773 -122.06860352 503.06201172 C-125.03571102 503.77386042 -128.00756656 504.40283205 -131 505 C-131.98273392 505.19645615 -131.98273392 505.19645615 -132.98532104 505.3968811 C-145.44138823 507.81274794 -157.63163458 508.50065998 -170.30541992 508.44604492 C-173.30001778 508.43753547 -176.2926979 508.46643906 -179.28710938 508.49804688 C-207.71261145 508.6012023 -233.53402459 501.25805954 -259 489 C-259.73089844 489.72703125 -259.73089844 489.72703125 -260.4765625 490.46875 C-273.28254455 502.57622394 -287.06182085 508.5533653 -304.6652832 508.49047852 C-311.41088376 508.28179938 -316.57143181 507.23535816 -322 503 C-322.66128906 502.49210937 -323.32257813 501.98421875 -324.00390625 501.4609375 C-330.08208166 496.10605227 -332.61552008 490.02316613 -333.37890625 482.03515625 C-334.20465614 462.69058886 -326.27243387 449.34511159 -314 435 C-315.12350897 432.141661 -316.29616921 429.31529953 -317.515625 426.49609375 C-326.495248 405.62495843 -333.0286344 383.48012252 -333.23828125 360.62109375 C-333.25297203 359.29939934 -333.25297203 359.29939934 -333.26795959 357.95100403 C-333.42995064 339.61073517 -333.50476273 321.89306737 -329 304 C-328.54799687 302.07426104 -328.09618046 300.14847825 -327.64453125 298.22265625 C-323.0154246 279.0983831 -316.55231566 260.71845028 -308 243 C-307.54915039 242.06559082 -307.09830078 241.13118164 -306.63378906 240.16845703 C-296.10635937 218.62045226 -283.42374392 198.39399082 -268 180 C-267.53706543 179.44231934 -267.07413086 178.88463867 -266.59716797 178.31005859 C-247.12363184 154.91417453 -247.12363184 154.91417453 -235.953125 145.64453125 C-233.57217133 143.63976826 -231.33193281 141.50514128 -229.0625 139.375 C-222.40618849 133.30872164 -215.27945714 127.90324003 -208.05761719 122.53125 C-206.77613318 121.57758748 -205.4975886 120.61994607 -204.22363281 119.65625 C-188.71964054 107.93438933 -171.61461049 98.17896254 -154 90 C-153.22543457 89.6400293 -152.45086914 89.28005859 -151.65283203 88.90917969 C-149.21095543 87.78245781 -146.76361563 86.66896826 -144.3125 85.5625 C-143.17989746 85.04852661 -143.17989746 85.04852661 -142.02441406 84.52416992 C-138.36647669 82.90305737 -134.99800376 81.55987824 -131 81 C-131.67804688 80.15179688 -132.35609375 79.30359375 -133.0546875 78.4296875 C-158 47.0595461 -158 47.0595461 -158 41 C-156.60498047 39.86181641 -156.60498047 39.86181641 -154.6171875 38.6015625 C-153.50234985 37.89181274 -153.50234985 37.89181274 -152.36499023 37.16772461 C-151.54329346 36.65862549 -150.72159668 36.14952637 -149.875 35.625 C-149.02043213 35.09334229 -148.16586426 34.56168457 -147.28540039 34.01391602 C-123.41118962 19.32525432 -98.300743 6.84325283 -71 0 C-70.21512207 -0.20737793 -69.43024414 -0.41475586 -68.62158203 -0.62841797 C-47.00219855 -6.19498017 -21.35720154 -6.88428943 0 0 Z " fill="#FECB00" transform="translate(333,4)"/>
<path d="M0 0 C1.08796875 0.33902344 2.1759375 0.67804687 3.296875 1.02734375 C23.98751289 8.25877316 41.64872388 20.67671688 57.453125 35.60546875 C59.52265535 37.55120818 61.6186913 39.38682958 63.8125 41.1875 C66.89925993 43.79822949 69.48963529 46.70874715 72.10546875 49.78515625 C74.96085847 53.1233129 77.93123283 56.3560091 80.88671875 59.60546875 C83 62 83 62 84.78515625 64.79296875 C86.91029251 67.37203584 86.91029251 67.37203584 90.609375 67.3828125 C91.99066863 67.31656899 93.37109255 67.22975939 94.75 67.125 C100.93790125 66.9009469 105.5289331 66.90316968 111 70 C115.08147449 74.44337863 118.16505607 79.26966407 121.25 84.4375 C121.72888672 85.23172363 122.20777344 86.02594727 122.70117188 86.84423828 C123.67717341 88.46410272 124.6511521 90.08518777 125.62304688 91.70751953 C126.84829043 93.74741971 128.08474369 95.77971982 129.328125 97.80859375 C131.5932734 101.51524619 133.80825872 105.24952452 136 109 C136.41185547 109.70189453 136.82371094 110.40378906 137.24804688 111.12695312 C160.05830277 150.33315236 179.12070045 196.41982357 179.24023438 242.3059082 C179.24987279 244.53310483 179.28093614 246.75934967 179.3125 248.98632812 C179.40667734 261.64313132 177.54961262 273.59513654 173.4375 285.625 C173.18774414 286.36024902 172.93798828 287.09549805 172.68066406 287.85302734 C162.23939597 317.39131301 143.85718464 342.93768035 123 366 C122.54592773 366.50515137 122.09185547 367.01030273 121.62402344 367.53076172 C118.45182877 371.05398755 115.23454473 374.53413148 112 378 C111.38189453 378.66322266 110.76378906 379.32644531 110.12695312 380.00976562 C89.4875902 402.12765019 89.4875902 402.12765019 80.31640625 409.96484375 C77.83157076 412.14797914 75.42160319 414.39873871 73.01098633 416.66308594 C66.54953463 422.72918572 59.94383831 428.48577546 53 434 C51.75460181 435.00185066 50.50985074 436.0045061 49.265625 437.0078125 C45.52350327 440.02182281 41.76485367 443.01446329 38 446 C37.13246094 446.69222656 36.26492188 447.38445312 35.37109375 448.09765625 C30.36170213 452 30.36170213 452 27 452 C18.42092556 432.57322049 12.98456758 412.31021936 7.55859375 391.8203125 C6.4010069 387.45981498 5.1712785 383.13342834 3.875 378.8125 C-0.98041753 361.76732116 -3.882395 344.33987876 -6.75 326.875 C-6.90465729 325.9415274 -7.05931458 325.00805481 -7.21865845 324.04629517 C-9.83130855 308.20287458 -11.18689509 292.77506271 -11.18530273 276.71777344 C-11.18748451 274.26739993 -11.2057043 271.8174817 -11.22460938 269.3671875 C-11.27651091 255.28082852 -10.51781355 241.26010279 -6.4375 227.6875 C-6.0511438 226.37857788 -6.0511438 226.37857788 -5.65698242 225.04321289 C6.47142748 185.68516022 32.09726805 153.71339318 60.76123047 125.0534668 C62.50388317 123.30861192 64.23833163 121.55586257 65.97265625 119.80273438 C72.67310674 113.0688353 79.52955429 106.88158793 87 101 C88.23708427 99.98272318 89.47075675 98.96126624 90.69921875 97.93359375 C92.22317164 96.66064487 93.74713989 95.3877143 95.27148438 94.11523438 C96.51472264 93.07730151 97.75742755 92.03872985 99 91 C98.05857296 84.93640002 95.03331843 82.60774015 90.3125 78.875 C81.62387523 73.95691051 72.56434899 72.58133117 62.80078125 74.69140625 C54.83468138 76.94453982 45.9671887 80.0328113 40 86 C37.14711454 85.58862609 34.63900079 84.48974424 32.015625 83.328125 C31.2534668 82.99578857 30.49130859 82.66345215 29.70605469 82.32104492 C28.49030762 81.79087769 28.49030762 81.79087769 27.25 81.25 C13.83474381 75.51944717 0.44120987 71.36097799 -14 69 C-14.95567871 68.83081055 -15.91135742 68.66162109 -16.89599609 68.48730469 C-27.07156261 66.83112717 -37.08484931 66.60429255 -47.375 66.625 C-48.25340546 66.62454681 -49.13181091 66.62409363 -50.03683472 66.62362671 C-63.53419015 66.64402589 -76.44972442 67.56686302 -89.66650391 70.49169922 C-91.79711681 70.95580636 -93.92512253 71.35547667 -96.07421875 71.72265625 C-104.34288802 73.1901034 -112.25128882 75.47126308 -120.21386719 78.10693359 C-128.09496713 80.62769195 -128.09496713 80.62769195 -132 79 C-142.35618676 70.62596511 -152.09054444 54.84482978 -158 43 C-158 42.34 -158 41.68 -158 41 C-156.60498047 39.86181641 -156.60498047 39.86181641 -154.6171875 38.6015625 C-153.50234985 37.89181274 -153.50234985 37.89181274 -152.36499023 37.16772461 C-151.54329346 36.65862549 -150.72159668 36.14952637 -149.875 35.625 C-149.02043213 35.09334229 -148.16586426 34.56168457 -147.28540039 34.01391602 C-123.41118962 19.32525432 -98.300743 6.84325283 -71 0 C-70.21512207 -0.20737793 -69.43024414 -0.41475586 -68.62158203 -0.62841797 C-47.00219855 -6.19498017 -21.35720154 -6.88428943 0 0 Z " fill="#349A45" transform="translate(333,4)"/>
<path d="M0 0 C5.26450242 2.58063844 9.64003664 5.39508702 12 11 C11.9921875 12.89453125 11.9921875 12.89453125 11 15 C9.08249985 16.86179296 7.20130746 18.52312051 5.125 20.1875 C4.60164063 20.61869141 4.07828125 21.04988281 3.5390625 21.49414062 C0.94496694 23.62631587 -1.66057924 25.7369686 -4.31494141 27.79394531 C-12.60389344 34.33826583 -19.99656808 41.69244588 -27.43457031 49.17382812 C-29.62084876 51.3708284 -31.81761938 53.55692678 -34.015625 55.7421875 C-41.46209191 63.18085662 -48.59577553 70.62986038 -55 79 C-55.774646 79.99362549 -55.774646 79.99362549 -56.56494141 81.00732422 C-63.43324069 89.91580701 -69.49495983 99.1970829 -75 109 C-75.40605469 109.71639648 -75.81210937 110.43279297 -76.23046875 111.17089844 C-91.62711744 138.56508952 -98.46603309 165.46016019 -98.25 196.75 C-98.24435028 198.00256088 -98.24435028 198.00256088 -98.23858643 199.28042603 C-98.17177567 211.95376044 -97.8930138 224.44840523 -96 237 C-95.81695312 238.22058105 -95.63390625 239.44116211 -95.4453125 240.69873047 C-90.95115555 270.12943166 -84.89171687 299.3086805 -75.75195312 327.66552734 C-74.63210346 331.14215152 -73.55189612 334.62708516 -72.5 338.125 C-72.02046875 339.67574219 -72.02046875 339.67574219 -71.53125 341.2578125 C-70.93535105 344.33370265 -70.93481388 346.05394471 -72 349 C-73.8984375 351.140625 -73.8984375 351.140625 -76.375 353.25 C-77.74398437 354.42369141 -77.74398437 354.42369141 -79.140625 355.62109375 C-80.08421875 356.40613281 -81.0278125 357.19117188 -82 358 C-82.84046875 358.71285156 -83.6809375 359.42570312 -84.546875 360.16015625 C-120.41057374 390.10091081 -161.91232766 413.78207376 -207.375 425.375 C-208.26388916 425.60171387 -209.15277832 425.82842773 -210.06860352 426.06201172 C-213.03571102 426.77386042 -216.00756656 427.40283205 -219 428 C-219.98273392 428.19645615 -219.98273392 428.19645615 -220.98532104 428.3968811 C-233.44138823 430.81274794 -245.63163458 431.50065998 -258.30541992 431.44604492 C-261.30001778 431.43753547 -264.2926979 431.46643906 -267.28710938 431.49804688 C-295.71261145 431.6012023 -321.53402459 424.25805954 -347 412 C-347.73089844 412.72703125 -347.73089844 412.72703125 -348.4765625 413.46875 C-361.29983978 425.59257579 -375.04300108 431.50412721 -392.65429688 431.49926758 C-399.21297579 431.31302585 -404.79539916 430.29682162 -410 426 C-410.99 424.515 -410.99 424.515 -412 423 C-411.58975586 422.62004883 -411.17951172 422.24009766 -410.75683594 421.84863281 C-408.75086966 419.98634456 -406.7498638 418.11884051 -404.75 416.25 C-403.99581787 415.54641357 -403.24163574 414.84282715 -402.46459961 414.11791992 C-398.13853201 410.05165497 -393.90743866 405.91820391 -389.76953125 401.66015625 C-388.90166992 400.77102539 -388.03380859 399.88189453 -387.13964844 398.96582031 C-385.45856792 397.23505268 -383.78807034 395.49392381 -382.12988281 393.74121094 C-374.56541282 385.97153954 -366.53551955 380.94987659 -355.54052734 380.70849609 C-347.02325629 380.63979554 -339.20400426 381.128425 -330.96850586 383.40112305 C-316.1742438 387.35783427 -300.57998179 387.37397823 -285.375 387.3125 C-284.4585672 387.31100952 -283.5421344 387.30951904 -282.59793091 387.3079834 C-268.22155631 387.2660611 -254.16475228 386.64451757 -240 384 C-239.2894043 383.8767334 -238.57880859 383.7534668 -237.84667969 383.62646484 C-197.05284394 376.33976104 -158.77534815 355.24690591 -128 328 C-127.42797852 327.49645996 -126.85595703 326.99291992 -126.26660156 326.47412109 C-113.64271638 316.1568599 -113.64271638 316.1568599 -106.70800781 302.04272461 C-106.69281217 295.57621912 -108.09374305 289.78617554 -109.75 283.5625 C-112.02039522 274.5702836 -113.90178937 265.60508832 -115.3125 256.4375 C-115.47137695 255.42953369 -115.63025391 254.42156738 -115.79394531 253.38305664 C-125.06771231 190.52016466 -112.53325269 127.47335447 -74.625 75.9375 C-73.09630887 73.94829407 -71.55348262 71.96990573 -70 70 C-69.27707764 69.08202637 -69.27707764 69.08202637 -68.53955078 68.14550781 C-55.15075664 51.21446181 -40.57280542 34.8958913 -24 21 C-22.97984942 20.12832848 -21.9603775 19.25586236 -20.94140625 18.3828125 C-2.94438352 3 -2.94438352 3 0 3 C0 2.01 0 1.02 0 0 Z " fill="#CCA300" transform="translate(421,81)"/>
<path d="M0 0 C3.01299259 2.81666237 5.17157145 5.62040734 7.28515625 9.15625 C7.89246582 10.1678418 8.49977539 11.17943359 9.12548828 12.22167969 C9.76470215 13.30352539 10.40391602 14.38537109 11.0625 15.5 C11.73007324 16.62567383 12.39764648 17.75134766 13.08544922 18.91113281 C15.06973315 22.26665537 17.03600279 25.63256205 19 29 C19.51578613 29.87849609 20.03157227 30.75699219 20.56298828 31.66210938 C43.29854595 70.62835091 62.12143667 116.7024387 62.24023438 162.3059082 C62.24987279 164.53310483 62.28093614 166.75934967 62.3125 168.98632812 C62.40667734 181.64313132 60.54961262 193.59513654 56.4375 205.625 C56.18774414 206.36024902 55.93798828 207.09549805 55.68066406 207.85302734 C45.23939597 237.39131301 26.85718464 262.93768035 6 286 C5.54592773 286.50515137 5.09185547 287.01030273 4.62402344 287.53076172 C1.45182877 291.05398755 -1.76545527 294.53413148 -5 298 C-5.61810547 298.66322266 -6.23621094 299.32644531 -6.87304688 300.00976562 C-27.5124098 322.12765019 -27.5124098 322.12765019 -36.68359375 329.96484375 C-39.16842924 332.14797914 -41.57839681 334.39873871 -43.98901367 336.66308594 C-50.4505488 342.72926405 -57.05705222 348.4845742 -64 354 C-65.25717338 355.01350111 -66.51363884 356.02788074 -67.76953125 357.04296875 C-69.09612763 358.11226027 -70.42294914 359.18127256 -71.75 360.25 C-72.67123657 360.99358765 -72.67123657 360.99358765 -73.61108398 361.75219727 C-77.64439152 364.98395494 -81.77083516 368.0287406 -86 371 C-86.66 370.67 -87.32 370.34 -88 370 C-87.52393311 369.03328369 -87.04786621 368.06656738 -86.55737305 367.07055664 C-44.90352906 282.3986956 -10.41204472 200.6416019 1 98 C1.18006592 96.31487305 1.18006592 96.31487305 1.36376953 94.59570312 C4.5118082 63.80028458 5.47382531 30.57451973 0 0 Z " fill="#38B449" transform="translate(450,84)"/>
<path d="M0 0 C0.81919922 -0.03738281 1.63839844 -0.07476562 2.48242188 -0.11328125 C6.86119263 -0.17710139 8.64068444 -0.03528581 12.25390625 2.67578125 C14.1875 5.375 14.1875 5.375 14.3125 8.9375 C12.9186574 13.1964635 11.90763982 13.90110702 8.1875 16.375 C4.54114028 18.09447397 0.80820063 19.5745422 -2.9375 21.0625 C-32.02619253 32.93606095 -59.28492955 47.62592046 -83.8125 67.375 C-84.33521484 67.79330078 -84.85792969 68.21160156 -85.39648438 68.64257812 C-98.51098622 79.20838219 -110.52955601 91.023047 -120.8125 104.375 C-121.76883067 105.57998342 -122.72591493 106.78436901 -123.68359375 107.98828125 C-140.40893173 129.22200731 -154.46985246 152.21660193 -167.44287109 175.87841797 C-168.90152314 178.53727284 -170.36682577 181.19240781 -171.83203125 183.84765625 C-176.80136549 192.87925507 -181.71190327 201.92099203 -186.22705078 211.18994141 C-191.97187073 222.95468537 -191.97187073 222.95468537 -194.8125 224.375 C-198.50383463 224.71679024 -200.95036716 224.83922538 -204.25 223.0625 C-211.21285261 211.08639351 -202.50326742 186.09427193 -199.3125 173.8125 C-183.6839452 116.05129489 -148.9669977 59.47985743 -96.45922852 28.53271484 C-89.40696953 24.48726162 -82.16375041 20.84228636 -74.8125 17.375 C-73.12060547 16.57255859 -73.12060547 16.57255859 -71.39453125 15.75390625 C-49.14320173 5.7108091 -24.37995662 0.43219907 0 0 Z " fill="#FFDF65" transform="translate(252.8125,125.625)"/>
<path d="M0 0 C16.58290841 52.04803607 1.15791075 125.02503236 -10 177 C-10.24266602 178.15266357 -10.24266602 178.15266357 -10.49023438 179.32861328 C-17.60054705 212.74258266 -29.00849761 245.88142313 -43 277 C-43.57850521 278.29131665 -44.15695356 279.58265877 -44.73535156 280.87402344 C-48.80618519 289.94871118 -52.93720631 298.99524553 -57.09442139 308.03063965 C-57.95775402 309.90812773 -58.81929789 311.78642437 -59.68017578 313.66503906 C-64.80231148 324.8318247 -69.98989073 335.96167572 -75.3671875 347.0078125 C-75.73701248 347.76777527 -76.10683746 348.52773804 -76.48786926 349.31072998 C-78.30893487 353.04922968 -80.13624508 356.7845193 -81.97241211 360.515625 C-82.63398677 361.86717039 -83.29552819 363.21873206 -83.95703125 364.5703125 C-84.26571136 365.19285919 -84.57439148 365.81540588 -84.89242554 366.45681763 C-86.49672967 369.58193956 -86.49672967 369.58193956 -87 373 C-87.99 373 -88.98 373 -90 373 C-89.39554846 369.25021618 -88.31582798 366.26337065 -86.62109375 362.87109375 C-86.12029297 361.85490967 -85.61949219 360.83872559 -85.10351562 359.79174805 C-84.55373047 358.68484619 -84.00394531 357.57794434 -83.4375 356.4375 C-75.50251257 340.20795711 -68.20384215 323.71197114 -60.95172119 307.168396 C-60.03715216 305.08464727 -59.11956229 303.0022615 -58.20068359 300.92041016 C-46.93997242 275.39822923 -36.22375079 249.68334852 -28 223 C-27.72317383 222.1018457 -27.44634766 221.20369141 -27.16113281 220.27832031 C-20.53595422 198.37287458 -17.07165392 175.64301407 -14 153 C-13.8453125 151.91759033 -13.690625 150.83518066 -13.53125 149.7199707 C-11.86500653 137.41632081 -11.09040056 125.07825148 -10.375 112.6875 C-10.30963043 111.56804993 -10.24426086 110.44859985 -10.1769104 109.29522705 C-8.44297606 79.13641679 -7.60995457 48.99249526 -12 19 C-13.1309651 9.52816732 -13.1309651 9.52816732 -10.54296875 6.03125 C-8.7630741 4.50241417 -6.99724946 3.22743168 -5 2 C-2 0 -2 0 0 0 Z " fill="#088D38" transform="translate(450,83)"/>
</svg>
