<?xml version="1.0" encoding="UTF-8"?>
<svg version="1.1" xmlns="http://www.w3.org/2000/svg" width="512" height="512">
<path d="M0 0 C0.73295288 -0.0080365 1.46590576 -0.016073 2.22106934 -0.02435303 C37.79443021 -0.32011721 69.00085647 12.85776501 95.375 36.375 C96.09300781 37.00792969 96.81101562 37.64085937 97.55078125 38.29296875 C109.54447674 49.54171421 117.82923434 63.95123556 125.375 78.375 C125.99503906 77.76914063 126.61507813 77.16328125 127.25390625 76.5390625 C155.94297643 49.39510964 194.97591619 38.07654636 233.375 33.375 C234.38046875 33.24351563 235.3859375 33.11203125 236.421875 32.9765625 C242.1778456 32.3311961 247.96270663 32.21893834 253.75 32.125 C254.52424316 32.10348877 255.29848633 32.08197754 256.09619141 32.05981445 C262.09074306 32.02518275 265.05788182 33.39968656 269.65234375 37.31640625 C272.36857096 42.13909538 271.99289545 46.87397013 271.9375 52.3125 C271.96134766 53.38435547 271.98519531 54.45621094 272.00976562 55.56054688 C271.99346819 64.33400118 271.99346819 64.33400118 269.08984375 68.00390625 C265.32545669 71.29165149 262.70149523 72.59778219 257.70703125 72.75390625 C256.81306641 72.78806641 255.91910156 72.82222656 254.99804688 72.85742188 C253.60682617 72.89706055 253.60682617 72.89706055 252.1875 72.9375 C250.36057939 72.99844057 248.5337511 73.06221855 246.70703125 73.12890625 C245.89983643 73.15283447 245.0926416 73.1767627 244.26098633 73.20141602 C240.28119573 73.44078926 236.33370401 73.90808324 232.375 74.375 C232.98807334 80.92470769 233.66720652 87.46531428 234.38916016 94.00390625 C234.62649094 96.22113458 234.84956149 98.43994384 235.05712891 100.66015625 C236.39299977 114.82422243 238.59666687 125.24339662 247.17590332 136.71777344 C248.93300392 139.1461963 250.36851761 141.71799042 251.80859375 144.34375 C252.30617188 145.25044434 252.80375 146.15713867 253.31640625 147.09130859 C280.56019306 197.78217955 308.7270905 263.64112587 292.04638672 322.14501953 C291.71405029 323.24885986 291.71405029 323.24885986 291.375 324.375 C291.1495752 325.13280762 290.92415039 325.89061523 290.69189453 326.67138672 C282.74291611 352.36390964 267.75634811 375.30519709 251.375 396.375 C250.95927734 396.91543945 250.54355469 397.45587891 250.11523438 398.01269531 C240.04596852 411.10274093 229.32311857 423.54719093 218.03466797 435.59765625 C216.20412605 437.55798946 214.38512569 439.52869578 212.56640625 441.5 C211.25284662 442.91689148 209.93904767 444.33356113 208.625 445.75 C207.72237427 446.73105713 207.72237427 446.73105713 206.80151367 447.73193359 C203.13329046 451.66844108 199.31453471 455.28746586 195.21191406 458.77001953 C193.34738609 460.39912731 191.60702557 462.10651073 189.875 463.875 C186.2122675 467.58700693 182.34002735 470.99054238 178.375 474.375 C177.40433594 475.21160156 176.43367188 476.04820312 175.43359375 476.91015625 C169.82116238 481.72571329 164.1373541 486.44297179 158.3125 491 C157.77665283 491.42579346 157.24080566 491.85158691 156.6887207 492.2902832 C153.79516704 494.52447632 152.01282586 495.46554354 148.375 496.375 C146.395 491.425 146.395 491.425 144.375 486.375 C139.16076566 488.04129908 134.14637456 489.84300267 129.15185547 492.0769043 C112.5615657 499.46113801 95.15679933 504.64155955 77.375 508.25 C76.43446777 508.44102295 75.49393555 508.6320459 74.52490234 508.82885742 C58.94929059 511.78396187 43.45223929 512.75652457 27.625 512.6875 C26.75103577 512.68567719 25.87707153 512.68385437 24.97662354 512.68197632 C11.56588473 512.63501288 -1.44709234 512.04208251 -14.625 509.375 C-15.49576172 509.20871094 -16.36652344 509.04242188 -17.26367188 508.87109375 C-57.07254349 501.15508848 -94.1514892 483.87874525 -125.625 458.375 C-126.17478516 457.92962891 -126.72457031 457.48425781 -127.29101562 457.02539062 C-141.4079215 445.48111581 -154.48325941 432.81024336 -165.33056641 418.11816406 C-166.65087785 416.34015129 -168.0002701 414.58746329 -169.35546875 412.8359375 C-193.02821306 381.89469573 -208.72219283 343.83953784 -214.625 305.375 C-214.80828857 304.18656494 -214.99157715 302.99812988 -215.18041992 301.77368164 C-216.98402621 289.02922442 -216.98031049 276.28733226 -216.9375 263.4375 C-216.93567719 262.30637787 -216.93385437 261.17525574 -216.93197632 260.00985718 C-216.88744733 243.61927269 -216.55589554 227.54496514 -213.625 211.375 C-213.45339355 210.39289551 -213.28178711 209.41079102 -213.10498047 208.39892578 C-204.54307586 160.58539416 -185.67183598 112.41464014 -153.625 75.375 C-152.61953125 74.20324219 -152.61953125 74.20324219 -151.59375 73.0078125 C-120.82230677 37.988073 -82.25383943 13.62092224 -36.625 3.375 C-35.48538818 3.10598877 -35.48538818 3.10598877 -34.32275391 2.83154297 C-22.99109589 0.23636907 -11.57295851 0.0705482 0 0 Z M197.5625 77.5 C196.45970703 77.72228271 195.35691406 77.94456543 194.22070312 78.17358398 C181.44033788 80.85223134 169.16141873 84.70005765 157.375 90.375 C159.71974623 92.71974623 161.86371318 93.23841083 164.98583984 94.17504883 C186.5311203 100.65671924 203.95969463 112.14037722 219.375 128.375 C220.695 127.715 222.015 127.055 223.375 126.375 C221.5544737 109.2792513 219.25278708 92.32514393 216.375 75.375 C209.89999568 75.06361365 203.8955114 76.21774762 197.5625 77.5 Z " fill="#844782" transform="translate(216.625,-0.375)"/>
<path d="M0 0 C0.73295288 -0.0080365 1.46590576 -0.016073 2.22106934 -0.02435303 C37.79443021 -0.32011721 69.00085647 12.85776501 95.375 36.375 C96.09300781 37.00792969 96.81101562 37.64085937 97.55078125 38.29296875 C109.54447674 49.54171421 117.82923434 63.95123556 125.375 78.375 C125.99503906 77.76914063 126.61507813 77.16328125 127.25390625 76.5390625 C155.94297643 49.39510964 194.97591619 38.07654636 233.375 33.375 C234.38046875 33.24351563 235.3859375 33.11203125 236.421875 32.9765625 C242.1778456 32.3311961 247.96270663 32.21893834 253.75 32.125 C254.52424316 32.10348877 255.29848633 32.08197754 256.09619141 32.05981445 C262.09074306 32.02518275 265.05788182 33.39968656 269.65234375 37.31640625 C272.36857096 42.13909538 271.99289545 46.87397013 271.9375 52.3125 C271.96134766 53.38435547 271.98519531 54.45621094 272.00976562 55.56054688 C271.99346819 64.33400118 271.99346819 64.33400118 269.08984375 68.00390625 C265.32545669 71.29165149 262.70149523 72.59778219 257.70703125 72.75390625 C256.81306641 72.78806641 255.91910156 72.82222656 254.99804688 72.85742188 C253.60682617 72.89706055 253.60682617 72.89706055 252.1875 72.9375 C250.36057939 72.99844057 248.5337511 73.06221855 246.70703125 73.12890625 C245.89983643 73.15283447 245.0926416 73.1767627 244.26098633 73.20141602 C240.28119573 73.44078926 236.33370401 73.90808324 232.375 74.375 C232.98807334 80.92470769 233.66720652 87.46531428 234.38916016 94.00390625 C234.62649094 96.22113458 234.84956149 98.43994384 235.05712891 100.66015625 C236.39299977 114.82422243 238.59666687 125.24339662 247.17590332 136.71777344 C248.93300392 139.1461963 250.36851761 141.71799042 251.80859375 144.34375 C252.30617188 145.25044434 252.80375 146.15713867 253.31640625 147.09130859 C280.56019306 197.78217955 308.7270905 263.64112587 292.04638672 322.14501953 C291.71405029 323.24885986 291.71405029 323.24885986 291.375 324.375 C291.1495752 325.13280762 290.92415039 325.89061523 290.69189453 326.67138672 C282.74291611 352.36390964 267.75634811 375.30519709 251.375 396.375 C250.95927734 396.91543945 250.54355469 397.45587891 250.11523438 398.01269531 C240.04596852 411.10274093 229.32311857 423.54719093 218.03466797 435.59765625 C216.20412605 437.55798946 214.38512569 439.52869578 212.56640625 441.5 C211.25284662 442.91689148 209.93904767 444.33356113 208.625 445.75 C207.72237427 446.73105713 207.72237427 446.73105713 206.80151367 447.73193359 C203.13329046 451.66844108 199.31453471 455.28746586 195.21191406 458.77001953 C193.34738609 460.39912731 191.60702557 462.10651073 189.875 463.875 C186.2122675 467.58700693 182.34002735 470.99054238 178.375 474.375 C177.40433594 475.21160156 176.43367188 476.04820312 175.43359375 476.91015625 C169.82116238 481.72571329 164.1373541 486.44297179 158.3125 491 C157.77665283 491.42579346 157.24080566 491.85158691 156.6887207 492.2902832 C153.79516704 494.52447632 152.01282586 495.46554354 148.375 496.375 C146.395 491.425 146.395 491.425 144.375 486.375 C139.16076566 488.04129908 134.14637456 489.84300267 129.15185547 492.0769043 C112.5615657 499.46113801 95.15679933 504.64155955 77.375 508.25 C76.43446777 508.44102295 75.49393555 508.6320459 74.52490234 508.82885742 C58.94929059 511.78396187 43.45223929 512.75652457 27.625 512.6875 C26.75103577 512.68567719 25.87707153 512.68385437 24.97662354 512.68197632 C11.56588473 512.63501288 -1.44709234 512.04208251 -14.625 509.375 C-15.49576172 509.20871094 -16.36652344 509.04242188 -17.26367188 508.87109375 C-57.07254349 501.15508848 -94.1514892 483.87874525 -125.625 458.375 C-126.17478516 457.92962891 -126.72457031 457.48425781 -127.29101562 457.02539062 C-141.4079215 445.48111581 -154.48325941 432.81024336 -165.33056641 418.11816406 C-166.65087785 416.34015129 -168.0002701 414.58746329 -169.35546875 412.8359375 C-193.02821306 381.89469573 -208.72219283 343.83953784 -214.625 305.375 C-214.80828857 304.18656494 -214.99157715 302.99812988 -215.18041992 301.77368164 C-216.98402621 289.02922442 -216.98031049 276.28733226 -216.9375 263.4375 C-216.93567719 262.30637787 -216.93385437 261.17525574 -216.93197632 260.00985718 C-216.88744733 243.61927269 -216.55589554 227.54496514 -213.625 211.375 C-213.45339355 210.39289551 -213.28178711 209.41079102 -213.10498047 208.39892578 C-204.54307586 160.58539416 -185.67183598 112.41464014 -153.625 75.375 C-152.61953125 74.20324219 -152.61953125 74.20324219 -151.59375 73.0078125 C-120.82230677 37.988073 -82.25383943 13.62092224 -36.625 3.375 C-35.48538818 3.10598877 -35.48538818 3.10598877 -34.32275391 2.83154297 C-22.99109589 0.23636907 -11.57295851 0.0705482 0 0 Z M-85.625 30.375 C-86.23230957 30.70693359 -86.83961914 31.03886719 -87.46533203 31.38085938 C-104.25767232 40.69842302 -119.40887661 52.41578869 -133.08105469 65.86181641 C-134.42521286 67.17919344 -135.79272339 68.47265999 -137.1640625 69.76171875 C-143.73232011 76.03985897 -149.17567292 83.1332851 -154.625 90.375 C-155.05458008 90.93848145 -155.48416016 91.50196289 -155.92675781 92.08251953 C-177.33925373 120.29459556 -191.94757897 154.90351195 -200.10302734 189.20458984 C-200.61344772 191.32696457 -201.15597228 193.43863743 -201.70703125 195.55078125 C-206.74560791 215.2399316 -208.15055009 234.85709708 -208 255.125 C-207.99601196 256.21796387 -207.99202393 257.31092773 -207.98791504 258.43701172 C-207.91894366 274.56806052 -207.52457514 290.46292383 -204.625 306.375 C-204.4081958 307.59074707 -204.4081958 307.59074707 -204.18701172 308.83105469 C-203.21569921 314.07377578 -202.01147733 319.2273463 -200.625 324.375 C-200.41504395 325.15472168 -200.20508789 325.93444336 -199.98876953 326.73779297 C-186.67152969 375.18082447 -161.40931624 418.92494764 -121.625 450.375 C-120.54197969 451.25920659 -119.45998452 452.14467001 -118.37890625 453.03125 C-110.51073294 459.42682495 -102.34016923 465.01432029 -93.62207031 470.18847656 C-92.32525719 470.95895478 -91.03264623 471.73656659 -89.74511719 472.52246094 C-77.65486037 479.89425687 -64.79987793 485.24665245 -51.625 490.375 C-50.93083984 490.64828125 -50.23667969 490.9215625 -49.52148438 491.203125 C9.45593163 514.0085705 74.82758333 506.03617992 131.80859375 481.953125 C135.05172519 480.51804822 138.22023766 478.99382704 141.375 477.375 C140.76710789 472.27399226 139.64894678 467.53387822 138.125 462.625 C136.06642827 455.8090556 134.17077463 448.96799055 132.3894043 442.07470703 C131.20642853 437.50732076 129.98636082 432.95377836 128.71484375 428.41015625 C121.93635743 404.06777516 116.86978481 379.40202771 113.375 354.375 C113.25640625 353.54339355 113.1378125 352.71178711 113.015625 351.85498047 C105.27735333 295.4876593 119.2493009 241.65784575 153.60742188 196.27856445 C156.467335 192.59188363 159.40859163 188.97620246 162.375 185.375 C162.86838867 184.76591797 163.36177734 184.15683594 163.87011719 183.52929688 C171.2071644 174.5090741 179.30979164 166.23864693 187.5 158 C188.00529236 157.48934998 188.51058472 156.97869995 189.03118896 156.45257568 C195.1070728 150.32785391 201.27633773 144.63051262 208.09326172 139.32568359 C210.24174081 137.48892478 211.78978496 135.70245186 213.375 133.375 C191.81727956 110.26201316 164.11143272 98.70747911 132.88818359 95.6965332 C125.07856105 94.9097064 125.07856105 94.9097064 121.25 92 C118.93866769 88.2236106 117.50522269 83.89699614 115.87890625 79.79296875 C111.29614819 69.37760953 104.79934674 59.95488709 97.375 51.375 C96.71242188 50.56804688 96.04984375 49.76109375 95.3671875 48.9296875 C75.99608851 26.12754514 48.32860807 14.08635625 19.375 9.375 C18.28445312 9.18035156 17.19390625 8.98570313 16.0703125 8.78515625 C-19.20333491 4.87000511 -54.73232573 13.43308413 -85.625 30.375 Z M197.5625 77.5 C196.45970703 77.72228271 195.35691406 77.94456543 194.22070312 78.17358398 C181.44033788 80.85223134 169.16141873 84.70005765 157.375 90.375 C159.71974623 92.71974623 161.86371318 93.23841083 164.98583984 94.17504883 C186.5311203 100.65671924 203.95969463 112.14037722 219.375 128.375 C220.695 127.715 222.015 127.055 223.375 126.375 C221.5544737 109.2792513 219.25278708 92.32514393 216.375 75.375 C209.89999568 75.06361365 203.8955114 76.21774762 197.5625 77.5 Z " fill="#020302" transform="translate(216.625,-0.375)"/>
<path d="M0 0 C5.45884863 1.0805912 10.66200368 3.11767438 15.8125 5.1875 C11.61002278 10.22272616 7.19315067 14.86193306 2.5 19.4375 C-3.51143404 25.38770445 -8.99931155 31.49859588 -14.1875 38.1875 C-15.27587447 39.53764406 -16.36584913 40.88649905 -17.45703125 42.234375 C-39.28748687 69.42512082 -55.05477419 100.01140502 -62.1875 134.1875 C-62.42339844 135.30511719 -62.65929687 136.42273438 -62.90234375 137.57421875 C-67.72806119 162.26639337 -65.78356356 188.48461724 -62.1875 213.1875 C-61.98664795 214.66500732 -61.98664795 214.66500732 -61.78173828 216.17236328 C-59.93461956 229.7290952 -57.23067847 243.04473327 -54.1875 256.375 C-54.0200528 257.11040009 -53.85260559 257.84580017 -53.68008423 258.60348511 C-51.72987418 267.11838092 -49.5716602 275.52847511 -47.12060547 283.91577148 C-45.68465477 288.9506159 -44.47450331 294.03547276 -43.25 299.125 C-41.23889126 307.36835003 -38.96544095 315.3841155 -36.0703125 323.359375 C-35.1875 326.1875 -35.1875 326.1875 -35.1875 330.1875 C-64.17691186 343.31845127 -92.5047588 352.60801907 -124.1875 356.1875 C-125.37762695 356.33106934 -125.37762695 356.33106934 -126.59179688 356.47753906 C-185.53759967 363.1142941 -247.70140154 343.19648995 -294.00048828 306.76074219 C-297.8195932 303.6703749 -301.51749303 300.45248368 -305.1875 297.1875 C-305.94256836 296.52500244 -305.94256836 296.52500244 -306.71289062 295.84912109 C-325.61154819 279.23698275 -340.65227491 259.97358964 -353.1875 238.1875 C-353.55182129 237.5672998 -353.91614258 236.94709961 -354.29150391 236.30810547 C-364.27045009 219.23010607 -370.74688783 200.13539577 -376.1875 181.1875 C-376.38182617 180.51734863 -376.57615234 179.84719727 -376.77636719 179.15673828 C-382.02334888 160.72820309 -384.27328268 141.25415375 -384.42578125 122.125 C-384.43562042 121.10358917 -384.44545959 120.08217834 -384.45559692 119.02981567 C-384.78007221 76.64739291 -384.78007221 76.64739291 -380.1875 56.1875 C-379.8174585 54.4864209 -379.8174585 54.4864209 -379.43994141 52.75097656 C-375.83373681 36.4887427 -371.0188691 20.78350009 -365.1875 5.1875 C-364.8575 5.1875 -364.5275 5.1875 -364.1875 5.1875 C-364.07269287 6.16581787 -363.95788574 7.14413574 -363.83959961 8.15209961 C-361.11109169 31.14291356 -357.48137701 53.64743079 -352.1875 76.1875 C-351.9601416 77.19103516 -351.7327832 78.19457031 -351.49853516 79.22851562 C-340.36882936 128.05892351 -319.8417814 178.10683976 -288.1875 217.1875 C-287.48496094 218.08210937 -286.78242188 218.97671875 -286.05859375 219.8984375 C-281.63609015 225.45303687 -276.94645078 230.72987129 -272.125 235.9375 C-271.55942383 236.55157715 -270.99384766 237.1656543 -270.41113281 237.79833984 C-250.96155865 258.56358756 -226.19117512 274.03757253 -200.1875 285.1875 C-199.10178711 285.65663818 -199.10178711 285.65663818 -197.99414062 286.13525391 C-187.71186169 290.48134791 -177.16306525 293.36102894 -166.3125 295.9375 C-165.13196045 296.21932129 -163.9514209 296.50114258 -162.73510742 296.79150391 C-158.89833338 297.66261153 -155.05331107 298.45834758 -151.1875 299.1875 C-150.43908844 299.32869263 -149.69067688 299.46988525 -148.91958618 299.61535645 C-134.6671629 302.19971028 -120.65135049 302.59635456 -106.19116211 302.46875 C-102.59803924 302.43726374 -99.00535747 302.427726 -95.41210938 302.421875 C-93.08593222 302.41271332 -90.75975945 302.40234023 -88.43359375 302.390625 C-87.38022324 302.38637512 -86.32685272 302.38212524 -85.24156189 302.37774658 C-78.18456979 302.31077881 -71.21168052 301.86482838 -64.1875 301.1875 C-64.39503906 300.38054687 -64.60257812 299.57359375 -64.81640625 298.7421875 C-65.72228179 295.17174919 -66.6106933 291.59762334 -67.48974609 288.02050781 C-67.97885416 286.03464005 -68.4716862 284.04968752 -68.96728516 282.06542969 C-81.21613413 232.76865616 -90.35247899 179.76940801 -81.1875 129.1875 C-80.98664795 128.03894531 -80.98664795 128.03894531 -80.78173828 126.8671875 C-74.06967233 90.0281152 -51.10001272 56.87393407 -28.1875 28.1875 C-27.76388184 27.65350586 -27.34026367 27.11951172 -26.90380859 26.56933594 C-22.22416539 20.68516357 -17.34761609 15.01135157 -12.23828125 9.49609375 C-10.18536312 7.26714352 -10.18536312 7.26714352 -8.60546875 4.97265625 C-6.04101546 1.40502839 -4.56156427 -0.3229426 0 0 Z " fill="#693968" transform="translate(393.1875,146.8125)"/>
<path d="M0 0 C7.3679092 7.3679092 4.12447602 31.38762116 4.13787842 41.17669678 C4.13709946 43.71073517 4.13457133 46.24477357 4.13037109 48.77880859 C4.1250404 52.5960696 4.13032798 56.41321145 4.13671875 60.23046875 C4.14330247 80.03983226 3.64065514 99.72286256 1.625 119.4375 C1.49416016 120.74662354 1.36332031 122.05574707 1.22851562 123.40454102 C-0.4134421 139.62387053 -2.2390296 155.84063528 -5.54785156 171.81640625 C-5.87278601 173.38563612 -6.19173901 174.95610897 -6.50683594 176.52734375 C-9.54090189 191.60573212 -13.36128216 206.33588422 -18 221 C-18.33563965 222.06299316 -18.6712793 223.12598633 -19.01708984 224.22119141 C-26.32598707 247.02562595 -35.64319025 268.97903641 -45 291 C-45.69623381 292.64236979 -46.39236207 294.28478434 -47.08837891 295.92724609 C-51.3479381 305.97078596 -55.65044244 315.99511431 -60 326 C-60.49064941 327.13002441 -60.98129883 328.26004883 -61.48681641 329.42431641 C-62.75285807 332.32871208 -64.0291863 335.22820224 -65.3125 338.125 C-65.66763672 338.93686768 -66.02277344 339.74873535 -66.38867188 340.58520508 C-68.76497933 345.88248967 -68.76497933 345.88248967 -71 347 C-76.01514749 335.5830283 -78.89394249 323.60601307 -82.04541016 311.57958984 C-82.99223454 308.02911948 -83.97818744 304.49221712 -84.98046875 300.95703125 C-91.07153275 279.45898466 -96.37534798 257.81714363 -100.3125 235.8125 C-100.45977539 235.00248535 -100.60705078 234.1924707 -100.75878906 233.35791016 C-103.50799804 217.11697423 -104.35164144 200.84860134 -104.31567383 184.39941406 C-104.31249484 181.37008214 -104.33616611 178.34171379 -104.36132812 175.3125 C-104.48721023 136.76223003 -90.50402731 101.12680159 -68 70 C-67.26265625 68.97003906 -66.5253125 67.94007813 -65.765625 66.87890625 C-51.16338737 46.96911771 -33.95553785 27.84807263 -15 12 C-13.89898777 11.05947313 -12.79880486 10.11797502 -11.69921875 9.17578125 C-10.50809527 8.15852298 -9.31668775 7.14159719 -8.125 6.125 C-7.55257568 5.63555908 -6.98015137 5.14611816 -6.39038086 4.6418457 C-2.23050822 1.11525411 -2.23050822 1.11525411 0 0 Z " fill="#339945" transform="translate(440,136)"/>
<path d="M0 0 C0.42966064 0.49056885 0.85932129 0.9811377 1.30200195 1.48657227 C3.60330697 3.53772824 5.3777854 3.6318502 8.41796875 4.02734375 C9.49965332 4.17727783 10.58133789 4.32721191 11.69580078 4.48168945 C12.84806152 4.63210693 14.00032227 4.78252441 15.1875 4.9375 C43.40087179 8.98755248 72.43058293 18.00975107 90.859375 41.35546875 C91.23578125 41.89816406 91.6121875 42.44085938 92 43 C89.06687477 45.70336376 86.12855014 48.4001387 83.17578125 51.08203125 C81.29429483 52.79535878 79.47165748 54.52657253 77.66796875 56.32421875 C72.91252591 60.94834759 72.91252591 60.94834759 68.6875 61.1875 C65.80833014 60.26030971 63.01393091 59.25602876 60.1875 58.1875 C52.33736982 55.22620261 44.21639106 53.59609571 36 52 C34.84242188 51.77054688 33.68484375 51.54109375 32.4921875 51.3046875 C13.63563669 48.19838795 -6.69860453 48.2736798 -25 54 C-26.05445313 54.31582031 -27.10890625 54.63164062 -28.1953125 54.95703125 C-37.65434504 58.32444683 -45.28015734 64.75971252 -53 71 C-53.57927246 71.46744629 -54.15854492 71.93489258 -54.75537109 72.41650391 C-65.48967034 81.15211131 -76.43577948 90.34793537 -85.3125 101 C-87.38040027 103.45084476 -89.56595124 105.77714759 -91.75 108.125 C-97.0125685 113.90428595 -101.84445666 119.95800746 -106.59228516 126.1640625 C-107.96200395 127.95044567 -109.34554386 129.72539478 -110.73046875 131.5 C-128.2002656 154.11066441 -143.3963872 178.74661115 -157.74609375 203.4140625 C-158.33801514 204.42944092 -158.92993652 205.44481934 -159.53979492 206.4909668 C-160.64873628 208.4015754 -161.74967613 210.31685945 -162.84106445 212.23754883 C-163.57715942 213.51021606 -163.57715942 213.51021606 -164.328125 214.80859375 C-164.96089355 215.91932251 -164.96089355 215.91932251 -165.60644531 217.05249023 C-167.64384179 219.89977679 -169.73127492 221.72764399 -173.18359375 222.46875 C-177.32707248 222.52619858 -179.4801307 222.3288969 -183.0625 220.0625 C-185.68564064 215.91624544 -185.50392345 212.70098455 -185 208 C-184.91621094 207.07058594 -184.83242187 206.14117187 -184.74609375 205.18359375 C-179.49563131 160.14015278 -159.34641693 117.03439967 -131 82 C-129.7934375 80.48599609 -129.7934375 80.48599609 -128.5625 78.94140625 C-116.70899606 64.33164709 -103.20073958 51.08211583 -88 40 C-86.87326729 39.15552217 -85.74696797 38.31046579 -84.62109375 37.46484375 C-62.81279382 21.27936161 -37.92448856 8.99276317 -12 1 C-11.33742188 0.79318604 -10.67484375 0.58637207 -9.9921875 0.37329102 C-6.24706398 -0.75463486 -3.75304179 -1.35526509 0 0 Z " fill="#B590B4" transform="translate(338,91)"/>
<path d="M0 0 C2.92986137 3.47390446 5.18381358 6.92746778 7.28515625 10.953125 C7.89278809 12.11682617 8.50041992 13.28052734 9.12646484 14.47949219 C9.77276897 15.73583521 10.41809046 16.99268414 11.0625 18.25 C11.39292297 18.89215454 11.72334595 19.53430908 12.06378174 20.19592285 C36.65093947 68.09013562 61.00202438 127.69862998 44.5234375 182.046875 C41.25517787 192.15688342 37.09070067 201.73305746 32.04150391 211.07324219 C30.99372643 213.01160596 29.9717048 214.96226426 28.94921875 216.9140625 C23.23088043 227.62684859 16.29284947 237.31128815 9 247 C8.54447754 247.61004883 8.08895508 248.22009766 7.61962891 248.84863281 C-0.61648343 259.86134881 -9.46996893 270.33026121 -18.734375 280.48828125 C-19.95041334 281.83640651 -21.16079196 283.19037508 -22.33227539 284.57739258 C-27.89349511 291.11545415 -33.97629321 297.12724486 -40.05151367 303.18188477 C-41.93328274 305.05829475 -43.80964738 306.93998969 -45.68554688 308.82226562 C-51.62008957 314.7604959 -57.56484372 320.59914685 -64 326 C-65.18587814 327.02881674 -66.37078946 328.05874905 -67.5546875 329.08984375 C-68.6609127 330.03969833 -69.7676756 330.98892708 -70.875 331.9375 C-71.4421875 332.43056641 -72.009375 332.92363281 -72.59375 333.43164062 C-76.77085862 337 -76.77085862 337 -79 337 C-77.1589285 331.17457189 -75.06042533 325.59118057 -72.515625 320.0390625 C-72.18323318 319.30350128 -71.85084137 318.56794006 -71.50837708 317.81008911 C-70.79577871 316.23326386 -70.08144518 314.65722177 -69.36550903 313.08190918 C-67.44371413 308.84915499 -65.54013525 304.60823111 -63.63671875 300.3671875 C-63.24806137 299.50146118 -62.85940399 298.63573486 -62.45896912 297.74377441 C-48.84449389 267.36597486 -36.08289037 236.75517357 -26 205 C-25.76474609 204.26620117 -25.52949219 203.53240234 -25.28710938 202.77636719 C-17.72012467 178.9666555 -12.79489728 154.42438168 -8.64794922 129.82177734 C-8.24814249 127.46361062 -7.84005569 125.10680975 -7.41845703 122.75244141 C-0.18628947 82.35047731 0.74458294 40.9291514 0 0 Z " fill="#38B349" transform="translate(455,140)"/>
<path d="M0 0 C1.40572266 0.29003906 1.40572266 0.29003906 2.83984375 0.5859375 C21.91156828 5.11143146 39.17327477 14.32944886 54 27 C54.80953125 27.66386719 55.6190625 28.32773437 56.453125 29.01171875 C70.98917581 41.37650411 82.86857956 58.91385025 89 77 C89 77.66 89 78.32 89 79 C88.24307861 79.22961426 87.48615723 79.45922852 86.70629883 79.69580078 C54.11666152 89.72074444 24.86706742 103.79511749 -2 125 C-2.55751953 125.43892578 -3.11503906 125.87785156 -3.68945312 126.33007812 C-17.89280663 137.63408364 -30.93585318 150.60591835 -41.69970703 165.23339844 C-43.08625474 167.11718725 -44.49339352 168.98448161 -45.90234375 170.8515625 C-50.59202772 177.11281028 -55.02878121 183.29918939 -58.68359375 190.2421875 C-60 192 -60 192 -61.91015625 192.74609375 C-66.1177363 193.25729507 -70.19171133 193.48872667 -74.3125 192.375 C-77.72501848 189.59442939 -78.78906037 186.59809694 -79.359375 182.27734375 C-80.38949052 159.18558759 -66.00128089 139.07498344 -51.3125 122.6875 C-49.8751085 121.12490018 -48.43761752 119.56239187 -47 118 C-45.89140179 116.73303062 -44.7870447 115.46233444 -43.6875 114.1875 C-41.11306352 111.22660077 -38.46824451 108.33953857 -35.79296875 105.46948242 C-14.63877657 84.02109392 -14.63877657 84.02109392 -5.5625 56.375 C-6.06504432 44.96238053 -11.36380032 36.2263414 -19.5 28.4375 C-35.12509837 15.03121231 -57.65201114 6.46401428 -78 4 C-78 3.67 -78 3.34 -78 3 C-52.13028371 -3.16801106 -26.21967457 -5.85089714 0 0 Z " fill="#693A68" transform="translate(247,11)"/>
<path d="M0 0 C0.939646 -0.00555908 1.87929199 -0.01111816 2.84741211 -0.0168457 C9.36690896 0.05440896 9.36690896 0.05440896 11.625 2.3125 C12.06860072 5.27102109 11.94912652 8.26198451 11.9375 11.25 C11.95361328 12.07435547 11.96972656 12.89871094 11.98632812 13.74804688 C11.98697266 14.54146484 11.98761719 15.33488281 11.98828125 16.15234375 C11.99126221 16.87800537 11.99424316 17.60366699 11.99731445 18.35131836 C11.50072492 20.96712407 10.81301091 21.80003527 8.625 23.3125 C6.06665039 23.69726562 6.06665039 23.69726562 2.97265625 23.71875 C1.2407605 23.74811646 1.2407605 23.74811646 -0.52612305 23.77807617 C-1.77562744 23.78943604 -3.02513184 23.8007959 -4.3125 23.8125 C-6.96405378 23.87401829 -9.61461524 23.9406444 -12.265625 24.01953125 C-12.9424382 24.0395369 -13.6192514 24.05954254 -14.3165741 24.08015442 C-45.93268886 25.11133225 -80.54653687 30.42685792 -107.375 48.3125 C-112.718158 48.92344248 -118.10348197 48.20977967 -123.375 47.3125 C-100.11773163 17.76948343 -57.16648543 5.47997667 -21.43603516 1.13500977 C-14.29125416 0.36754711 -7.18459661 0.0361154 0 0 Z " fill="#514540" transform="translate(468.375,40.6875)"/>
<path d="M0 0 C0.66 0.66 1.32 1.32 2 2 C1.48614746 3.13840332 0.97229492 4.27680664 0.44287109 5.44970703 C-1.49302191 9.73947579 -3.42717197 14.03002862 -5.36083984 18.32080078 C-6.19240786 20.16541072 -7.02442651 22.00981759 -7.85693359 23.85400391 C-13.75876886 36.92391175 -13.75876886 36.92391175 -19.5234375 50.0546875 C-19.98411621 51.11929199 -20.44479492 52.18389648 -20.91943359 53.28076172 C-21.81224155 55.5275071 -22.49987616 57.64085856 -23 60 C-23.99 59.67 -24.98 59.34 -26 59 C-23.51274204 50.95350233 -20.20036264 43.32211151 -16.8125 35.625 C-15.64397649 32.9578415 -14.47791578 30.28961144 -13.3125 27.62109375 C-13.02643387 26.96689957 -12.74036774 26.31270538 -12.44563293 25.63868713 C-10.73779427 21.72371599 -9.06813487 17.79561326 -7.4375 13.84765625 C-6.88872192 12.51903564 -6.88872192 12.51903564 -6.32885742 11.16357422 C-5.66718697 9.55159687 -5.0108164 7.93743055 -4.3605957 6.32080078 C-2.21762229 1.10881114 -2.21762229 1.10881114 0 0 Z " fill="#051007" transform="translate(399,419)"/>
</svg>
