<?xml version="1.0" encoding="UTF-8"?>
<svg version="1.1" xmlns="http://www.w3.org/2000/svg" width="512" height="512">
<path d="M0 0 C1.0094165 -0.0112793 2.01883301 -0.02255859 3.05883789 -0.03417969 C4.16026123 -0.02608276 5.26168457 -0.01798584 6.39648438 -0.00964355 C7.56107178 -0.01665283 8.72565918 -0.02366211 9.92553711 -0.03088379 C13.78067771 -0.04850975 17.63508612 -0.03682384 21.49023438 -0.02331543 C24.1653739 -0.026009 26.84049107 -0.02988396 29.515625 -0.03491211 C35.12442987 -0.0421874 40.733024 -0.03260414 46.34179688 -0.0135498 C52.82441344 0.008219 59.30652679 0.00116752 65.78913116 -0.02085543 C71.35700027 -0.03901302 76.92471797 -0.04156609 82.49260712 -0.03110075 C85.81719107 -0.02486765 89.14148689 -0.02559741 92.46606445 -0.0372467 C96.17238595 -0.04738291 99.87773545 -0.03195028 103.58398438 -0.00964355 C104.68540771 -0.01774048 105.78683105 -0.0258374 106.92163086 -0.03417969 C108.43575562 -0.01726074 108.43575562 -0.01726074 109.98046875 0 C110.85650757 0.0015081 111.73254639 0.0030162 112.63513184 0.00457001 C115.79437766 0.67980702 117.001931 2.01251333 118.99023438 4.50793457 C119.52929688 7.56652832 119.52929688 7.56652832 119.61523438 10.94543457 C119.74522499 15.26012311 119.99751466 18.63281871 121.99023438 22.50793457 C124.42556978 24.49152396 124.42556978 24.49152396 127.99023438 24.50793457 C130.7092634 23.36632134 133.1448283 21.9300919 135.68164062 20.42590332 C156.31232491 8.46643935 180.62837448 0.50718994 204.58789062 0.26965332 C205.40631439 0.25976883 206.22473816 0.24988434 207.06796265 0.23970032 C262.91337031 -0.29362402 313.32431086 14.86363657 365.15039062 34.36340332 C372.24175552 37.00527345 378.34905303 39.14469968 385.99023438 38.50793457 C389.37784505 36.47536817 389.90707057 33.15924483 390.99023438 29.50793457 C391.27011489 27.47484027 391.47667595 25.43052025 391.61523438 23.38293457 C391.69386719 22.25758301 391.7725 21.13223145 391.85351562 19.97277832 C392.02385239 15.65595793 391.88633256 11.37826861 391.63476562 7.06652832 C391.99023438 4.50793457 391.99023438 4.50793457 393.39709473 2.38037109 C397.35785763 -0.47958947 401.06484636 -0.05063323 405.8359375 -0.00964355 C406.8347142 -0.01665283 407.83349091 -0.02366211 408.86253357 -0.03088379 C412.16579953 -0.04849673 415.46820961 -0.03682887 418.77148438 -0.02331543 C421.06547205 -0.02600938 423.35945862 -0.02989099 425.65344238 -0.03491211 C430.46194324 -0.04081165 435.27014695 -0.03222921 440.07861328 -0.0135498 C446.24610292 0.00923962 452.41289633 -0.00388097 458.58036041 -0.02783966 C463.31753802 -0.04228509 468.05455023 -0.03769733 472.79173279 -0.02732849 C475.06595441 -0.02465775 477.34019098 -0.02794311 479.61439514 -0.0372467 C482.79151256 -0.04739127 485.96749825 -0.03193953 489.14453125 -0.00964355 C490.08699203 -0.01774048 491.02945282 -0.0258374 492.00047302 -0.03417969 C498.33641709 0.0483076 498.33641709 0.0483076 501.57458496 2.32470703 C503.6486427 5.52333794 503.54055116 8.51117238 503.42773438 12.19543457 C503.41379639 12.97580078 503.3998584 13.75616699 503.38549805 14.56018066 C502.46111068 45.56780643 497.89894824 87.06965904 475.20117188 110.42590332 C472.58006348 112.89419091 469.87192991 115.23668375 467.13476562 117.57434082 C438.59686659 143.30523339 417.95911828 182.95374287 399.36621094 216.06018066 C398.09940474 218.31372909 396.82337118 220.56176015 395.54492188 222.80871582 C376.31112854 256.79317821 359.92825807 292.04474744 345.99023438 328.50793457 C345.5807959 329.57382812 345.17135742 330.63972168 344.74951172 331.73791504 C324.92442117 383.76346168 310.41066955 441.7535482 317.55273438 497.64465332 C318.55814729 506.52280841 318.55814729 506.52280841 316.47126007 510.14281273 C313.13472848 513.32347456 310.36045991 513.20712698 305.98132324 513.14285278 C305.16810089 513.15065274 304.35487853 513.15845269 303.51701307 513.16648901 C300.78822685 513.18645513 298.06082815 513.17062696 295.33203125 513.15490723 C293.37735682 513.16168131 291.42268876 513.17058326 289.46803284 513.18145752 C284.15602838 513.20428224 278.8445086 513.19540132 273.5324955 513.17956209 C267.97831523 513.16691959 262.42417698 513.17863861 256.86999512 513.18649292 C247.54199762 513.19559428 238.21419794 513.18358873 228.88623047 513.15979004 C218.09563008 513.13257794 207.30550202 513.14139175 196.51491308 513.16892207 C187.2570559 513.1915982 177.99934107 513.19482051 168.74146509 513.18172872 C163.20919202 513.17392601 157.67714108 513.17291522 152.1448822 513.18941116 C146.94415572 513.20383482 141.74403928 513.19387251 136.54337883 513.16493988 C134.63257295 513.15831783 132.7217159 513.16024578 130.81093025 513.1712532 C128.20630455 513.1848764 125.60364517 513.16783362 122.99914551 513.14285278 C122.23922664 513.15400639 121.47930778 513.16516 120.69636106 513.1766516 C116.93240441 513.10641012 115.30666869 512.80281025 112.51140594 510.19798851 C110.40703472 506.47659888 110.60872777 503.32436226 110.92773438 499.19543457 C110.98421143 498.31009033 111.04068848 497.42474609 111.09887695 496.51257324 C115.87460516 431.64447858 127.90928391 360.04565883 156.99023438 301.50793457 C157.34408203 300.78396484 157.69792969 300.05999512 158.0625 299.31408691 C165.61574822 283.97629813 174.92243945 269.54987128 185.99023438 256.50793457 C186.74175781 255.57336426 187.49328125 254.63879395 188.26757812 253.67590332 C195.18749437 245.19508389 202.83785999 237.44463448 210.55273438 229.69543457 C211.08317352 229.15981903 211.61361267 228.62420349 212.16012573 228.07235718 C219.10159903 221.07758374 226.25374667 214.63211479 233.99023438 208.50793457 C235.30715358 207.42316608 236.6212786 206.33498986 237.93164062 205.24230957 C262.47942896 184.94804893 289.31463549 168.15808062 316.99023438 152.50793457 C315.77851563 152.83406738 314.56679688 153.1602002 313.31835938 153.49621582 C311.62579242 153.93816386 309.93307551 154.37953789 308.24023438 154.82043457 C307.45390625 155.03377441 306.66757812 155.24711426 305.85742188 155.46691895 C289.46260749 159.6917365 273.05533948 161.07062962 256.17773438 160.94543457 C255.26036499 160.94139618 254.34299561 160.93735779 253.39782715 160.93319702 C229.16661633 160.78403412 207.89936044 155.71608831 184.94677734 148.38415527 C174.53801356 145.29934493 163.72179461 144.64580491 153.80273438 149.38293457 C142.76926149 155.60887604 133.17741203 163.83509698 123.99023438 172.50793457 C123.425625 173.00422363 122.86101562 173.5005127 122.27929688 174.01184082 C119.55663723 177.17177611 119.86240125 181.13737772 119.84838867 185.13098145 C119.84135422 186.25895142 119.83431976 187.38692139 119.82707214 188.54907227 C119.82082573 190.36949036 119.82082573 190.36949036 119.81445312 192.22668457 C119.79126475 194.79309911 119.76714782 197.3595054 119.7421875 199.92590332 C119.70575307 203.97489504 119.67599705 208.02373173 119.66430664 212.07287598 C119.65229334 215.97859808 119.60870788 219.883691 119.56445312 223.78918457 C119.56636154 225.00279663 119.56826996 226.21640869 119.57023621 227.46679688 C119.55374527 228.59476685 119.53725433 229.72273682 119.52026367 230.8848877 C119.51439743 231.87653931 119.50853119 232.86819092 119.50248718 233.88989258 C118.83749043 237.28858438 117.64636293 238.33267957 114.99023438 240.50793457 C112.63513184 241.01129913 112.63513184 241.01129913 109.98046875 241.01586914 C108.97105225 241.02714844 107.96163574 241.03842773 106.92163086 241.05004883 C105.26949585 241.03790344 105.26949585 241.03790344 103.58398438 241.0255127 C102.41939697 241.03252197 101.25480957 241.03953125 100.05493164 241.04675293 C96.19979104 241.06437889 92.34538263 241.05269298 88.49023438 241.03918457 C85.81509485 241.04187814 83.13997768 241.0457531 80.46484375 241.05078125 C74.85603888 241.05805654 69.24744475 241.04847328 63.63867188 241.02941895 C57.15605531 241.00765014 50.67394196 241.01470162 44.19133759 241.03672457 C38.62346848 241.05488216 33.05575078 241.05743523 27.48786163 241.04696989 C24.16327768 241.04073679 20.83898186 241.04146655 17.5144043 241.05311584 C13.8080828 241.06325205 10.1027333 241.04781942 6.39648438 241.0255127 C5.29506104 241.03360962 4.1936377 241.04170654 3.05883789 241.05004883 C2.04942139 241.03876953 1.04000488 241.02749023 0 241.01586914 C-0.87603882 241.01436104 -1.75207764 241.01285294 -2.65466309 241.01129913 C-6.02488894 240.2909686 -7.07455699 239.37601917 -9.00976562 236.50793457 C-9.59613726 233.42095812 -9.54918352 230.38054539 -9.5177002 227.24621582 C-9.52394016 226.29823624 -9.53018012 225.35025665 -9.53660917 224.37355042 C-9.55259645 221.18892737 -9.53991226 218.00506364 -9.52734375 214.82043457 C-9.5327623 212.54064486 -9.53988346 210.26085865 -9.54858398 207.9810791 C-9.56685181 201.78281098 -9.55973539 195.58480854 -9.54706764 189.38653564 C-9.53695795 182.90746328 -9.54632767 176.42841405 -9.5526123 169.94934082 C-9.56036141 158.37029727 -9.54791152 146.79137525 -9.52757496 135.21235085 C-9.50970367 124.7118604 -9.5128077 114.21154682 -9.53125 103.71105957 C-9.55265188 91.51975478 -9.56062641 79.32857597 -9.54880095 67.13725281 C-9.54255685 60.68280794 -9.54175561 54.22848495 -9.5549469 47.77404785 C-9.56648037 41.70668375 -9.55852516 35.63965449 -9.53536987 29.57232666 C-9.53006943 27.34222978 -9.53161924 25.11210485 -9.54042053 22.88201904 C-9.55130661 19.84418012 -9.53769595 16.8074228 -9.5177002 13.76965332 C-9.52662308 12.88133316 -9.53554597 11.993013 -9.54473925 11.07777405 C-9.49605974 7.28064219 -9.45107778 5.16198322 -7.29113007 1.96082306 C-4.61528681 0.25671047 -3.15681937 0.00543447 0 0 Z " fill="#AD002B" transform="translate(9.009765625,-0.5079345703125)"/>
<path d="M0 0 C36.96 0 73.92 0 112 0 C112.495 6.435 112.495 6.435 113 13 C114.88965585 18.38551916 117.89509176 21.44754588 123 24 C130.44144028 24.91169388 135.16882946 23.46423712 141.375 19.5 C186.91337221 -7.48303421 241.27719733 -2.90904281 290.82958984 9.63647461 C313.85549939 15.88185193 337.206673 23.77848134 359.125 33.1875 C363.53779932 34.98530713 368.06544956 36.13173016 372.6875 37.25 C373.40115723 37.4255542 374.11481445 37.6011084 374.85009766 37.78198242 C380.46799939 39.07636057 385.6528105 39.87444315 391.1875 37.8125 C396.28777932 34.52565333 398.48989881 30.80808149 400 25 C401.18227652 16.72406434 401.536273 8.34708609 402 0 C420.48 0 438.96 0 458 0 C450.99940118 17.50149705 450.99940118 17.50149705 447.375 23.4375 C446.95532959 24.13649414 446.53565918 24.83548828 446.10327148 25.55566406 C432.86733406 47.13826165 415.22432362 65.97984952 397.35571289 83.7746582 C395.79910611 85.32584727 394.24799829 86.88239392 392.69726562 88.43945312 C387.30272986 93.83752131 381.80449964 99.04125722 376 104 C374.4551874 105.4132355 372.91304675 106.82940409 371.375 108.25 C365.76063443 113.31494754 359.83552418 117.93016428 353.85839844 122.55322266 C351.93928022 124.04727081 350.03453853 125.55810719 348.1328125 127.07421875 C347.50342773 127.57453613 346.87404297 128.07485352 346.22558594 128.59033203 C345.02114776 129.54848008 343.81857049 130.50897359 342.61816406 131.47216797 C339.86361481 133.65454361 337.23695324 135.6025836 334 137 C331 132.25 331 132.25 331 130 C330.2972998 130.25168945 329.59459961 130.50337891 328.87060547 130.76269531 C308.95671583 137.82692994 289.2659452 143.55849249 268 144 C266.51886719 144.03867187 266.51886719 144.03867187 265.0078125 144.078125 C239.2424228 144.67316864 216.8030605 141.28804889 192.5 132.75 C179.72748799 128.39573454 165.61218719 126.52169058 153.12890625 132.33203125 C143.130501 137.66201757 134.34956461 144.02367408 125.85546875 151.4921875 C123.57012012 153.49929259 121.24768163 155.41236502 118.875 157.3125 C114.08093811 161.79390568 112.84127764 165.53983109 112.56762695 172.00537109 C112.52658053 174.42785654 112.50066449 176.85063598 112.48828125 179.2734375 C112.47164429 180.4075708 112.45500732 181.5417041 112.43786621 182.71020508 C112.38019512 186.93161629 112.34784634 191.15334284 112.3125 195.375 C112.209375 204.82125 112.10625 214.2675 112 224 C75.04 224 38.08 224 0 224 C0 150.08 0 76.16 0 0 Z " fill="#D90036" transform="translate(8,8)"/>
<path d="M0 0 C1.0094165 -0.0112793 2.01883301 -0.02255859 3.05883789 -0.03417969 C4.16026123 -0.02608276 5.26168457 -0.01798584 6.39648438 -0.00964355 C7.56107178 -0.01665283 8.72565918 -0.02366211 9.92553711 -0.03088379 C13.78067771 -0.04850975 17.63508612 -0.03682384 21.49023438 -0.02331543 C24.1653739 -0.026009 26.84049107 -0.02988396 29.515625 -0.03491211 C35.12442987 -0.0421874 40.733024 -0.03260414 46.34179688 -0.0135498 C52.82441344 0.008219 59.30652679 0.00116752 65.78913116 -0.02085543 C71.35700027 -0.03901302 76.92471797 -0.04156609 82.49260712 -0.03110075 C85.81719107 -0.02486765 89.14148689 -0.02559741 92.46606445 -0.0372467 C96.17238595 -0.04738291 99.87773545 -0.03195028 103.58398438 -0.00964355 C104.68540771 -0.01774048 105.78683105 -0.0258374 106.92163086 -0.03417969 C108.43575562 -0.01726074 108.43575562 -0.01726074 109.98046875 0 C110.85650757 0.0015081 111.73254639 0.0030162 112.63513184 0.00457001 C115.79437766 0.67980702 117.001931 2.01251333 118.99023438 4.50793457 C119.52929688 7.56652832 119.52929688 7.56652832 119.61523438 10.94543457 C119.74522499 15.26012311 119.99751466 18.63281871 121.99023438 22.50793457 C124.42556978 24.49152396 124.42556978 24.49152396 127.99023438 24.50793457 C130.7092634 23.36632134 133.1448283 21.9300919 135.68164062 20.42590332 C156.31232491 8.46643935 180.62837448 0.50718994 204.58789062 0.26965332 C205.40631439 0.25976883 206.22473816 0.24988434 207.06796265 0.23970032 C262.91337031 -0.29362402 313.32431086 14.86363657 365.15039062 34.36340332 C372.24175552 37.00527345 378.34905303 39.14469968 385.99023438 38.50793457 C389.37784505 36.47536817 389.90707057 33.15924483 390.99023438 29.50793457 C391.27011489 27.47484027 391.47667595 25.43052025 391.61523438 23.38293457 C391.69386719 22.25758301 391.7725 21.13223145 391.85351562 19.97277832 C392.02385239 15.65595793 391.88633256 11.37826861 391.63476562 7.06652832 C391.99023438 4.50793457 391.99023438 4.50793457 393.39709473 2.38037109 C397.35785763 -0.47958947 401.06484636 -0.05063323 405.8359375 -0.00964355 C406.8347142 -0.01665283 407.83349091 -0.02366211 408.86253357 -0.03088379 C412.16579953 -0.04849673 415.46820961 -0.03682887 418.77148438 -0.02331543 C421.06547205 -0.02600938 423.35945862 -0.02989099 425.65344238 -0.03491211 C430.46194324 -0.04081165 435.27014695 -0.03222921 440.07861328 -0.0135498 C446.24610292 0.00923962 452.41289633 -0.00388097 458.58036041 -0.02783966 C463.31753802 -0.04228509 468.05455023 -0.03769733 472.79173279 -0.02732849 C475.06595441 -0.02465775 477.34019098 -0.02794311 479.61439514 -0.0372467 C482.79151256 -0.04739127 485.96749825 -0.03193953 489.14453125 -0.00964355 C490.08699203 -0.01774048 491.02945282 -0.0258374 492.00047302 -0.03417969 C498.33641709 0.0483076 498.33641709 0.0483076 501.57458496 2.32470703 C503.6486427 5.52333794 503.54055116 8.51117238 503.42773438 12.19543457 C503.41379639 12.97580078 503.3998584 13.75616699 503.38549805 14.56018066 C502.46111068 45.56780643 497.89894824 87.06965904 475.20117188 110.42590332 C472.58006348 112.89419091 469.87192991 115.23668375 467.13476562 117.57434082 C438.59686659 143.30523339 417.95911828 182.95374287 399.36621094 216.06018066 C398.09940474 218.31372909 396.82337118 220.56176015 395.54492188 222.80871582 C376.31112854 256.79317821 359.92825807 292.04474744 345.99023438 328.50793457 C345.5807959 329.57382812 345.17135742 330.63972168 344.74951172 331.73791504 C324.92442117 383.76346168 310.41066955 441.7535482 317.55273438 497.64465332 C318.55814729 506.52280841 318.55814729 506.52280841 316.47126007 510.14281273 C313.13472848 513.32347456 310.36045991 513.20712698 305.98132324 513.14285278 C305.16810089 513.15065274 304.35487853 513.15845269 303.51701307 513.16648901 C300.78822685 513.18645513 298.06082815 513.17062696 295.33203125 513.15490723 C293.37735682 513.16168131 291.42268876 513.17058326 289.46803284 513.18145752 C284.15602838 513.20428224 278.8445086 513.19540132 273.5324955 513.17956209 C267.97831523 513.16691959 262.42417698 513.17863861 256.86999512 513.18649292 C247.54199762 513.19559428 238.21419794 513.18358873 228.88623047 513.15979004 C218.09563008 513.13257794 207.30550202 513.14139175 196.51491308 513.16892207 C187.2570559 513.1915982 177.99934107 513.19482051 168.74146509 513.18172872 C163.20919202 513.17392601 157.67714108 513.17291522 152.1448822 513.18941116 C146.94415572 513.20383482 141.74403928 513.19387251 136.54337883 513.16493988 C134.63257295 513.15831783 132.7217159 513.16024578 130.81093025 513.1712532 C128.20630455 513.1848764 125.60364517 513.16783362 122.99914551 513.14285278 C122.23922664 513.15400639 121.47930778 513.16516 120.69636106 513.1766516 C116.93240441 513.10641012 115.30666869 512.80281025 112.51140594 510.19798851 C110.40703472 506.47659888 110.60872777 503.32436226 110.92773438 499.19543457 C110.98421143 498.31009033 111.04068848 497.42474609 111.09887695 496.51257324 C115.87460516 431.64447858 127.90928391 360.04565883 156.99023438 301.50793457 C157.34408203 300.78396484 157.69792969 300.05999512 158.0625 299.31408691 C165.61574822 283.97629813 174.92243945 269.54987128 185.99023438 256.50793457 C186.74175781 255.57336426 187.49328125 254.63879395 188.26757812 253.67590332 C195.18749437 245.19508389 202.83785999 237.44463448 210.55273438 229.69543457 C211.08317352 229.15981903 211.61361267 228.62420349 212.16012573 228.07235718 C219.10159903 221.07758374 226.25374667 214.63211479 233.99023438 208.50793457 C235.30715358 207.42316608 236.6212786 206.33498986 237.93164062 205.24230957 C262.47942896 184.94804893 289.31463549 168.15808062 316.99023438 152.50793457 C315.77851563 152.83406738 314.56679688 153.1602002 313.31835938 153.49621582 C311.62579242 153.93816386 309.93307551 154.37953789 308.24023438 154.82043457 C307.45390625 155.03377441 306.66757812 155.24711426 305.85742188 155.46691895 C289.46260749 159.6917365 273.05533948 161.07062962 256.17773438 160.94543457 C255.26036499 160.94139618 254.34299561 160.93735779 253.39782715 160.93319702 C229.16661633 160.78403412 207.89936044 155.71608831 184.94677734 148.38415527 C174.53801356 145.29934493 163.72179461 144.64580491 153.80273438 149.38293457 C142.76926149 155.60887604 133.17741203 163.83509698 123.99023438 172.50793457 C123.425625 173.00422363 122.86101562 173.5005127 122.27929688 174.01184082 C119.55663723 177.17177611 119.86240125 181.13737772 119.84838867 185.13098145 C119.84135422 186.25895142 119.83431976 187.38692139 119.82707214 188.54907227 C119.82082573 190.36949036 119.82082573 190.36949036 119.81445312 192.22668457 C119.79126475 194.79309911 119.76714782 197.3595054 119.7421875 199.92590332 C119.70575307 203.97489504 119.67599705 208.02373173 119.66430664 212.07287598 C119.65229334 215.97859808 119.60870788 219.883691 119.56445312 223.78918457 C119.56636154 225.00279663 119.56826996 226.21640869 119.57023621 227.46679688 C119.55374527 228.59476685 119.53725433 229.72273682 119.52026367 230.8848877 C119.51439743 231.87653931 119.50853119 232.86819092 119.50248718 233.88989258 C118.83749043 237.28858438 117.64636293 238.33267957 114.99023438 240.50793457 C112.63513184 241.01129913 112.63513184 241.01129913 109.98046875 241.01586914 C108.97105225 241.02714844 107.96163574 241.03842773 106.92163086 241.05004883 C105.26949585 241.03790344 105.26949585 241.03790344 103.58398438 241.0255127 C102.41939697 241.03252197 101.25480957 241.03953125 100.05493164 241.04675293 C96.19979104 241.06437889 92.34538263 241.05269298 88.49023438 241.03918457 C85.81509485 241.04187814 83.13997768 241.0457531 80.46484375 241.05078125 C74.85603888 241.05805654 69.24744475 241.04847328 63.63867188 241.02941895 C57.15605531 241.00765014 50.67394196 241.01470162 44.19133759 241.03672457 C38.62346848 241.05488216 33.05575078 241.05743523 27.48786163 241.04696989 C24.16327768 241.04073679 20.83898186 241.04146655 17.5144043 241.05311584 C13.8080828 241.06325205 10.1027333 241.04781942 6.39648438 241.0255127 C5.29506104 241.03360962 4.1936377 241.04170654 3.05883789 241.05004883 C2.04942139 241.03876953 1.04000488 241.02749023 0 241.01586914 C-0.87603882 241.01436104 -1.75207764 241.01285294 -2.65466309 241.01129913 C-6.02488894 240.2909686 -7.07455699 239.37601917 -9.00976562 236.50793457 C-9.59613726 233.42095812 -9.54918352 230.38054539 -9.5177002 227.24621582 C-9.52394016 226.29823624 -9.53018012 225.35025665 -9.53660917 224.37355042 C-9.55259645 221.18892737 -9.53991226 218.00506364 -9.52734375 214.82043457 C-9.5327623 212.54064486 -9.53988346 210.26085865 -9.54858398 207.9810791 C-9.56685181 201.78281098 -9.55973539 195.58480854 -9.54706764 189.38653564 C-9.53695795 182.90746328 -9.54632767 176.42841405 -9.5526123 169.94934082 C-9.56036141 158.37029727 -9.54791152 146.79137525 -9.52757496 135.21235085 C-9.50970367 124.7118604 -9.5128077 114.21154682 -9.53125 103.71105957 C-9.55265188 91.51975478 -9.56062641 79.32857597 -9.54880095 67.13725281 C-9.54255685 60.68280794 -9.54175561 54.22848495 -9.5549469 47.77404785 C-9.56648037 41.70668375 -9.55852516 35.63965449 -9.53536987 29.57232666 C-9.53006943 27.34222978 -9.53161924 25.11210485 -9.54042053 22.88201904 C-9.55130661 19.84418012 -9.53769595 16.8074228 -9.5177002 13.76965332 C-9.52662308 12.88133316 -9.53554597 11.993013 -9.54473925 11.07777405 C-9.49605974 7.28064219 -9.45107778 5.16198322 -7.29113007 1.96082306 C-4.61528681 0.25671047 -3.15681937 0.00543447 0 0 Z M-1.00976562 8.50793457 C-1.00976562 82.42793457 -1.00976562 156.34793457 -1.00976562 232.50793457 C35.95023438 232.50793457 72.91023438 232.50793457 110.99023438 232.50793457 C111.16059521 213.73550246 111.16059521 213.73550246 111.28808594 194.96276855 C111.31746259 192.60150205 111.3482896 190.24025294 111.38085938 187.87902832 C111.3819873 186.66251587 111.38311523 185.44600342 111.38427734 184.19262695 C111.5223976 175.9921581 112.45841549 171.3389499 118.11132812 165.20715332 C129.09900549 155.66473537 140.05406863 147.20902912 152.99023438 140.50793457 C153.72886719 140.12508301 154.4675 139.74223145 155.22851562 139.34777832 C169.70102453 132.90556421 188.95975975 139.96128007 202.95166016 144.87585449 C229.79882267 154.1210231 259.08717803 154.65670128 286.99023438 150.50793457 C287.78768066 150.38966309 288.58512695 150.2713916 289.40673828 150.14953613 C303.5050315 147.93814949 316.65246864 143.49598305 329.99023438 138.50793457 C330.27640625 139.3973877 330.56257813 140.28684082 330.85742188 141.20324707 C331.82183022 144.016659 332.88601171 146.67864472 334.11523438 149.38293457 C334.4684375 150.16410645 334.82164062 150.94527832 335.18554688 151.75012207 C335.45109375 152.3302002 335.71664063 152.91027832 335.99023438 153.50793457 C335.17425781 153.75027832 334.35828125 153.99262207 333.51757812 154.24230957 C329.31655655 155.74965286 325.49133918 157.67137978 321.55273438 159.75793457 C320.73071533 160.193396 319.90869629 160.62885742 319.06176758 161.07751465 C287.57647967 177.99942147 257.65691296 198.69321585 230.99023438 222.50793457 C230.03761719 223.34969238 229.085 224.1914502 228.10351562 225.05871582 C215.22805637 236.63433335 202.5135395 248.72446825 191.99023438 262.50793457 C191.2090625 263.47215332 190.42789063 264.43637207 189.62304688 265.42980957 C143.77622373 322.40546321 129.84324362 404.55749897 121.74023438 475.38293457 C121.65101715 476.14974548 121.56179993 476.9165564 121.46987915 477.706604 C121.21373208 479.92865671 120.96761059 482.15159719 120.72460938 484.37512207 C120.58249023 485.655 120.44037109 486.93487793 120.29394531 488.25354004 C119.90807248 493.65886151 119.99023438 499.08885734 119.99023438 504.50793457 C182.36023438 504.50793457 244.73023438 504.50793457 308.99023438 504.50793457 C308.66023438 499.22793457 308.33023437 493.94793457 307.99023438 488.50793457 C307.87936251 485.18590763 307.78481748 481.88026489 307.75195312 478.55871582 C307.74215927 477.70553772 307.73236542 476.85235962 307.72227478 475.97332764 C307.5381967 455.79598703 308.162102 436.38795982 311.99023438 416.50793457 C312.22049316 415.30588379 312.45075195 414.10383301 312.68798828 412.86535645 C315.31395733 399.45900074 318.2845352 386.1321474 322.22705078 373.04748535 C322.7840494 371.19403057 323.33196073 369.33783786 323.87451172 367.48010254 C342.43072273 304.04939432 371.84235745 243.9047375 405.99023438 187.50793457 C406.84681641 186.08674316 406.84681641 186.08674316 407.72070312 184.63684082 C445.36534976 122.31304341 445.36534976 122.31304341 468.56445312 104.53527832 C484.76823361 90.99298835 489.20379376 62.11512737 492.11523438 42.44543457 C492.28410156 41.3838916 492.45296875 40.32234863 492.62695312 39.2286377 C494.17117743 28.89935778 494.46041211 19.10437996 494.99023438 8.50793457 C463.97023438 8.50793457 432.95023437 8.50793457 400.99023438 8.50793457 C400.66023438 14.44793457 400.33023437 20.38793457 399.99023438 26.50793457 C398.93051356 33.9259803 397.68941094 40.14504678 391.92773438 45.38293457 C385.4264802 49.15785635 377.38453016 47.33236965 370.41992188 45.64074707 C361.40156468 42.9107642 352.6354417 39.51445094 343.83203125 36.16711426 C325.26180266 29.15566997 306.37862011 22.63482231 287.0625 18.00939941 C285.02684562 17.51679408 283.00097643 16.99433688 280.97460938 16.46496582 C272.28642338 14.24556366 263.53724487 12.69710194 254.67773438 11.32043457 C253.60450928 11.15342041 252.53128418 10.98640625 251.42553711 10.81433105 C230.46484501 7.68127276 207.8832319 6.33891901 186.99023438 10.50793457 C186.35214844 10.62620605 185.7140625 10.74447754 185.05664062 10.86633301 C168.35887005 14.01519281 152.57898208 20.20411888 138.25219727 29.35803223 C132.90266361 32.60175612 128.21781995 33.42750795 121.99023438 32.50793457 C116.85714647 29.89472618 113.81044357 26.96856216 111.99023438 21.50793457 C111.66023438 17.21793457 111.33023438 12.92793457 110.99023438 8.50793457 C74.03023437 8.50793457 37.07023437 8.50793457 -1.00976562 8.50793457 Z " fill="#010000" transform="translate(9.009765625,-0.5079345703125)"/>
</svg>
