<?xml version="1.0" encoding="UTF-8"?>
<svg version="1.1" xmlns="http://www.w3.org/2000/svg" width="512" height="512">
<path d="M0 0 C1.23838547 -0.00307895 1.23838547 -0.00307895 2.50178882 -0.0062201 C5.29223911 -0.01191354 8.08264041 -0.01042997 10.87309551 -0.00901413 C12.88431168 -0.01159642 14.89552734 -0.0146092 16.90674227 -0.01801753 C22.45235113 -0.02610671 27.99794705 -0.02787817 33.5435611 -0.028615 C39.51709761 -0.03046221 45.49062735 -0.03800783 51.46415997 -0.04475021 C65.2160203 -0.05905667 78.96787884 -0.06486169 92.71974479 -0.06944216 C99.51318032 -0.07177708 106.306615 -0.0753796 113.10004988 -0.07913754 C136.34795146 -0.09197339 159.59585258 -0.10269289 182.84375763 -0.10614014 C184.30343395 -0.10636177 185.76311027 -0.10658355 187.22278659 -0.10680549 C188.68601645 -0.10702613 190.14924631 -0.10724661 191.61247617 -0.10746694 C194.54803805 -0.10790949 197.48359992 -0.10835661 200.4191618 -0.10880661 C201.14701182 -0.108916 201.87486184 -0.10902539 202.62476792 -0.1091381 C226.23167725 -0.1127697 249.83855589 -0.12869344 273.44545346 -0.15199697 C298.39554981 -0.17658148 323.34562862 -0.19031232 348.29573745 -0.19150805 C351.03351574 -0.19167951 353.77129402 -0.19189494 356.5090723 -0.19214249 C357.1832057 -0.19219826 357.85733909 -0.19225402 358.55190077 -0.19231148 C369.4100861 -0.19346309 380.26823997 -0.20449433 391.12641467 -0.21902954 C402.03586463 -0.23338111 412.94527227 -0.23638617 423.85472897 -0.22858956 C429.76728576 -0.22467242 435.67973652 -0.22566444 441.59228039 -0.23964691 C447.00132308 -0.25232204 452.41017938 -0.25124479 457.81922158 -0.2390562 C459.77952355 -0.23708808 461.73983844 -0.24022863 463.70012221 -0.24890056 C466.35869516 -0.25992009 469.01660179 -0.25255694 471.67515564 -0.24050903 C472.44145659 -0.24810423 473.20775754 -0.25569942 473.99727973 -0.26352477 C479.44375372 -0.21000921 483.63287813 0.89715145 487.67087078 4.66658401 C491.62006726 9.83091787 492.17501149 12.69478633 492.17351055 19.07619095 C492.17718724 19.90671108 492.18086393 20.73723122 492.18465203 21.59291863 C492.19571573 24.39189398 492.19953725 27.19083223 492.20334148 29.9898262 C492.2096041 31.99021397 492.21625072 33.99060056 492.2232542 35.99098587 C492.24068261 41.43737355 492.25122096 46.88375243 492.25945973 52.33016109 C492.26460595 55.73100246 492.27068185 59.13184108 492.27697086 62.53268051 C492.296028 73.16762053 492.31025807 83.80255358 492.31858283 94.43750739 C492.32835841 106.72393879 492.3546842 119.01019019 492.39508373 131.29655814 C492.42521906 140.78621188 492.44004925 150.27581394 492.44336385 159.76551461 C492.44571727 165.43649411 492.45471573 171.10728141 492.47982502 176.77820969 C492.50306551 182.11339172 492.50735511 187.44825448 492.49706364 192.78347397 C492.49656719 194.74183589 492.50291964 196.70021331 492.51661968 198.65852737 C492.53427857 201.33231257 492.52726222 204.00494453 492.51408672 206.67873001 C492.53054059 207.84109826 492.53054059 207.84109826 492.54732686 209.02694869 C492.48558249 214.21729437 491.27411154 217.11815059 488.02633953 221.13142776 C480.64277141 228.31543999 471.63667756 227.43897326 461.95602703 227.43220901 C460.58795321 227.43610178 459.21988059 227.44043763 457.8518095 227.44519424 C454.99572089 227.4526254 452.13975599 227.45238657 449.28366375 227.44710159 C445.6308131 227.44129177 441.97846701 227.45828882 438.32569981 227.48144627 C435.50491681 227.49619767 432.68425524 227.49705376 429.86344051 227.49393654 C427.86432188 227.49469636 425.86522202 227.50854611 423.86615276 227.52261734 C422.64783764 227.51638855 421.42952251 227.51015976 420.17428875 227.50374222 C419.1050819 227.50437164 418.03587505 227.50500107 416.934268 227.50564957 C413.52203431 227.06652864 411.71200864 226.27592129 409.02633953 224.13142776 C408.36633953 222.48142776 407.70633953 220.83142776 407.02633953 219.13142776 C401.41633953 219.13142776 395.80633953 219.13142776 390.02633953 219.13142776 C389.69633953 220.78142776 389.36633953 222.43142776 389.02633953 224.13142776 C385.41825453 227.73951277 381.43329315 227.25761254 376.5153656 227.26285553 C375.86004598 227.26490816 375.20472635 227.2669608 374.52954856 227.26907563 C372.32430258 227.27474923 370.11911899 227.27328794 367.913867 227.27186966 C366.32053054 227.27445309 364.72719473 227.27746619 363.13385981 227.28087306 C358.74786042 227.28894894 354.36187739 227.29073296 349.97587144 227.29147053 C345.24838628 227.29332007 340.52090963 227.30086692 335.79342937 227.30760574 C325.45248381 227.32119393 315.11154212 227.32721459 304.77058911 227.3316164 C298.31467211 227.33437809 291.85875661 227.33861532 285.40284061 227.34312057 C267.53140164 227.35531404 249.65996386 227.3656131 231.78852081 227.36899567 C230.0724293 227.36932502 230.0724293 227.36932502 228.32166926 227.36966102 C226.60144926 227.36998843 226.60144926 227.36998843 224.84647733 227.37032247 C222.52256095 227.37076593 220.19864458 227.3712125 217.8747282 227.37166214 C216.72198309 227.37188357 215.56923797 227.372105 214.38156118 227.37233314 C195.70284935 227.37628117 177.02417653 227.393735 158.34547976 227.41702166 C139.17238771 227.44073191 119.99931524 227.45319737 100.82620829 227.45436358 C90.05960764 227.45528055 79.2930578 227.46103818 68.52647114 227.4791832 C59.35832538 227.49457978 50.19024616 227.49970726 41.02208994 227.49144509 C36.34455655 227.48753699 31.66715716 227.48847605 26.98964024 227.50250244 C22.70552146 227.51523164 18.42163749 227.51405246 14.13751908 227.50191173 C12.58970725 227.49995303 11.04187884 227.50304117 9.4940903 227.51175609 C-8.69994518 227.60769256 -8.69994518 227.60769256 -15.12991047 222.37752151 C-15.79506672 221.48226761 -15.79506672 221.48226761 -16.47366047 220.56892776 C-16.93772297 219.9695137 -17.40178547 219.37009964 -17.87991047 218.75252151 C-20.41254235 214.99879927 -20.12186374 211.57538258 -20.12083149 207.18666458 C-20.12450818 206.35614444 -20.12818487 205.52562431 -20.13197297 204.6699369 C-20.14303667 201.87096155 -20.14685819 199.0720233 -20.15066242 196.27302933 C-20.15692504 194.27264156 -20.16357166 192.27225497 -20.17057514 190.27186966 C-20.18800354 184.82548198 -20.1985419 179.3791031 -20.20678067 173.93269444 C-20.21192689 170.53185307 -20.21800279 167.13101445 -20.2242918 163.73017502 C-20.24334894 153.095235 -20.25757901 142.46030195 -20.26590377 131.82534814 C-20.27567935 119.53891674 -20.30200514 107.25266534 -20.34240466 94.96629739 C-20.37253999 85.47664365 -20.38737019 75.98704159 -20.39068478 66.49734092 C-20.39303821 60.82636142 -20.40203667 55.15557412 -20.42714596 49.48464584 C-20.45038644 44.14946381 -20.45467605 38.81460105 -20.44438457 33.47938156 C-20.44388813 31.52101964 -20.45024057 29.56264222 -20.46394062 27.60432816 C-20.48159951 24.93054296 -20.47458315 22.257911 -20.46140766 19.58412552 C-20.47237691 18.80921335 -20.48334615 18.03430119 -20.4946478 17.23590684 C-20.43291366 12.04642171 -19.23387802 9.13650633 -15.97366047 5.13142776 C-10.76026454 0.42665583 -6.80477875 -0.01557026 0 0 Z " fill="#F2F6F7" transform="translate(19.973660469055176,201.86857223510742)"/>
<path d="M0 0 C37.0940625 -0.0309375 37.0940625 -0.0309375 74.9375 -0.0625 C86.67042603 -0.07615601 86.67042603 -0.07615601 98.64038086 -0.09008789 C108.15734863 -0.09460449 108.15734863 -0.09460449 112.60597229 -0.09544373 C115.72760217 -0.0963792 118.84921522 -0.10014181 121.97084045 -0.10557556 C125.94512222 -0.11240254 129.9193793 -0.11449714 133.89366639 -0.11307228 C135.35694076 -0.1133705 136.82021594 -0.11537231 138.28348529 -0.11921513 C140.25070585 -0.12414393 142.21793984 -0.12240373 144.18516541 -0.12025452 C145.84301009 -0.12163721 145.84301009 -0.12163721 147.53434658 -0.12304783 C150 0 150 0 151 1 C151.09994659 3.50183834 151.1344141 5.97613253 151.12698364 8.47851562 C151.12854363 9.27087364 151.13010362 10.06323166 151.13171089 10.87960052 C151.1357241 13.55516884 151.13253001 16.23068118 151.12939453 18.90625 C151.13074843 20.81608107 151.1325283 22.72591188 151.13470459 24.63574219 C151.13928028 29.83807001 151.13748881 35.04037811 151.1343255 40.2427063 C151.1318026 45.67417455 151.13413924 51.10564106 151.13571167 56.53710938 C151.13753357 65.66015935 151.13512652 74.78320125 151.13037109 83.90625 C151.12492844 94.47004596 151.12669108 105.03382262 151.1321975 115.5976181 C151.13672805 124.64980993 151.13737946 133.70199594 151.13475883 142.75418854 C151.13319573 148.1684043 151.13300318 153.58261098 151.13629532 158.99682617 C151.13917319 164.08566191 151.1371999 169.17447264 151.13140106 174.26330566 C151.13007301 176.13667764 151.13046834 178.01005169 151.13266373 179.88342285 C151.13537347 182.42947227 151.13199628 184.97544023 151.12698364 187.52148438 C151.12921436 188.27273338 151.13144509 189.02398239 151.13374341 189.79799652 C151.11414985 194.88585015 151.11414985 194.88585015 150 196 C148.02193859 196.10792897 146.04005273 196.14628381 144.05908203 196.15771484 C142.78751251 196.16797699 141.51594299 196.17823914 140.20584106 196.18881226 C139.52194431 196.19225018 138.83804756 196.1956881 138.13342667 196.19923019 C135.99851336 196.21098872 133.86380516 196.23043345 131.72897339 196.25234985 C125.65776378 196.31406733 119.58657357 196.36802358 113.51513672 196.40136719 C109.80501087 196.42229471 106.09525585 196.45758401 102.38534164 196.50212479 C100.96999346 196.51630316 99.55457963 196.52501138 98.13916397 196.52817917 C96.15926519 196.53307885 94.17944552 196.55783059 92.19970703 196.58349609 C90.5087944 196.59562637 90.5087944 196.59562637 88.78372192 196.60800171 C86.01646551 196.78327325 86.01646551 196.78327325 84.17501831 198.27603149 C82.69731159 200.2304959 82.69731159 200.2304959 82 204 C76.06 204 70.12 204 64 204 C63.01 202.02 62.02 200.04 61 198 C42.80354125 188.90177062 20.3413378 196.34476844 0 196 C0 131.32 0 66.64 0 0 Z " fill="#F2F6F7" transform="translate(346,217)"/>
<path d="M0 0 C1.10522979 0.00092179 2.21045958 0.00184359 3.34918118 0.00279331 C4.61003819 0.00141582 5.87089521 0.00003832 7.16996002 -0.00138092 C8.58577464 0.00216635 10.00158904 0.00580425 11.41740322 0.00952244 C12.91937126 0.00982855 14.42133944 0.00969567 15.92330742 0.00915718 C19.95926194 0.00893067 23.99518705 0.01474233 28.03113461 0.02176762 C31.81309004 0.02744668 35.59503817 0.02772987 39.37699795 0.02844334 C50.45028475 0.03369854 61.52356603 0.04765959 72.59684658 0.06054783 C97.32622158 0.08117283 122.05559658 0.10179783 147.53434658 0.12304783 C147.53434658 64.80304783 147.53434658 129.48304783 147.53434658 196.12304783 C122.80497158 196.14367283 98.07559658 196.16429783 72.59684658 196.18554783 C64.7748959 196.19465183 56.95294521 196.20375584 48.89396572 196.21313572 C39.37699795 196.21765232 39.37699795 196.21765232 34.92837429 196.21849155 C31.80674441 196.21942703 28.68513136 196.22318964 25.56350613 196.22862339 C21.58922436 196.23545037 17.61496728 196.23754497 13.64068019 196.2361201 C12.17740582 196.23641833 10.71413064 196.23842014 9.25086129 196.24226296 C7.28364073 196.24719176 5.31640674 196.24545156 3.34918118 196.24330235 C1.69133649 196.24468503 1.69133649 196.24468503 0 196.24609566 C-2.46565342 196.12304783 -2.46565342 196.12304783 -3.46565342 195.12304783 C-3.56560001 192.62120949 -3.60006751 190.1469153 -3.59263706 187.6445322 C-3.59419705 186.85217419 -3.59575704 186.05981617 -3.59736431 185.2434473 C-3.60137752 182.56787899 -3.59818343 179.89236664 -3.59504795 177.21679783 C-3.59640185 175.30696676 -3.59818172 173.39713595 -3.60035801 171.48730564 C-3.6049337 166.28497781 -3.60314223 161.08266972 -3.59997892 155.88034153 C-3.59745602 150.44887328 -3.59979266 145.01740677 -3.60136509 139.58593845 C-3.60318699 130.46288848 -3.60077994 121.33984658 -3.59602451 112.21679783 C-3.59058186 101.65300187 -3.5923445 91.08922521 -3.59785092 80.52542973 C-3.60238147 71.47323789 -3.60303288 62.42105189 -3.60041225 53.36885929 C-3.59884915 47.95464353 -3.5986566 42.54043685 -3.60194874 37.12622166 C-3.60482661 32.03738592 -3.60285332 26.94857519 -3.59705448 21.85974216 C-3.59572643 19.98637019 -3.59612176 18.11299613 -3.59831715 16.23962498 C-3.60102689 13.69357556 -3.5976497 11.1476076 -3.59263706 8.60156345 C-3.59486778 7.85031445 -3.59709851 7.09906544 -3.59939682 6.32505131 C-3.57572597 0.17844573 -3.57572597 0.17844573 0 0 Z " fill="#F2F6F7" transform="translate(18.46565341949463,216.87695217132568)"/>
<path d="M0 0 C1.23838547 -0.00307895 1.23838547 -0.00307895 2.50178882 -0.0062201 C5.29223911 -0.01191354 8.08264041 -0.01042997 10.87309551 -0.00901413 C12.88431168 -0.01159642 14.89552734 -0.0146092 16.90674227 -0.01801753 C22.45235113 -0.02610671 27.99794705 -0.02787817 33.5435611 -0.028615 C39.51709761 -0.03046221 45.49062735 -0.03800783 51.46415997 -0.04475021 C65.2160203 -0.05905667 78.96787884 -0.06486169 92.71974479 -0.06944216 C99.51318032 -0.07177708 106.306615 -0.0753796 113.10004988 -0.07913754 C136.34795146 -0.09197339 159.59585258 -0.10269289 182.84375763 -0.10614014 C184.30343395 -0.10636177 185.76311027 -0.10658355 187.22278659 -0.10680549 C188.68601645 -0.10702613 190.14924631 -0.10724661 191.61247617 -0.10746694 C194.54803805 -0.10790949 197.48359992 -0.10835661 200.4191618 -0.10880661 C201.14701182 -0.108916 201.87486184 -0.10902539 202.62476792 -0.1091381 C226.23167725 -0.1127697 249.83855589 -0.12869344 273.44545346 -0.15199697 C298.39554981 -0.17658148 323.34562862 -0.19031232 348.29573745 -0.19150805 C351.03351574 -0.19167951 353.77129402 -0.19189494 356.5090723 -0.19214249 C357.1832057 -0.19219826 357.85733909 -0.19225402 358.55190077 -0.19231148 C369.4100861 -0.19346309 380.26823997 -0.20449433 391.12641467 -0.21902954 C402.03586463 -0.23338111 412.94527227 -0.23638617 423.85472897 -0.22858956 C429.76728576 -0.22467242 435.67973652 -0.22566444 441.59228039 -0.23964691 C447.00132308 -0.25232204 452.41017938 -0.25124479 457.81922158 -0.2390562 C459.77952355 -0.23708808 461.73983844 -0.24022863 463.70012221 -0.24890056 C466.35869516 -0.25992009 469.01660179 -0.25255694 471.67515564 -0.24050903 C472.44145659 -0.24810423 473.20775754 -0.25569942 473.99727973 -0.26352477 C479.44375372 -0.21000921 483.63287813 0.89715145 487.67087078 4.66658401 C491.62006726 9.83091787 492.17501149 12.69478633 492.17351055 19.07619095 C492.17718724 19.90671108 492.18086393 20.73723122 492.18465203 21.59291863 C492.19571573 24.39189398 492.19953725 27.19083223 492.20334148 29.9898262 C492.2096041 31.99021397 492.21625072 33.99060056 492.2232542 35.99098587 C492.24068261 41.43737355 492.25122096 46.88375243 492.25945973 52.33016109 C492.26460595 55.73100246 492.27068185 59.13184108 492.27697086 62.53268051 C492.296028 73.16762053 492.31025807 83.80255358 492.31858283 94.43750739 C492.32835841 106.72393879 492.3546842 119.01019019 492.39508373 131.29655814 C492.42521906 140.78621188 492.44004925 150.27581394 492.44336385 159.76551461 C492.44571727 165.43649411 492.45471573 171.10728141 492.47982502 176.77820969 C492.50306551 182.11339172 492.50735511 187.44825448 492.49706364 192.78347397 C492.49656719 194.74183589 492.50291964 196.70021331 492.51661968 198.65852737 C492.53427857 201.33231257 492.52726222 204.00494453 492.51408672 206.67873001 C492.53054059 207.84109826 492.53054059 207.84109826 492.54732686 209.02694869 C492.48558249 214.21729437 491.27411154 217.11815059 488.02633953 221.13142776 C480.64277141 228.31543999 471.63667756 227.43897326 461.95602703 227.43220901 C460.58795321 227.43610178 459.21988059 227.44043763 457.8518095 227.44519424 C454.99572089 227.4526254 452.13975599 227.45238657 449.28366375 227.44710159 C445.6308131 227.44129177 441.97846701 227.45828882 438.32569981 227.48144627 C435.50491681 227.49619767 432.68425524 227.49705376 429.86344051 227.49393654 C427.86432188 227.49469636 425.86522202 227.50854611 423.86615276 227.52261734 C422.64783764 227.51638855 421.42952251 227.51015976 420.17428875 227.50374222 C419.1050819 227.50437164 418.03587505 227.50500107 416.934268 227.50564957 C413.59309924 227.075674 411.72394415 226.11912562 409.02633953 224.13142776 C407.58883953 221.75642776 407.58883953 221.75642776 407.02633953 219.13142776 C408.02593966 215.31477274 409.16120934 213.99655796 412.02633953 211.13142776 C433.14633953 210.80142776 454.26633953 210.47142776 476.02633953 210.13142776 C476.02633953 146.11142776 476.02633953 82.09142776 476.02633953 16.13142776 C426.52633953 15.80142776 377.02633953 15.47142776 326.02633953 15.13142776 C326.02633953 79.81142776 326.02633953 144.49142776 326.02633953 211.13142776 C345.49633953 211.13142776 364.96633953 211.13142776 385.02633953 211.13142776 C390.02633953 216.13142776 390.02633953 216.13142776 390.52633953 219.75642776 C390.02633953 223.13142776 390.02633953 223.13142776 388.77633953 225.00642776 C384.95293667 227.46432961 380.9545755 227.2581229 376.5153656 227.26285553 C375.86004598 227.26490816 375.20472635 227.2669608 374.52954856 227.26907563 C372.32430258 227.27474923 370.11911899 227.27328794 367.913867 227.27186966 C366.32053054 227.27445309 364.72719473 227.27746619 363.13385981 227.28087306 C358.74786042 227.28894894 354.36187739 227.29073296 349.97587144 227.29147053 C345.24838628 227.29332007 340.52090963 227.30086692 335.79342937 227.30760574 C325.45248381 227.32119393 315.11154212 227.32721459 304.77058911 227.3316164 C298.31467211 227.33437809 291.85875661 227.33861532 285.40284061 227.34312057 C267.53140164 227.35531404 249.65996386 227.3656131 231.78852081 227.36899567 C230.0724293 227.36932502 230.0724293 227.36932502 228.32166926 227.36966102 C226.60144926 227.36998843 226.60144926 227.36998843 224.84647733 227.37032247 C222.52256095 227.37076593 220.19864458 227.3712125 217.8747282 227.37166214 C216.72198309 227.37188357 215.56923797 227.372105 214.38156118 227.37233314 C195.70284935 227.37628117 177.02417653 227.393735 158.34547976 227.41702166 C139.17238771 227.44073191 119.99931524 227.45319737 100.82620829 227.45436358 C90.05960764 227.45528055 79.2930578 227.46103818 68.52647114 227.4791832 C59.35832538 227.49457978 50.19024616 227.49970726 41.02208994 227.49144509 C36.34455655 227.48753699 31.66715716 227.48847605 26.98964024 227.50250244 C22.70552146 227.51523164 18.42163749 227.51405246 14.13751908 227.50191173 C12.58970725 227.49995303 11.04187884 227.50304117 9.4940903 227.51175609 C-8.69994518 227.60769256 -8.69994518 227.60769256 -15.12991047 222.37752151 C-15.79506672 221.48226761 -15.79506672 221.48226761 -16.47366047 220.56892776 C-16.93772297 219.9695137 -17.40178547 219.37009964 -17.87991047 218.75252151 C-20.41254235 214.99879927 -20.12186374 211.57538258 -20.12083149 207.18666458 C-20.12450818 206.35614444 -20.12818487 205.52562431 -20.13197297 204.6699369 C-20.14303667 201.87096155 -20.14685819 199.0720233 -20.15066242 196.27302933 C-20.15692504 194.27264156 -20.16357166 192.27225497 -20.17057514 190.27186966 C-20.18800354 184.82548198 -20.1985419 179.3791031 -20.20678067 173.93269444 C-20.21192689 170.53185307 -20.21800279 167.13101445 -20.2242918 163.73017502 C-20.24334894 153.095235 -20.25757901 142.46030195 -20.26590377 131.82534814 C-20.27567935 119.53891674 -20.30200514 107.25266534 -20.34240466 94.96629739 C-20.37253999 85.47664365 -20.38737019 75.98704159 -20.39068478 66.49734092 C-20.39303821 60.82636142 -20.40203667 55.15557412 -20.42714596 49.48464584 C-20.45038644 44.14946381 -20.45467605 38.81460105 -20.44438457 33.47938156 C-20.44388813 31.52101964 -20.45024057 29.56264222 -20.46394062 27.60432816 C-20.48159951 24.93054296 -20.47458315 22.257911 -20.46140766 19.58412552 C-20.47237691 18.80921335 -20.48334615 18.03430119 -20.4946478 17.23590684 C-20.43291366 12.04642171 -19.23387802 9.13650633 -15.97366047 5.13142776 C-10.76026454 0.42665583 -6.80477875 -0.01557026 0 0 Z M-4.97366047 16.13142776 C-5.07360706 18.6332661 -5.10807456 21.1075603 -5.10064411 23.60994339 C-5.1022041 24.40230141 -5.10376409 25.19465942 -5.10537136 26.01102829 C-5.10938457 28.68659661 -5.10619048 31.36210895 -5.103055 34.03767776 C-5.1044089 35.94750883 -5.10618877 37.85733964 -5.10836506 39.76716995 C-5.11294075 44.96949778 -5.11114928 50.17180587 -5.10798597 55.37413406 C-5.10546307 60.80560232 -5.10779971 66.23706882 -5.10937214 71.66853714 C-5.11119404 80.79158712 -5.10878699 89.91462901 -5.10403156 99.03767776 C-5.0985889 109.60147372 -5.10035155 120.16525038 -5.10585797 130.72904587 C-5.11038852 139.7812377 -5.11103993 148.8334237 -5.1084193 157.8856163 C-5.1068562 163.29983207 -5.10666365 168.71403875 -5.10995579 174.12825394 C-5.11283366 179.21708967 -5.11086037 184.30590041 -5.10506153 189.39473343 C-5.10373348 191.2681054 -5.10412881 193.14147946 -5.1063242 195.01485062 C-5.10903394 197.56090003 -5.10565675 200.106868 -5.10064411 202.65291214 C-5.10287483 203.40416115 -5.10510556 204.15541016 -5.10740387 204.92942429 C-5.39566608 208.31711238 -5.39566608 208.31711238 -3.97366047 211.13142776 C-2.03737747 211.22805749 -0.09751784 211.25329921 1.84117413 211.25168228 C3.10203115 211.25305978 4.36288816 211.25443727 5.66195297 211.25585651 C7.07776759 211.25230924 8.49358199 211.24867135 9.90939617 211.24495316 C11.41136421 211.24464705 12.91333239 211.24477992 14.41530037 211.24531841 C18.45125489 211.24554493 22.48718 211.23973327 26.52312756 211.23270798 C30.30508299 211.22702892 34.08703112 211.22674572 37.8689909 211.22603226 C48.9422777 211.22077705 60.01555898 211.20681601 71.08883953 211.19392776 C95.81821453 211.17330276 120.54758953 211.15267776 146.02633953 211.13142776 C146.02633953 146.45142776 146.02633953 81.77142776 146.02633953 15.13142776 C121.29696453 15.11080276 96.56758953 15.09017776 71.08883953 15.06892776 C63.26688885 15.05982376 55.44493816 15.05071976 47.38595867 15.04133987 C40.40316318 15.03799642 40.40316318 15.03799642 33.42036724 15.03598404 C30.29873736 15.03504856 27.17712431 15.03128595 24.05549908 15.0258522 C20.08121731 15.01902522 16.10696023 15.01693062 12.13267314 15.01835549 C10.66939877 15.01805727 9.20612359 15.01605545 7.74285424 15.01221263 C5.77563368 15.00728384 3.80839969 15.00902404 1.84117413 15.01117325 C0.73594434 15.01025146 -0.36928545 15.00932966 -1.50800705 15.00837994 C-3.91812811 14.85223415 -3.91812811 14.85223415 -4.97366047 16.13142776 Z M161.02633953 15.13142776 C161.02633953 79.81142776 161.02633953 144.49142776 161.02633953 211.13142776 C210.52633953 211.13142776 260.02633953 211.13142776 311.02633953 211.13142776 C311.02633953 146.45142776 311.02633953 81.77142776 311.02633953 15.13142776 C261.52633953 15.13142776 212.02633953 15.13142776 161.02633953 15.13142776 Z " fill="#010101" transform="translate(19.973660469055176,201.86857223510742)"/>
<path d="M0 0 C7.51350305 5.2785851 11.06093571 15.94417491 15 23.875 C15.60324579 25.07435451 16.2067596 26.27357425 16.81054688 27.47265625 C17.37451172 28.60316406 17.93847656 29.73367187 18.51953125 30.8984375 C19.28873901 32.44023682 19.28873901 32.44023682 20.07348633 34.01318359 C21.1875 36.5 21.1875 36.5 21.1875 38.5 C22.26644531 38.60957031 23.34539062 38.71914063 24.45703125 38.83203125 C32.78134551 39.70057379 41.09121672 40.67778886 49.375 41.875 C50.15141846 41.97659424 50.92783691 42.07818848 51.7277832 42.18286133 C58.18923247 43.15974674 62.97037847 45.2260292 67.625 50 C69.88796371 55.06903871 70.15465432 60.03842268 69.1875 65.5 C66.52735841 70.0085047 63.35160265 73.48371342 59.51171875 76.984375 C58.42511303 78.01162714 57.33986569 79.04031772 56.25585938 80.0703125 C54.56496592 81.66851047 52.86800749 83.25635557 51.14624023 84.82128906 C44.45782491 90.52102972 44.45782491 90.52102972 40.60742188 98.07226562 C40.84072701 100.70167759 41.42619179 102.97409418 42.1875 105.5 C42.54171788 107.4551095 42.87687125 109.41374565 43.1953125 111.375 C43.75038868 114.44563419 44.31508186 117.51347355 44.90234375 120.578125 C46.20549586 127.89077715 47.22987583 135.25285759 43.91015625 142.15625 C39.99702667 146.50212568 36.76330275 148.5148859 31.0078125 149.63671875 C22.07371292 149.20362528 14.11455511 144.01645022 6.4375 139.875 C4.23753885 138.6894228 2.03452095 137.50949588 -0.171875 136.3359375 C-1.61771973 135.55549072 -1.61771973 135.55549072 -3.09277344 134.75927734 C-5.79848337 133.50648993 -7.83926299 132.70969859 -10.8125 132.5 C-13.35222359 133.38008794 -13.35222359 133.38008794 -15.83203125 134.88671875 C-16.77240234 135.41330078 -17.71277344 135.93988281 -18.68164062 136.48242188 C-20.13860352 137.32643555 -20.13860352 137.32643555 -21.625 138.1875 C-23.54750411 139.27592912 -25.47067044 140.36318947 -27.39453125 141.44921875 C-28.77644653 142.23280762 -28.77644653 142.23280762 -30.1862793 143.03222656 C-37.75086808 147.26001384 -43.50461864 150.15184508 -52.375 149.0625 C-57.07238672 146.92732422 -60.41239115 144.11037858 -62.8125 139.5 C-64.91461215 131.14177252 -62.97705639 122.97385435 -61.375 114.6875 C-60.89351706 112.11916527 -60.41550735 109.55017637 -59.94140625 106.98046875 C-59.72556885 105.85535889 -59.50973145 104.73024902 -59.28735352 103.57104492 C-59.13065186 102.5576001 -58.9739502 101.54415527 -58.8125 100.5 C-58.67336182 99.66581543 -58.53422363 98.83163086 -58.39086914 97.97216797 C-59.0496034 94.10978051 -61.68972732 92.04852283 -64.4296875 89.46484375 C-65.00204132 88.90430801 -65.57439514 88.34377228 -66.16409302 87.76625061 C-67.99377402 85.97775619 -69.83941692 84.2069566 -71.6875 82.4375 C-73.52577973 80.6620037 -75.36035447 78.88296016 -77.18948364 77.09803772 C-78.32768386 75.9889497 -79.47159056 74.88568037 -80.62179565 73.78904724 C-84.26322983 70.26159947 -86.54150655 67.76248016 -87.1484375 62.6953125 C-87.2089035 57.9426852 -87.20800676 54.38593515 -85.25 50 C-81.22475423 45.8715428 -77.90294769 43.74801922 -72.125 43.0625 C-68.67270158 43.51846394 -67.16526765 43.95901094 -64.8125 46.5 C-64.8125 47.49 -64.8125 48.48 -64.8125 49.5 C-64.02746094 49.355625 -63.24242187 49.21125 -62.43359375 49.0625 C-56.81639036 48.07001253 -51.51752463 47.2406807 -45.8125 47.5 C-45.9671875 46.38625 -45.9671875 46.38625 -46.125 45.25 C-45.8125 42.5 -45.8125 42.5 -43.4375 40.1875 C-40.8125 38.5 -40.8125 38.5 -38.8125 38.5 C-38.5453418 37.6447876 -38.27818359 36.7895752 -38.00292969 35.90844727 C-36.12007482 30.51744301 -33.54036791 25.46814444 -31.00976562 20.35913086 C-30.06637394 18.4453587 -29.14265223 16.52284948 -28.21875 14.59960938 C-27.61057147 13.36659662 -27.001234 12.1341547 -26.390625 10.90234375 C-25.57706543 9.23933228 -25.57706543 9.23933228 -24.74707031 7.54272461 C-19.34883751 -0.94770642 -9.41419724 -4.69675335 0 0 Z " fill="#010100" transform="translate(264.8125,8.5)"/>
<path d="M0 0 C0.86453293 -0.00686325 1.72906586 -0.0137265 2.61979675 -0.02079773 C5.45511672 -0.03898052 8.28987883 -0.0352405 11.12524414 -0.02954102 C13.11007363 -0.03410684 15.09490154 -0.03941361 17.07972717 -0.04542542 C21.23127685 -0.05433976 25.38263398 -0.05195241 29.53417969 -0.04199219 C34.83789983 -0.03050369 40.14095405 -0.05072095 45.44458675 -0.07990932 C49.54114459 -0.09830988 53.63754395 -0.09797119 57.73413277 -0.0922718 C59.68883765 -0.09211907 61.64355361 -0.09812379 63.59821892 -0.11056328 C66.33803221 -0.1255449 69.07662938 -0.11474412 71.81640625 -0.09765625 C72.61304688 -0.10732422 73.4096875 -0.11699219 74.23046875 -0.12695312 C81.5554679 -0.03193069 87.15158344 2.5593455 93.22290039 6.52905273 C97.94669742 11.46756782 101.16436121 17.17007577 101.66040039 24.09155273 C101.3380181 28.44016119 100.12092476 31.96632854 98.47680664 35.99389648 C98.2132135 36.64000885 97.94962036 37.28612122 97.67803955 37.95181274 C94.40987694 45.88749195 90.91918206 53.72788086 87.42953491 61.56796265 C85.75810996 65.32335297 84.09287827 69.08147963 82.42729187 72.83946228 C81.56226708 74.79113501 80.69696005 76.74268268 79.83137512 78.69410706 C75.79532952 87.79548302 71.78642016 96.90864723 67.78662109 106.02600098 C66.66599846 108.57880022 65.5433082 111.13068144 64.42016602 113.68237305 C61.22312163 120.95159 58.03808187 128.22464345 54.92756653 135.53138733 C53.66168177 138.5043292 52.3875302 141.47369847 51.1131897 144.44302368 C50.25333493 146.45774184 49.40723751 148.47785084 48.56152344 150.49853516 C41.77553919 166.30230571 41.77553919 166.30230571 33.78540039 169.77905273 C33.1318457 170.07553711 32.47829102 170.37202148 31.80493164 170.67749023 C25.41758323 173.21063907 19.61552082 173.36767291 13.22290039 170.71655273 C9.39562075 168.8095575 6.70824264 166.74724882 3.97290039 163.40405273 C3.50754883 162.87424805 3.04219727 162.34444336 2.56274414 161.79858398 C-2.18772326 155.59254162 -1.82425047 148.91733349 -1.02709961 141.40405273 C0.28284432 136.77220489 2.2180606 132.55586205 4.28540039 128.21655273 C4.86130464 126.95632823 5.43436906 125.69480288 6.00488281 124.43212891 C7.26916694 121.64128997 8.54673827 118.85703727 9.83227539 116.07592773 C13.50268302 108.10369969 17.00907881 100.05742992 20.54623413 92.02548218 C21.75035265 89.29599859 22.95987981 86.56898455 24.17138672 83.84277344 C29.24316257 72.41828705 34.15393135 60.93770839 38.97290039 49.40405273 C31.71290039 49.40405273 24.45290039 49.40405273 16.97290039 49.40405273 C16.31290039 51.05405273 15.65290039 52.70405273 14.97290039 54.40405273 C10.1716125 59.71073935 5.44406589 63.87368 -1.85913086 64.73999023 C-9.73606677 64.84322662 -15.10112479 64.05299304 -20.96459961 58.60327148 C-28.57430165 50.43869533 -29.55179985 43.47818267 -29.52709961 32.59155273 C-29.55545898 31.4668457 -29.58381836 30.34213867 -29.61303711 29.18334961 C-29.63260511 20.76421657 -28.065464 13.87469114 -22.30053711 7.49267578 C-15.95453832 1.38601961 -8.4890572 -0.04784829 0 0 Z " fill="#040404" transform="translate(220.027099609375,228.595947265625)"/>
<path d="M0 0 C0.86278061 -0.00686325 1.72556122 -0.0137265 2.61448669 -0.02079773 C5.4504367 -0.03901265 8.28583053 -0.03523496 11.12182617 -0.02954102 C13.10568927 -0.03410617 15.08955079 -0.03941274 17.07341003 -0.04542542 C21.22673983 -0.05434674 25.37987726 -0.05194545 29.53320312 -0.04199219 C34.83573306 -0.03051859 40.13759545 -0.05069451 45.44003773 -0.07990932 C49.53663806 -0.09832637 53.63308016 -0.09796765 57.72971153 -0.0922718 C59.68358991 -0.09211918 61.63747941 -0.09811415 63.59131813 -0.11056328 C75.00174116 -0.17301513 83.90844892 0.08774513 93.91479492 6.09155273 C98.98811596 11.45477783 101.43249663 16.45049129 101.85229492 23.90405273 C101.57002637 29.66216899 100.31286539 34.08394941 98.01245117 39.34155273 C97.69959671 40.07780884 97.38674225 40.81406494 97.06440735 41.57263184 C96.08945272 43.85537824 95.09857893 46.13054339 94.10229492 48.40405273 C93.80333313 49.08959229 93.50437134 49.77513184 93.1963501 50.48144531 C91.40819481 54.57270288 89.5931227 58.65151501 87.7663269 62.72564697 C86.02358993 66.61327006 84.28983457 70.50489883 82.55541992 74.39624023 C82.19266464 75.20974945 81.82990936 76.02325867 81.4561615 76.86141968 C77.66414045 85.37293672 73.91722219 93.9040967 70.17602539 102.43804932 C69.04313991 105.02142498 67.90884665 107.60417822 66.77416992 110.18676758 C63.45464079 117.74465297 60.14102205 125.30483153 56.85948181 132.87930298 C55.49612795 136.02362775 54.12671289 139.16529192 52.75637817 142.30657959 C52.12111953 143.76723523 51.48876623 145.22915851 50.85958862 146.69244385 C42.48398908 166.16745209 42.48398908 166.16745209 31.22338867 171.29467773 C24.4939821 173.68660698 19.33812643 173.2456564 12.85229492 170.34155273 C6.3277164 166.69516348 1.87618756 161.80976648 -0.3719635 154.60987854 C-2.03153144 147.64691811 -0.77535852 141.79094616 2.12963867 135.40795898 C2.60275734 134.31651329 2.60275734 134.31651329 3.08543396 133.20301819 C4.07550796 130.92948494 5.0877444 128.66675164 6.10229492 126.40405273 C6.72093985 124.99560377 7.3383184 123.58659778 7.9543457 122.17700195 C9.50975455 118.63104167 11.08588179 115.09473776 12.6697998 111.56143188 C14.40923808 107.68066636 16.14030748 103.79616927 17.87182617 99.91186523 C18.22332733 99.1237294 18.57482849 98.33559357 18.9369812 97.52357483 C23.20158277 87.95220348 27.3947131 78.34969844 31.58496094 68.74560547 C34.40225534 62.28852441 37.23072094 55.83721484 40.10229492 49.40405273 C36.51736243 49.3977885 32.93644955 49.45736964 29.35229492 49.52905273 C28.33651367 49.52647461 27.32073242 49.52389648 26.27416992 49.52124023 C23.4315446 49.59604616 20.86730386 49.73457278 18.10229492 50.40405273 C15.49541573 53.12325127 15.49541573 53.12325127 14.10229492 56.40405273 C8.72523795 62.26993307 3.21009948 64.35890918 -4.71020508 64.84155273 C-11.38204127 64.6689177 -17.14400781 62.2772286 -21.78833008 57.43139648 C-23.29703845 55.47227275 -24.64408763 53.53435536 -25.89770508 51.40405273 C-26.4180835 50.55290894 -26.4180835 50.55290894 -26.94897461 49.68457031 C-29.06005952 44.61003502 -28.26739283 38.56723301 -28.27270508 33.15405273 C-28.30944336 31.20692383 -28.30944336 31.20692383 -28.34692383 29.22045898 C-28.37335648 20.57698281 -27.76920574 14.91415145 -22.00317383 8.19702148 C-21.37024414 7.6672168 -20.73731445 7.13741211 -20.08520508 6.59155273 C-19.46000977 6.04885742 -18.83481445 5.50616211 -18.19067383 4.94702148 C-12.14843143 0.88111732 -7.1206549 -0.04003387 0 0 Z " fill="#040404" transform="translate(384.897705078125,228.595947265625)"/>
<path d="M0 0 C1.97671507 0.00103956 3.95343222 -0.00000495 5.93014526 -0.00302124 C10.05384574 -0.00284274 14.17675653 0.01782281 18.30029297 0.05419922 C23.5635276 0.09963165 28.82561422 0.10064127 34.08899117 0.08716393 C38.16419531 0.08045564 42.23914164 0.09379707 46.31429672 0.11342239 C48.2541964 0.12107282 50.19412488 0.12344526 52.13403702 0.1202507 C73.88151512 0.11425977 73.88151512 0.11425977 82.1484375 6.91015625 C82.756875 7.65394531 83.3653125 8.39773437 83.9921875 9.1640625 C84.62125 9.90527344 85.2503125 10.64648438 85.8984375 11.41015625 C90.27646985 17.77332581 90.56244855 24.23284756 89.4921875 31.7265625 C87.55345939 38.23184281 84.48459383 44.34301207 81.6171875 50.4765625 C80.79357468 52.28610555 79.97258055 54.09684253 79.15405273 55.90869141 C77.45534796 59.66352787 75.7455983 63.4130275 74.02783203 67.15917969 C70.47619698 74.92761189 67.06638025 82.75734897 63.65261841 90.58706665 C61.81310502 94.79994448 59.96054749 99.00707939 58.109375 103.21484375 C55.27298234 109.66489438 52.44573631 116.11886022 49.62605286 122.57623291 C47.89956605 126.52694654 46.16790905 130.47538114 44.43527222 134.42340088 C43.60762773 136.31236066 42.78215625 138.20227425 41.95901489 140.09320068 C40.81308009 142.72485962 39.65935865 145.35297744 38.50390625 147.98046875 C38.17129791 148.7494902 37.83868958 149.51851166 37.4960022 150.31083679 C33.50361423 159.33897722 29.18738386 167.46433549 19.6796875 171.5390625 C13.06925204 173.7090916 7.66710399 173.55433566 1.3046875 170.6640625 C-5.2154513 167.05976217 -9.75093647 162.18622593 -11.97851562 154.98950195 C-13.89017731 146.81644283 -12.05009426 140.26148419 -8.5703125 132.8515625 C-8.1678833 131.95896729 -7.7654541 131.06637207 -7.35083008 130.14672852 C-6.50772741 128.27991681 -5.65728674 126.41640302 -4.79980469 124.55615234 C-3.51303514 121.73800059 -2.27382357 118.90324199 -1.046875 116.05859375 C-0.26350045 114.26020767 0.52033674 112.46202303 1.3046875 110.6640625 C1.8450061 109.40650146 1.8450061 109.40650146 2.39624023 108.12353516 C4.23190327 103.99254851 5.80376513 100.5396392 9.4921875 97.7265625 C12.80342382 97.24367387 14.7887365 97.43037261 17.8671875 98.7265625 C19.95147679 101.29184162 19.8382577 103.272514 19.76638794 106.4992981 C19.28947106 110.37317949 17.66512545 113.59363617 15.95703125 117.06640625 C15.22304712 118.63985262 14.48933134 120.21342419 13.75585938 121.78710938 C12.59487321 124.23011494 11.42702518 126.6695865 10.25268555 129.10620117 C9.11510399 131.48064848 8.00398069 133.86621388 6.89453125 136.25390625 C6.5393895 136.9698143 6.18424774 137.68572235 5.81834412 138.42332458 C3.38940822 143.68624169 2.97406076 148.07747363 4.4921875 153.7265625 C6.69266116 156.41603031 8.02320664 156.64673597 11.4296875 157.2265625 C15.61377142 156.54344676 16.74655606 154.92760296 19.4921875 151.7265625 C20.96699444 149.16680299 22.10980213 146.503881 23.25 143.78125 C23.59054916 142.99576782 23.93109833 142.21028564 24.28196716 141.40100098 C25.40453203 138.80570702 26.51060167 136.20370473 27.6171875 133.6015625 C28.41004656 131.76195859 29.20426155 129.92293855 29.99975586 128.08447266 C31.24204586 125.21247544 32.48324495 122.34004629 33.72001648 119.46566772 C37.70462131 110.20517551 41.78132515 100.9866653 45.87088013 91.77215576 C47.84223577 87.32490429 49.80313248 82.87304277 51.765625 78.421875 C54.57011277 72.0615689 57.39086764 65.70890866 60.23066711 59.36428833 C61.83959067 55.76389579 63.43814174 52.15895742 65.03463745 48.55303955 C65.79002694 46.85333771 66.54996388 45.15564863 67.31472778 43.46014404 C68.36888345 41.12175638 69.40682918 38.77678915 70.44140625 36.4296875 C70.75288605 35.74937469 71.06436584 35.06906189 71.38528442 34.36813354 C73.28581148 29.99896666 73.95386485 26.47587147 73.4921875 21.7265625 C71.62510245 19.36158811 70.17157319 18.06625535 67.4921875 16.7265625 C64.80330146 16.61257808 62.13971765 16.55872588 59.44995117 16.54956055 C58.61888351 16.54298935 57.78781586 16.53641815 56.93156433 16.52964783 C54.17442744 16.50989684 51.41734506 16.49824837 48.66015625 16.48828125 C47.24906806 16.48216796 47.24906806 16.48216796 45.80947304 16.47593117 C40.83058516 16.45506294 35.85172491 16.44076437 30.87280273 16.43139648 C25.72775446 16.42032924 20.58313835 16.38592787 15.43824291 16.34622478 C11.48427013 16.32009095 7.53040082 16.31170753 3.57634926 16.30811501 C1.67972202 16.30324083 -0.21690035 16.29160326 -2.11344337 16.27307701 C-4.76844233 16.24875367 -7.42231654 16.24963795 -10.07739258 16.2565918 C-10.86043762 16.24378174 -11.64348267 16.23097168 -12.45025635 16.21777344 C-16.18429585 16.25340906 -18.29913457 16.59250485 -21.47221375 18.63093567 C-25.51110071 22.78892598 -24.72669921 27.02034284 -24.7578125 32.5390625 C-24.7784375 33.44205078 -24.7990625 34.34503906 -24.8203125 35.27539062 C-24.84937376 40.21943798 -24.82426993 43.7580831 -21.5078125 47.7265625 C-19.04829794 48.95631978 -17.72524626 48.74124761 -15.0078125 48.4765625 C-14.21375 48.40953125 -13.4196875 48.3425 -12.6015625 48.2734375 C-10.12645412 47.87479089 -10.12645412 47.87479089 -8.5078125 44.7265625 C-8.1984375 43.5715625 -7.8890625 42.4165625 -7.5703125 41.2265625 C-6.54175801 37.83838301 -6.2118741 36.77987857 -3.5078125 34.7265625 C-1.3896637 34.33888245 -1.3896637 34.33888245 1.08374023 34.32250977 C2.01157822 34.30982559 2.9394162 34.29714142 3.89537048 34.28407288 C5.39542381 34.28847633 5.39542381 34.28847633 6.92578125 34.29296875 C8.47000511 34.28510597 8.47000511 34.28510597 10.04542542 34.27708435 C12.22338967 34.27065876 14.4013886 34.27200805 16.5793457 34.28051758 C19.91355175 34.28902135 23.2460417 34.26028242 26.58007812 34.22851562 C28.69531199 34.22690341 30.81054888 34.22748153 32.92578125 34.23046875 C33.92379257 34.21923477 34.92180389 34.20800079 35.95005798 34.19642639 C39.91503171 34.23637872 42.69241233 34.29523033 46.21508789 36.19506836 C48.48989229 40.70423426 47.33817583 45.11745952 45.82550049 49.78268433 C45.02372832 51.81056832 44.14397466 53.77939724 43.21875 55.75390625 C42.73213394 56.82639366 42.73213394 56.82639366 42.23568726 57.92054749 C41.55423115 59.41477953 40.86654476 60.90618492 40.17285156 62.39477539 C39.11168568 64.67588938 38.07417047 66.96672752 37.0390625 69.25976562 C36.37115583 70.71677195 35.70193173 72.17317524 35.03125 73.62890625 C34.72176422 74.31218491 34.41227844 74.99546356 34.09341431 75.69944763 C32.51696086 79.05293425 31.64659046 80.62362719 28.4921875 82.7265625 C24.8809934 82.59759128 22.42091735 82.42310989 19.4921875 80.2265625 C17.34996813 74.87101408 19.17449354 69.0407084 21.33984375 63.91015625 C22.06289483 62.32110647 22.80398085 60.74023559 23.5546875 59.1640625 C25.50375 54.9875 25.50375 54.9875 27.4921875 50.7265625 C16.6021875 50.2315625 16.6021875 50.2315625 5.4921875 49.7265625 C5.1621875 51.0465625 4.8321875 52.3665625 4.4921875 53.7265625 C0.91044614 59.55968415 -3.9113132 63.02456497 -10.5078125 64.7265625 C-17.89230267 65.6702984 -24.46281688 65.35150527 -30.5078125 60.7265625 C-36.68063572 55.21333531 -39.90239253 49.25823594 -40.80737305 40.98950195 C-40.94471702 38.06224918 -40.96649023 35.15679079 -40.9453125 32.2265625 C-40.96529297 31.24558594 -40.98527344 30.26460938 -41.00585938 29.25390625 C-40.99975352 20.08291447 -38.51190272 13.65457042 -32.5078125 6.7265625 C-22.73304178 -0.83562164 -11.69960462 -0.12231573 0 0 Z " fill="#040404" transform="translate(65.5078125,228.2734375)"/>
<path d="M0 0 C0.81339844 -0.01933594 1.62679687 -0.03867188 2.46484375 -0.05859375 C6.25756658 0.66573076 8.11821274 1.89695718 11.0625 4.4375 C13.16675051 7.67114435 14.80350412 11.07236378 16.4375 14.5625 C16.88738281 15.48160156 17.33726562 16.40070313 17.80078125 17.34765625 C21.0625 24.09911664 21.0625 24.09911664 21.0625 26.4375 C21.72258057 26.50743164 22.38266113 26.57736328 23.06274414 26.64941406 C26.08553902 26.97906751 29.10501441 27.33306733 32.125 27.6875 C33.16333984 27.79707031 34.20167969 27.90664062 35.27148438 28.01953125 C41.48496473 28.76909396 45.94746496 29.76106856 51.0625 33.4375 C54.04969005 37.77374363 54.62044988 41.2299678 54.0625 46.4375 C51.56491233 53.08521454 46.43359447 57.03088783 41.16015625 61.51953125 C37.28084294 65.04713901 37.28084294 65.04713901 35.79223633 69.89770508 C36.03589751 72.48051359 36.4811819 74.9105877 37.0625 77.4375 C37.26230469 78.68917969 37.46210938 79.94085938 37.66796875 81.23046875 C37.86003906 82.35066406 38.05210937 83.47085938 38.25 84.625 C39.52682738 93.61152554 39.52682738 93.61152554 37.0625 98.4375 C33.45083354 102.39313469 30.44633648 103.98619313 25.28515625 104.6875 C18.88495631 103.96761811 12.76254111 99.79849666 7.22460938 96.69140625 C4.38065351 95.19525189 2.32046982 94.43343214 -0.91015625 94.484375 C-5.37792532 95.89100165 -9.1828543 98.1738513 -13.1953125 100.5546875 C-18.36168244 103.47945065 -23.3532968 105.32633622 -29.36328125 103.8359375 C-29.98589844 103.49820313 -30.60851562 103.16046875 -31.25 102.8125 C-31.88550781 102.49023438 -32.52101563 102.16796875 -33.17578125 101.8359375 C-36.32140006 99.33897179 -37.77221993 96.67798914 -38.30078125 92.7109375 C-38.19444475 86.64157699 -37.68180662 80.94289256 -36.375 75.0078125 C-35.8452881 71.89575509 -35.47057879 69.58921815 -35.9375 66.4375 C-37.73542558 64.07867015 -39.91213393 62.26301789 -42.1875 60.375 C-53.53367932 50.63723511 -53.53367932 50.63723511 -54.25 43.1875 C-53.8888243 38.85339162 -52.92015742 35.65940801 -49.9375 32.4375 C-44.45923036 28.8001424 -38.43822825 28.46844721 -32.0625 27.75 C-30.99257813 27.62044922 -29.92265625 27.49089844 -28.8203125 27.35742188 C-26.1937245 27.04082421 -23.5663624 26.73451243 -20.9375 26.4375 C-20.69644531 25.62667969 -20.45539063 24.81585938 -20.20703125 23.98046875 C-18.67350239 19.70074359 -16.72583974 15.7745839 -14.625 11.75 C-14.24666016 10.99138672 -13.86832031 10.23277344 -13.47851562 9.45117188 C-10.31096277 3.37868898 -7.2514978 0.01145576 0 0 Z " fill="#010100" transform="translate(381.9375,83.5625)"/>
<path d="M0 0 C0.825 -0.00773437 1.65 -0.01546875 2.5 -0.0234375 C5.63796107 0.47667505 7.40214285 1.54738074 10 3.375 C11.57739258 5.61157227 11.57739258 5.61157227 12.89453125 8.19140625 C13.61479492 9.58456055 13.61479492 9.58456055 14.34960938 11.00585938 C15.07374023 12.45702148 15.07374023 12.45702148 15.8125 13.9375 C16.56563477 15.39446289 16.56563477 15.39446289 17.33398438 16.88085938 C21 24.05826956 21 24.05826956 21 26.375 C21.66008057 26.44493164 22.32016113 26.51486328 23.00024414 26.58691406 C26.02303902 26.91656751 29.04251441 27.27056733 32.0625 27.625 C33.10083984 27.73457031 34.13917969 27.84414062 35.20898438 27.95703125 C41.42246473 28.70659396 45.88496496 29.69856856 51 33.375 C53.98183486 37.70346996 54.63850079 41.17577929 54 46.375 C50.85114255 53.76796967 44.73853361 60.13187983 37.875 64.25 C35.74840848 66.21196821 35.74840848 66.21196821 35.890625 68.84375 C36.20359271 72.72454954 36.83077588 76.49127404 37.5625 80.3125 C38.47464642 86.69752491 39.03552933 92.91561784 36.5 98.9375 C32.79199287 102.55280695 29.25823327 104.35583392 24.0078125 104.38671875 C17.88426041 103.42774738 12.63720814 100.20052848 7.40405273 97.03198242 C4.50246279 95.34897616 2.42165356 94.37333119 -0.9609375 94.38671875 C-5.59563245 95.89388819 -9.72089546 98.16862721 -13.99023438 100.4921875 C-19.62742781 103.45401109 -24.34385525 105.18534925 -30.6875 103.25 C-34.22618307 101.24697185 -35.93860343 99.86351728 -38 96.375 C-39.29464326 90.60001828 -38.64069902 85.93464058 -37.5 80.25 C-37.18936779 78.68657011 -36.88702557 77.12146599 -36.59375 75.5546875 C-36.45646484 74.87132324 -36.31917969 74.18795898 -36.17773438 73.48388672 C-35.87947593 69.94493559 -36.24402578 67.34163482 -38.45874023 64.50976562 C-39.06919189 63.93935547 -39.67964355 63.36894531 -40.30859375 62.78125 C-40.97310547 62.14316406 -41.63761719 61.50507813 -42.32226562 60.84765625 C-43.02029297 60.19667969 -43.71832031 59.54570312 -44.4375 58.875 C-53.64894574 50.23659684 -53.64894574 50.23659684 -54.3125 42.9375 C-53.90932373 38.34129049 -52.7356865 35.04424874 -49.3671875 31.8046875 C-46.19433512 29.88841032 -42.97758125 29.34467842 -39.375 28.75 C-38.31345703 28.56280396 -38.31345703 28.56280396 -37.23046875 28.37182617 C-31.84440869 27.44778331 -26.45336664 26.75516258 -21 26.375 C-20.75894531 25.56417969 -20.51789063 24.75335938 -20.26953125 23.91796875 C-18.73600239 19.63824359 -16.78833974 15.7120839 -14.6875 11.6875 C-14.30916016 10.92888672 -13.93082031 10.17027344 -13.54101562 9.38867188 C-10.35152495 3.27413222 -7.3030064 -0.06846569 0 0 Z " fill="#010100" transform="translate(130,83.625)"/>
<path d="M0 0 C0.66 0 1.32 0 2 0 C2.73319458 1.51352051 2.73319458 1.51352051 3.48120117 3.05761719 C5.3046323 6.81339764 7.1441462 10.56110882 8.98852539 14.30664062 C9.78327527 15.92624087 10.5736964 17.54797298 11.35961914 19.171875 C12.49263604 21.51100667 13.64120086 23.84193021 14.79296875 26.171875 C15.31204048 27.25647003 15.31204048 27.25647003 15.84159851 28.36297607 C18.49454746 33.67241035 21.17537746 36.82491385 26.81103516 39.16943359 C30.52168175 40.1358721 34.23128003 40.76208373 38.0234375 41.2890625 C38.76961334 41.39721283 39.51578918 41.50536316 40.28457642 41.61679077 C42.64734039 41.95804415 45.01111119 42.29163724 47.375 42.625 C48.98574995 42.85626392 50.59642792 43.08802967 52.20703125 43.3203125 C56.13721225 43.88601607 60.06831408 44.44485635 64 45 C62.45196117 48.70336061 60.19168061 51.03888254 57.3515625 53.84375 C56.42859375 54.76027344 55.505625 55.67679688 54.5546875 56.62109375 C53.57824882 57.58085515 52.60168518 58.54048944 51.625 59.5 C50.65578861 60.45916942 49.68703384 61.41880048 48.71875 62.37890625 C46.93146054 64.14877088 45.14212526 65.91657363 43.35009766 67.68164062 C42.57456543 68.44669922 41.7990332 69.21175781 41 70 C40.27989746 70.67740234 39.55979492 71.35480469 38.81787109 72.05273438 C35.21074007 75.91661795 34.65215478 79.02447115 34.7734375 84.31542969 C35.22471299 89.66265522 36.39628673 94.88087049 37.5 100.125 C40.35924563 113.80301288 40.35924563 113.80301288 40 120 C35.97838656 118.7466776 32.34419085 117.2657196 28.62890625 115.28515625 C27.64212891 114.76373047 26.65535156 114.24230469 25.63867188 113.70507812 C24.62353516 113.16302734 23.60839844 112.62097656 22.5625 112.0625 C18.72030374 110.01773654 14.87171621 107.98837437 11 106 C10.3282373 105.65437012 9.65647461 105.30874023 8.96435547 104.95263672 C4.82914585 102.98717147 1.54274063 102.48126132 -3 103 C-5.61616707 104.04589686 -7.9198659 105.1047661 -10.375 106.4375 C-11.05256348 106.79005859 -11.73012695 107.14261719 -12.42822266 107.50585938 C-14.62743427 108.65502417 -16.81435211 109.82526161 -19 111 C-21.36321071 112.26216935 -23.72712377 113.52298373 -26.09228516 114.78149414 C-27.59498563 115.58363083 -29.09476004 116.39127735 -30.59130859 117.20483398 C-35.78241921 120 -35.78241921 120 -38 120 C-37.67767583 111.16831772 -36.31445778 102.84999429 -34.37207031 94.24511719 C-33.04298483 88.13132396 -31.74286793 81.68678154 -33.8125 75.6171875 C-36.12622899 72.22270353 -38.50494397 69.42287965 -41.65625 66.77734375 C-46.13031563 62.93218753 -50.3278794 58.85575752 -54.5 54.6875 C-55.22703125 53.97271484 -55.9540625 53.25792969 -56.703125 52.52148438 C-57.38890625 51.83763672 -58.0746875 51.15378906 -58.78125 50.44921875 C-59.40064453 49.83393311 -60.02003906 49.21864746 -60.65820312 48.5847168 C-62 47 -62 47 -62 45 C-61.21625 44.814375 -60.4325 44.62875 -59.625 44.4375 C-56.60623658 43.16038373 -56.60623658 43.16038373 -55.6875 39.375 C-55.460625 38.26125 -55.23375 37.1475 -55 36 C-40.52123552 33.2972973 -40.52123552 33.2972973 -35 34 C-34 35.66666667 -33 37.33333333 -32 39 C-27.30080207 39.69332428 -25.29523047 39.65189275 -21.04296875 37.51171875 C-17.09055332 34.24932707 -15.34608977 30.80137633 -13.125 26.25 C-12.70299316 25.41686279 -12.28098633 24.58372559 -11.84619141 23.7253418 C-10.54938597 21.15731615 -9.27415378 18.57932445 -8 16 C-7.19420145 14.39638427 -6.38696883 12.79348814 -5.578125 11.19140625 C-3.70229399 7.46894003 -1.84557752 3.73755224 0 0 Z " fill="#FDE86D" transform="translate(255,22)"/>
<path d="M0 0 C0.82946136 -0.0065712 1.65892273 -0.0131424 2.51351929 -0.01991272 C5.26584967 -0.03966591 8.0181254 -0.05131348 10.77050781 -0.0612793 C11.70998512 -0.06535482 12.64946243 -0.06943035 13.61740875 -0.07362938 C18.59096559 -0.09449985 23.56449476 -0.1087967 28.53808594 -0.11816406 C33.67406833 -0.12922381 38.8096169 -0.1636159 43.94544601 -0.20333576 C47.8951701 -0.22949117 51.84479074 -0.237855 55.79459381 -0.24144554 C57.68760352 -0.24631516 59.58060849 -0.25793984 61.47353363 -0.27648354 C64.12593343 -0.30084969 66.77720987 -0.29991458 69.4296875 -0.29296875 C70.20913727 -0.30577881 70.98858704 -0.31858887 71.79165649 -0.33178711 C76.94849428 -0.28266589 79.87553077 0.7804898 83.97363281 4.17700195 C85.74442763 7.7185916 85.51212657 11.42906494 84.35577393 15.18255615 C83.44995854 17.43002795 82.46821545 19.62649651 81.45019531 21.82543945 C81.07764114 22.65795227 80.70508698 23.49046509 80.32124329 24.34820557 C79.09209495 27.08825083 77.84524643 29.81986437 76.59863281 32.55200195 C75.72944036 34.48283434 74.86170537 36.41432343 73.99536133 38.34643555 C72.20568649 42.33577873 70.41054879 46.32259452 68.61181641 50.30786133 C65.02111772 58.27832622 61.51270904 66.28444328 58.009552 74.29367065 C56.91124768 76.80173963 55.80912695 79.30809708 54.70581055 81.81396484 C51.19320063 89.7964826 47.70343539 97.7875662 44.27012634 105.80456543 C42.6357019 109.61773683 40.99127237 113.42655481 39.34597778 117.23504639 C38.56317055 119.05486906 37.78530143 120.87682475 37.01266479 122.70098877 C35.94293876 125.22582434 34.85664255 127.74291551 33.76660156 130.2590332 C33.30051483 131.37788155 33.30051483 131.37788155 32.82501221 132.51933289 C30.91461837 136.87429973 29.13003448 139.57102052 24.97363281 142.17700195 C21.26107481 142.79576162 19.51177179 142.45205076 16.16113281 140.73950195 C13.07347247 137.12252841 12.85362865 133.86232325 12.97363281 129.17700195 C13.73791422 126.15385302 14.99346551 123.49126326 16.37597656 120.7043457 C16.73252823 119.936996 17.0890799 119.1696463 17.45643616 118.37904358 C18.58819878 115.9476041 19.74674513 113.53046752 20.91113281 111.11450195 C22.06976575 108.69414455 23.22151065 106.2714354 24.3551178 103.83924866 C25.05784617 102.33280545 25.77486936 100.8329169 26.50852966 99.34129333 C28.82537679 94.39272247 29.5940224 90.65074415 28.97363281 85.17700195 C27.98363281 84.51700195 26.99363281 83.85700195 25.97363281 83.17700195 C27.80675951 77.17767821 30.04685033 71.72779632 32.97363281 66.17700195 C33.90175781 66.19762695 34.82988281 66.21825195 35.78613281 66.23950195 C38.99649293 66.33469799 38.99649293 66.33469799 41.97363281 65.17700195 C42.72156341 63.20595039 43.37273918 61.19773729 43.97363281 59.17700195 C44.96170215 56.85373132 45.97682325 54.54185651 47.01269531 52.23950195 C47.59913337 50.91941171 48.18505544 49.59909214 48.77050781 48.27856445 C49.68498135 46.22247395 50.60266667 44.16807497 51.52929688 42.11743164 C52.42973663 40.12080436 53.31596542 38.11835056 54.20019531 36.11450195 C54.73209473 34.92727539 55.26399414 33.74004883 55.81201172 32.5168457 C57.00468417 29.08772439 57.44439422 26.76982242 56.97363281 23.17700195 C55.37957385 21.05062463 54.48681907 20.27063184 51.84875488 19.7893219 C50.61989563 19.78121742 50.61989563 19.78121742 49.36621094 19.77294922 C48.43514526 19.76026505 47.50407959 19.74758087 46.5447998 19.73451233 C45.5416272 19.73744797 44.53845459 19.74038361 43.50488281 19.7434082 C42.47302856 19.73816635 41.44117432 19.7329245 40.37805176 19.7275238 C38.19589132 19.72109877 36.01369627 19.72244679 33.83154297 19.73095703 C30.48635447 19.73946958 27.14287136 19.71070692 23.79785156 19.67895508 C21.67936249 19.67734312 19.56087039 19.67792049 17.44238281 19.6809082 C16.43921021 19.66967422 15.4360376 19.65844025 14.40246582 19.64686584 C13.47140015 19.6562468 12.54033447 19.66562775 11.58105469 19.67529297 C10.35219543 19.67554222 10.35219543 19.67554222 9.09851074 19.67579651 C6.81901909 20.01014366 6.81901909 20.01014366 5.24035645 21.98570251 C3.76826972 24.29665125 3.76826972 24.29665125 3.09863281 27.73950195 C1.97363281 31.17700195 1.97363281 31.17700195 -0.27636719 33.11450195 C-3.5663277 34.38562306 -5.53183721 34.75942362 -9.02636719 34.17700195 C-14.81977226 29.28479322 -14.81977226 29.28479322 -15.21923828 25.20922852 C-15.30662809 22.61507525 -15.3609303 20.02231486 -15.40136719 17.42700195 C-15.45744141 16.08508789 -15.45744141 16.08508789 -15.51464844 14.71606445 C-15.57392015 10.25092881 -15.51628854 7.15149468 -12.62792969 3.59887695 C-8.49195565 -0.25142921 -5.41817903 0.01849917 0 0 Z " fill="#F8AADB" transform="translate(55.0263671875,243.822998046875)"/>
<path d="M0 0 C1.24660149 -0.00744736 1.24660149 -0.00744736 2.51838684 -0.01504517 C5.27553121 -0.0296838 8.03261803 -0.03647196 10.78979492 -0.04199219 C12.70309959 -0.04774268 14.61640424 -0.05350042 16.52970886 -0.05926514 C20.54552479 -0.06978027 24.56132067 -0.07561944 28.57714844 -0.07910156 C33.7221177 -0.08458433 38.86682205 -0.10860557 44.01170826 -0.13707352 C47.96568067 -0.15570166 51.91958933 -0.16090561 55.87360191 -0.16243744 C57.77021418 -0.1654646 59.6668253 -0.17349527 61.56339455 -0.18662262 C64.21824882 -0.20368518 66.87245683 -0.2018023 69.52734375 -0.1953125 C70.31038879 -0.20452728 71.09343384 -0.21374207 71.90020752 -0.22323608 C76.43431329 -0.18853141 79.37518826 0.31770898 82.95776367 3.16113281 C85.26418159 6.62075969 85.18257398 8.39045179 84.61791992 12.42578125 C83.39043229 17.51186538 81.10787201 22.14103886 78.8734436 26.85339355 C77.25289659 30.27390625 75.67788032 33.71549701 74.09448242 37.15332031 C73.75720627 37.88240601 73.41993011 38.6114917 73.07243347 39.3626709 C69.5373673 47.02240653 66.17056984 54.75292119 62.8175354 62.49368286 C61.04560086 66.58389456 59.26726522 70.67132063 57.48901367 74.75878906 C57.12669144 75.59178024 56.7643692 76.42477142 56.3910675 77.28300476 C52.2907713 86.70359732 48.16283425 96.11197343 44.01913452 105.5135498 C43.19773776 107.3782166 42.37741481 109.24335686 41.55825806 111.10900879 C39.05573237 116.80723436 36.53081781 122.49437436 33.95776367 128.16113281 C33.66174255 128.81519104 33.36572144 129.46924927 33.06072998 130.14312744 C32.27512445 131.86079771 31.46692489 133.56808456 30.65698242 135.27441406 C30.22603271 136.18618408 29.79508301 137.0979541 29.35107422 138.03735352 C27.75354578 140.47241571 26.69758045 141.238072 23.95776367 142.16113281 C19.79042321 142.08671602 17.69132209 141.80064528 14.52026367 139.03613281 C12.5538882 135.41800195 12.68275005 133.25081681 12.95776367 129.16113281 C13.95727539 126.07958984 13.95727539 126.07958984 15.38745117 122.91894531 C15.64907043 122.33049835 15.9106897 121.74205139 16.18023682 121.13577271 C17.05267967 119.18039455 17.94285449 117.23361607 18.83276367 115.28613281 C19.46030403 113.88669512 20.08640677 112.48661202 20.71118164 111.0859375 C22.06338514 108.05744762 23.42175389 105.0318267 24.78393555 102.0078125 C28.60820096 93.50131227 32.33873164 84.95315912 36.08276367 76.41113281 C36.84936376 74.66292253 37.61596532 72.91471289 38.38256836 71.16650391 C39.87206769 67.76927046 41.36050761 64.37157527 42.84838867 60.97363281 C44.20415295 57.87828059 45.56339484 54.78450303 46.92651367 51.69238281 C48.39096701 48.36982896 49.84694765 45.0437088 51.29559326 41.7142334 C52.05981656 39.9636957 52.83311638 38.21712924 53.60668945 36.47070312 C54.05512207 35.43526367 54.50355469 34.39982422 54.96557617 33.33300781 C55.35374512 32.44709961 55.74191406 31.56119141 56.1418457 30.6484375 C57.03622159 27.92195589 57.3334476 26.00786454 56.95776367 23.16113281 C55.35752495 21.05157761 54.46566846 20.25219066 51.83288574 19.78018188 C51.01364624 19.7777951 50.19440674 19.77540833 49.3503418 19.77294922 C47.95374329 19.7587645 47.95374329 19.7587645 46.52893066 19.74429321 C45.02417175 19.75340225 45.02417175 19.75340225 43.48901367 19.76269531 C42.45715942 19.75982513 41.42530518 19.75695496 40.36218262 19.7539978 C38.18000744 19.7519558 35.99781402 19.75749511 33.81567383 19.77001953 C30.47069467 19.78607076 27.12692389 19.7701749 23.78198242 19.75097656 C21.66349016 19.75295897 19.54499866 19.75680259 17.42651367 19.76269531 C16.42334106 19.75662262 15.42016846 19.75054993 14.38659668 19.74429321 C13.45553101 19.75374969 12.52446533 19.76320618 11.56518555 19.77294922 C10.74594604 19.775336 9.92670654 19.77772278 9.0826416 19.78018188 C6.42198225 20.25718841 5.56511582 21.01594424 3.95776367 23.16113281 C3.66901367 24.29550781 3.38026367 25.42988281 3.08276367 26.59863281 C1.77081108 30.75314937 0.71528132 32.0261796 -3.04223633 34.16113281 C-6.96759642 34.81535949 -8.49380558 34.51456596 -11.85473633 32.34863281 C-16.16723545 28.03613369 -15.3319303 22.52490185 -15.41723633 16.78613281 C-15.45461914 15.83996094 -15.49200195 14.89378906 -15.53051758 13.91894531 C-15.61914952 6.90717365 -15.61914952 6.90717365 -12.64379883 3.05957031 C-8.35001853 -0.07372882 -5.17052002 0.00732452 0 0 Z " fill="#F8AADC" transform="translate(221.042236328125,243.8388671875)"/>
<path d="M0 0 C0.83921494 -0.00817749 1.67842987 -0.01635498 2.54307556 -0.02478027 C5.32786339 -0.04964714 8.11260017 -0.0661544 10.89746094 -0.08056641 C12.32322575 -0.08855192 12.32322575 -0.08855192 13.77779388 -0.09669876 C18.80969944 -0.12343715 23.84158014 -0.14280903 28.87353516 -0.15722656 C34.07014767 -0.17386774 39.26612517 -0.21863911 44.46249771 -0.26959801 C48.45854415 -0.30326346 52.45443982 -0.31480328 56.45061493 -0.32045364 C58.36597288 -0.32716905 60.2813208 -0.34239865 62.19654083 -0.36634445 C64.88025021 -0.39798147 67.56224667 -0.3980351 70.24609375 -0.390625 C71.03489426 -0.40703033 71.82369476 -0.42343567 72.63639832 -0.44033813 C76.60871126 -0.3955265 79.18106062 0.01222159 82.3835144 2.46481323 C84.88183594 5.19287109 84.88183594 5.19287109 85.59933472 7.3236084 C85.28835036 13.34127375 83.69610472 18.04506174 81.13964844 23.47412109 C80.74476227 24.34846802 80.3498761 25.22281494 79.94302368 26.12365723 C78.64601454 28.98718145 77.32629829 31.83963314 76.00683594 34.69287109 C75.09120147 36.70633219 74.17749192 38.72066968 73.265625 40.73583984 C71.39210592 44.87403607 69.51179647 49.00904029 67.62695312 53.14208984 C63.92213431 61.28550244 60.32196916 69.47407643 56.73638916 77.67053223 C55.63442547 80.18695768 54.52793567 82.70135011 53.42041016 85.21533203 C49.68099423 93.71571145 46.0068262 102.2392203 42.41308594 110.80224609 C41.33179129 113.3621804 40.24936838 115.92163477 39.16662598 118.48095703 C38.15934539 120.87742215 37.17026844 123.28085262 36.18164062 125.68505859 C35.56696282 127.14116044 34.95144963 128.59691002 34.33496094 130.05224609 C34.0731604 130.70545837 33.81135986 131.35867065 33.54162598 132.03167725 C31.46672975 136.8508681 29.13062285 139.2891429 24.88183594 142.19287109 C20.9132293 142.26129535 18.78017806 141.80752623 15.50683594 139.56787109 C13.31923061 136.37060176 13.11109579 134.05526621 12.88183594 130.19287109 C13.6807741 127.61679246 14.49936391 125.47696877 15.65136719 123.07568359 C15.95892944 122.39813522 16.2664917 121.72058685 16.58337402 121.02250671 C17.60499697 118.78023043 18.6498452 116.54957453 19.69433594 114.31787109 C20.42117402 112.73113218 21.14598701 111.14346426 21.86889648 109.55493164 C23.01078192 107.04661096 24.15404503 104.53900706 25.30354309 102.03416443 C29.71882349 92.40983452 33.95701662 82.70903284 38.19433594 73.00537109 C39.6958908 69.56741127 41.19826224 66.1298118 42.70214844 62.69287109 C43.06011505 61.87457321 43.41808167 61.05627533 43.78689575 60.21318054 C45.98221082 55.20742135 48.22196728 50.22440929 50.49902344 45.25537109 C51.02584717 44.09545654 51.5526709 42.93554199 52.09545898 41.74047852 C53.04245938 39.66184638 54.00129969 37.58854548 54.97485352 35.5222168 C57.94429832 29.07694298 57.94429832 29.07694298 56.88183594 22.19287109 C54.4287596 19.73979475 53.75792956 19.93711443 50.38793945 19.91821289 C49.45679825 19.90868088 48.52565704 19.89914886 47.56629944 19.889328 C46.55796555 19.89023941 45.54963165 19.89115082 44.51074219 19.89208984 C43.47747299 19.88780472 42.4442038 19.88351959 41.37962341 19.87910461 C39.19148492 19.87335426 37.00332731 19.87286622 34.81518555 19.87719727 C31.46142035 19.88035501 28.1085387 19.856914 24.75488281 19.83154297 C22.63183705 19.82926989 20.50878892 19.82856652 18.38574219 19.82958984 C17.37943253 19.8203801 16.37312286 19.81117035 15.33631897 19.80168152 C13.93487892 19.8110247 13.93487892 19.8110247 12.50512695 19.82055664 C11.68287125 19.81992722 10.86061554 19.81929779 10.01344299 19.81864929 C7.3444139 20.28722012 6.49160247 21.04151537 4.88183594 23.19287109 C4.59308594 24.32724609 4.30433594 25.46162109 4.00683594 26.63037109 C2.68729925 30.80890393 1.68716207 32.07880102 -2.11816406 34.19287109 C-6.31855094 34.86793327 -8.25868588 34.77461397 -11.80175781 32.37646484 C-15.24957662 27.63789431 -14.81258223 23.40457134 -14.68066406 17.69287109 C-14.69162109 16.66033203 -14.70257813 15.62779297 -14.71386719 14.56396484 C-14.66930274 9.95897175 -14.62617389 7.03228201 -12.20800781 3.03662109 C-8.35777851 -0.36021672 -4.91490934 0.02627347 0 0 Z " fill="#F8AADC" transform="translate(386.1181640625,243.80712890625)"/>
<path d="M0 0 C37.0940625 -0.0309375 37.0940625 -0.0309375 74.9375 -0.0625 C86.67042603 -0.07615601 86.67042603 -0.07615601 98.64038086 -0.09008789 C108.15734863 -0.09460449 108.15734863 -0.09460449 112.60597229 -0.09544373 C115.72760217 -0.0963792 118.84921522 -0.10014181 121.97084045 -0.10557556 C125.94512222 -0.11240254 129.9193793 -0.11449714 133.89366639 -0.11307228 C135.35694076 -0.1133705 136.82021594 -0.11537231 138.28348529 -0.11921513 C140.25070585 -0.12414393 142.21793984 -0.12240373 144.18516541 -0.12025452 C145.84301009 -0.12163721 145.84301009 -0.12163721 147.53434658 -0.12304783 C150 0 150 0 151 1 C151.09994659 3.50183834 151.1344141 5.97613253 151.12698364 8.47851562 C151.12854363 9.27087364 151.13010362 10.06323166 151.13171089 10.87960052 C151.1357241 13.55516884 151.13253001 16.23068118 151.12939453 18.90625 C151.13074843 20.81608107 151.1325283 22.72591188 151.13470459 24.63574219 C151.13928028 29.83807001 151.13748881 35.04037811 151.1343255 40.2427063 C151.1318026 45.67417455 151.13413924 51.10564106 151.13571167 56.53710938 C151.13753357 65.66015935 151.13512652 74.78320125 151.13037109 83.90625 C151.12492844 94.47004596 151.12669108 105.03382262 151.1321975 115.5976181 C151.13672805 124.64980993 151.13737946 133.70199594 151.13475883 142.75418854 C151.13319573 148.1684043 151.13300318 153.58261098 151.13629532 158.99682617 C151.13917319 164.08566191 151.1371999 169.17447264 151.13140106 174.26330566 C151.13007301 176.13667764 151.13046834 178.01005169 151.13266373 179.88342285 C151.13537347 182.42947227 151.13199628 184.97544023 151.12698364 187.52148438 C151.12921436 188.27273338 151.13144509 189.02398239 151.13374341 189.79799652 C151.11414985 194.88585015 151.11414985 194.88585015 150 196 C144.39 196 138.78 196 133 196 C132.67 152.77 132.34 109.54 132 65 C131.01 65.495 131.01 65.495 130 66 C131.04594437 62.6191697 132.23776432 59.39315391 133.7265625 56.1875 C137.86908203 47.16257167 140.86718533 39.12344702 139 29 C137.55868181 25.30757707 135.83035115 21.83035115 133 19 C133 13.06 133 7.12 133 1 C89.44 1 45.88 1 1 1 C1 65.35 1 129.7 1 196 C0.67 196 0.34 196 0 196 C0 131.32 0 66.64 0 0 Z " fill="#E0E8EC" transform="translate(346,217)"/>
<path d="M0 0 C49.5 0 99 0 150 0 C150 64.68 150 129.36 150 196 C144.06 196 138.12 196 132 196 C131.9845388 193.52943367 131.9845388 193.52943367 131.96876526 191.00895691 C131.8711581 175.51375057 131.76849484 160.01858645 131.66066074 144.52344799 C131.60534795 136.55658119 131.55186913 128.58970992 131.50268555 120.62280273 C131.45981991 113.68004592 131.41353589 106.73732182 131.36312145 99.79461557 C131.3365397 96.11743819 131.31168709 92.44026722 131.29092598 88.76305199 C131.26770367 84.66124011 131.23685068 80.55952011 131.20532227 76.45776367 C131.1995668 75.23425201 131.19381134 74.01074036 131.18788147 72.75015259 C131.17319824 71.0779641 131.17319824 71.0779641 131.15821838 69.37199402 C131.15176583 68.40134601 131.14531328 67.43069799 131.1386652 66.43063641 C131.09829547 63.85875154 131.09829547 63.85875154 130 61 C130.62084961 59.21337891 130.62084961 59.21337891 131.65234375 57.2265625 C132.0174707 56.49034668 132.38259766 55.75413086 132.75878906 54.99560547 C133.34225098 53.82215576 133.34225098 53.82215576 133.9375 52.625 C137.85867235 44.26865021 140.24884436 36.703493 137.18359375 27.56640625 C135.50806345 23.9853709 133.38968302 21.18624403 131 18 C131.33 12.39 131.66 6.78 132 1 C88.44 1 44.88 1 0 1 C0 0.67 0 0.34 0 0 Z " fill="#E0E8EB" transform="translate(16,217)"/>
<path d="M0 0 C49.5 0 99 0 150 0 C150 64.68 150 129.36 150 196 C144.39 196 138.78 196 133 196 C132.9845388 193.50731064 132.9845388 193.50731064 132.96876526 190.96426392 C132.87119139 175.33630076 132.76853192 159.70837978 132.66066074 144.08048439 C132.60532882 136.04520764 132.55184688 128.00992645 132.50268555 119.97460938 C132.45984332 112.97289853 132.41356524 105.97122038 132.36312145 98.96956003 C132.33652081 95.2605564 132.31166775 91.55155926 132.29092598 87.84251785 C132.26773485 83.7069745 132.23687458 79.57152316 132.20532227 75.43603516 C132.1995668 74.19957748 132.19381134 72.96311981 132.18788147 71.68919373 C132.17319824 70.006446 132.17319824 70.006446 132.15821838 68.28970337 C132.15176583 67.31075922 132.14531328 66.33181507 132.1386652 65.32320595 C132.15126521 62.97492352 132.15126521 62.97492352 131 61 C131.62084961 59.09570312 131.62084961 59.09570312 132.65234375 56.78125 C133.19858398 55.50507813 133.19858398 55.50507813 133.75585938 54.203125 C134.53153239 52.42869286 135.31514523 50.65770614 136.10742188 48.890625 C139.11686231 41.7995978 140.47572783 35.41028584 137.9765625 27.94140625 C137.30753906 26.76384766 137.30753906 26.76384766 136.625 25.5625 C136.18414062 24.75941406 135.74328125 23.95632812 135.2890625 23.12890625 C134.23711299 21.3915957 133.12658036 19.68987053 132 18 C132.33 12.39 132.66 6.78 133 1 C89.11 1 45.22 1 0 1 C0 0.67 0 0.34 0 0 Z " fill="#E4ECF0" transform="translate(181,217)"/>
<path d="M0 0 C0.66 0 1.32 0 2 0 C2.24645264 0.4940332 2.49290527 0.98806641 2.74682617 1.49707031 C3.88157589 3.75438808 5.0342892 6.00206136 6.1875 8.25 C6.57486328 9.02730469 6.96222656 9.80460937 7.36132812 10.60546875 C9.64682303 15.02535146 11.51332795 18.53479558 16 21 C19.40951752 21.86733019 22.82282614 22.3307459 26.3125 22.75 C27.24384766 22.87503906 28.17519531 23.00007813 29.13476562 23.12890625 C31.42168744 23.43382916 33.70947725 23.72367286 36 24 C36 27 36 27 33.48046875 29.5234375 C32.38994832 30.48213677 31.29192556 31.43235304 30.1875 32.375 C23.80442461 37.65701624 23.80442461 37.65701624 20.63671875 45.10546875 C20.75879037 50.11040535 21.41499962 54.76374838 22.5625 59.640625 C23.02646648 62.14272996 23.0720282 64.46100595 23 67 C21.88882813 66.4225 20.77765625 65.845 19.6328125 65.25 C8.34266109 58.96399013 8.34266109 58.96399013 -4 59 C-8.10171794 60.82976265 -12.00205254 62.98212142 -15.875 65.25 C-19 67 -19 67 -21 67 C-20.14700544 57.81669691 -20.14700544 57.81669691 -19.4375 53.875 C-18.66873673 48.82312708 -18.14259161 44.7520954 -20.4375 40.0625 C-24.0311004 35.76770928 -27.97703829 31.88960387 -32 28 C-33.00220021 27.00220506 -34.00318977 26.00317963 -35 25 C-33.46344609 23.46344609 -31.8336697 23.60297952 -29.703125 23.31640625 C-28.8265625 23.19330078 -27.95 23.07019531 -27.046875 22.94335938 C-25.19815362 22.6916131 -23.3491977 22.44158265 -21.5 22.19335938 C-14.97930517 21.44273568 -14.97930517 21.44273568 -9 19 C-7.81606215 16.77315909 -7.81606215 16.77315909 -7 14 C-5.80935075 11.55135709 -4.6054058 9.11580089 -3.375 6.6875 C-3.05015625 6.04232422 -2.7253125 5.39714844 -2.390625 4.73242188 C-1.59558044 3.15402459 -0.79804366 1.57688306 0 0 Z " fill="#FBDA3A" transform="translate(381,103)"/>
<path d="M0 0 C0.66 0 1.32 0 2 0 C3.5066972 2.7881022 5.00419804 5.58103958 6.5 8.375 C6.92925781 9.1690625 7.35851562 9.963125 7.80078125 10.78125 C8.20683594 11.54179688 8.61289063 12.30234375 9.03125 13.0859375 C9.40830078 13.7876709 9.78535156 14.4894043 10.17382812 15.21240234 C11 17 11 17 11 19 C16.65254931 21.75502403 22.88800273 22.07270705 29.046875 22.85546875 C29.9234375 22.97535156 30.8 23.09523438 31.703125 23.21875 C32.50395508 23.32123047 33.30478516 23.42371094 34.12988281 23.52929688 C34.74702148 23.68462891 35.36416016 23.83996094 36 24 C36.495 24.99 36.495 24.99 37 26 C36.50371094 26.4125 36.00742188 26.825 35.49609375 27.25 C27.1807515 34.21808236 27.1807515 34.21808236 21 43 C20.70771514 48.4559841 21.30876994 53.19687268 22.5625 58.5078125 C23.06578466 61.3747376 23.0673625 64.09499205 23 67 C21.88882813 66.4225 20.77765625 65.845 19.6328125 65.25 C8.34574274 58.9951545 8.34574274 58.9951545 -4 59 C-9.83870315 61.31672681 -15.43037454 64.10534547 -21 67 C-20.85816304 65.24967156 -20.71136571 63.49974466 -20.5625 61.75 C-20.48128906 60.77546875 -20.40007812 59.8009375 -20.31640625 58.796875 C-20.04803909 56.42464187 -19.59430589 54.30175614 -19 52 C-18.25863944 47.00754661 -18.39399209 43.19860269 -21.375 39 C-25.42195283 34.17478701 -30.22115302 30.07996422 -35 26 C-32.68968059 23.68968059 -31.99923329 23.67455869 -28.859375 23.32421875 C-28.03566406 23.21787109 -27.21195312 23.11152344 -26.36328125 23.00195312 C-24.63785847 22.79433499 -22.91126213 22.59622183 -21.18359375 22.40820312 C-15.41620304 21.64131058 -12.06728874 20.4489698 -8 16 C-6.30646179 13.32575792 -4.94508735 10.56138667 -3.625 7.6875 C-3.27050781 6.94693359 -2.91601562 6.20636719 -2.55078125 5.44335938 C-1.68747275 3.63507805 -0.84187289 1.81835997 0 0 Z " fill="#FBE66C" transform="translate(129,103)"/>
<path d="M0 0 C7.59 0.99 15.18 1.98 23 3 C21.0634607 6.87307859 19.38832708 8.84467679 16.3515625 11.84375 C15.42859375 12.76027344 14.505625 13.67679688 13.5546875 14.62109375 C12.57824882 15.58085515 11.60168518 16.54048944 10.625 17.5 C9.65578861 18.45916942 8.68703384 19.41880048 7.71875 20.37890625 C5.93146054 22.14877088 4.14212526 23.91657363 2.35009766 25.68164062 C1.57456543 26.44669922 0.7990332 27.21175781 0 28 C-0.72010254 28.67740234 -1.44020508 29.35480469 -2.18212891 30.05273438 C-5.78925993 33.91661795 -6.34784522 37.02447115 -6.2265625 42.31542969 C-5.77528701 47.66265522 -4.60371327 52.88087049 -3.5 58.125 C-0.64075437 71.80301288 -0.64075437 71.80301288 -1 78 C-9.62342921 75.38897806 -18.88099773 71.62016369 -26 66 C-27.95682815 62.12482066 -27.48243224 59.21525169 -27 55 C-27.40313479 52.36414212 -27.40313479 52.36414212 -28.0625 49.8125 C-30.25577454 38.96607201 -30.25577454 38.96607201 -27.75 35.04296875 C-25.9308163 32.90795455 -24.00902368 30.95732086 -22 29 C-21.278125 28.25492188 -20.55625 27.50984375 -19.8125 26.7421875 C-16.23541752 23.07816204 -12.57591275 19.58189271 -8.6875 16.25 C-2.43251698 10.80492514 -1.10760624 8.86084993 0 0 Z " fill="#FBDB3A" transform="translate(296,64)"/>
<path d="M0 0 C2.16210938 1.51782227 2.16210938 1.51782227 4 4 C4.39785614 6.96947063 4.5614755 9.56011341 4.53125 12.52734375 C4.5350769 13.3532753 4.53890381 14.17920685 4.54284668 15.03016663 C4.54556453 16.77427389 4.53821213 18.51842201 4.52148438 20.26245117 C4.50009841 22.92524664 4.52127438 25.58533592 4.546875 28.24804688 C4.54423117 29.94531843 4.53910503 31.64258831 4.53125 33.33984375 C4.53934692 34.13269272 4.54744385 34.92554169 4.55578613 35.74241638 C4.48926286 39.68623144 4.26363393 41.58555909 2.09179688 44.99975586 C-0.15257259 47.14589486 -0.94908858 47.68458811 -4 47.625 C-4.99 47.64433594 -4.99 47.64433594 -6 47.6640625 C-9.20269707 46.60066699 -10.20581727 44.82051219 -12 42 C-12.57634062 39.10915754 -12.56127979 36.28035361 -12.53125 33.33984375 C-12.5350769 32.51295547 -12.53890381 31.6860672 -12.54284668 30.8341217 C-12.5455607 29.09179461 -12.53823522 27.34942642 -12.52148438 25.60717773 C-12.50003841 22.9422733 -12.52131552 20.28005613 -12.546875 17.61523438 C-12.54423216 15.9192649 -12.5391081 14.22329708 -12.53125 12.52734375 C-12.53934692 11.73247055 -12.54744385 10.93759735 -12.55578613 10.11863708 C-12.49459229 6.50607441 -12.33326588 4.43146334 -10.09179688 1.52954102 C-6.32532296 -1.22453918 -4.544842 -1.18165892 0 0 Z " fill="#000000" transform="translate(260,458)"/>
<path d="M0 0 C2.93338784 2.40735353 5.41167514 5.17547305 7.9375 8 C8.95360352 9.09634766 8.95360352 9.09634766 9.99023438 10.21484375 C22.64295369 24.02001593 22.64295369 24.02001593 23.6875 29.8125 C23 33 23 33 21.4375 35.4375 C17.90550465 37.70159958 16.13858566 37.7587407 12 37 C6.84260243 33.63956969 2.80108842 28.85519428 -1.12890625 24.171875 C-2.50393041 22.57581356 -3.93790794 21.03006593 -5.40234375 19.515625 C-12.47982699 12.13625858 -12.47982699 12.13625858 -13.3125 8.1875 C-12.92507266 4.23574116 -11.86384819 2.70474552 -9 0 C-5.22841179 -1.25719607 -3.80913817 -1.22324154 0 0 Z " fill="#000000" transform="translate(357,458)"/>
<path d="M0 0 C2.4375 2.125 2.4375 2.125 4 5 C4.08138984 11.03024738 1.91192819 13.78985562 -2.078125 17.91210938 C-2.75359375 18.58048828 -3.4290625 19.24886719 -4.125 19.9375 C-5.44143111 21.27864671 -6.75653914 22.62109342 -8.0703125 23.96484375 C-9.04532715 24.95073486 -9.04532715 24.95073486 -10.04003906 25.95654297 C-12.65876212 28.68682597 -15.11090241 31.54525121 -17.55029297 34.43579102 C-19.81715874 36.88170025 -20.97865188 36.99802332 -24.375 37.3125 C-28 37 -28 37 -30.4375 35.4375 C-32.59397199 32.0734037 -32.37603344 29.94835114 -32 26 C-30.27734375 23.15625 -30.27734375 23.15625 -27.9375 20.5 C-27.11378906 19.55511719 -26.29007813 18.61023438 -25.44140625 17.63671875 C-22.92324399 14.91710351 -20.36818649 12.26642097 -17.6953125 9.69921875 C-15.14981242 7.14785346 -12.87254902 4.37845885 -10.578125 1.6015625 C-7.32908763 -1.6957279 -4.16233763 -1.18923932 0 0 Z " fill="#000000" transform="translate(164,458)"/>
<path d="M0 0 C0.66 0 1.32 0 2 0 C8 12 14 24 20 36 C-1.74989182 33.75638252 -1.74989182 33.75638252 -6.5 27.9375 C-8 25 -8 25 -8 23 C-8.99 23.33 -9.98 23.66 -11 24 C-9.39323547 18.54406329 -6.94969106 13.6697853 -4.375 8.625 C-3.95476562 7.79355469 -3.53453125 6.96210938 -3.1015625 6.10546875 C-2.07133925 4.06843641 -1.03741179 2.03337811 0 0 Z " fill="#F9D93A" transform="translate(255,22)"/>
</svg>
