<?xml version="1.0" encoding="UTF-8"?>
<svg version="1.1" xmlns="http://www.w3.org/2000/svg" width="512" height="512">
<path d="M0 0 C9.61586881 4.528161 16.6224447 14.74752343 23 23 C23.50515137 23.64517578 24.01030273 24.29035156 24.53076172 24.95507812 C56.98748591 66.64542873 75.61664393 115.74987311 82 168 C82.103125 168.81315674 82.20625 169.62631348 82.3125 170.46411133 C85.07559235 195.69459833 84.35270035 223.02574623 80 248 C79.80132324 249.14500977 79.60264648 250.29001953 79.39794922 251.46972656 C69.99002132 303.88633158 48.28757339 353.99969631 14 395 C13.19433594 395.97839844 12.38867188 396.95679688 11.55859375 397.96484375 C-3.34414917 415.93929198 -19.56038283 432.62494786 -38.24951172 446.68212891 C-39.99938849 447.99953962 -41.73587194 449.33336662 -43.47265625 450.66796875 C-83.87542214 481.3618444 -131.20281311 500.35942423 -181 509 C-182.02899414 509.17934082 -183.05798828 509.35868164 -184.11816406 509.54345703 C-213.78969932 514.43367569 -246.39277884 514.12711635 -276 509 C-276.99370605 508.82839355 -277.98741211 508.65678711 -279.01123047 508.47998047 C-301.39317122 504.46693902 -323.1900276 498.1845994 -344 489 C-344.90041016 488.60329102 -345.80082031 488.20658203 -346.72851562 487.79785156 C-366.80972081 478.82880323 -386.01528765 468.04642878 -403 454 C-403.94746094 453.24203125 -404.89492188 452.4840625 -405.87109375 451.703125 C-413.93812218 445.21369852 -421.79527124 438.44488639 -429 431 C-427.68347207 428.08996072 -426.26889653 426.01917838 -424.01366651 423.76526952 C-423.08882091 422.83368204 -423.08882091 422.83368204 -422.14529157 421.88327461 C-421.46549009 421.20872717 -420.78568861 420.53417972 -420.08528709 419.83919144 C-419.36204384 419.1136405 -418.63880059 418.38808956 -417.89364088 417.64055222 C-415.45013755 415.19172256 -412.99951962 412.75013709 -410.54891968 410.30841064 C-408.78547636 408.5440958 -407.02247235 406.77934179 -405.25987208 405.01418471 C-401.41699056 401.16775412 -397.57100739 397.32446587 -393.72228813 393.48387718 C-387.99937968 387.77302509 -382.28220092 382.05646286 -376.56619648 376.33870156 C-366.95140894 366.72128436 -357.33196758 357.10853471 -347.70988083 347.49842072 C-338.18046712 337.98083412 -328.65311814 328.46118852 -319.12852859 318.93877411 C-318.536696 318.34707899 -317.9448634 317.75538388 -317.33509649 317.1457586 C-314.32958586 314.14092463 -311.32411217 311.13605371 -308.3186527 308.13116857 C-287.02144571 286.83816432 -265.7196038 265.54980246 -244.41503906 244.26416016 C-223.71575327 223.58323802 -203.01856544 202.90021997 -182.32421875 182.21435547 C-181.68651993 181.5769197 -181.04882111 180.93948393 -180.39179808 180.28273192 C-173.98786668 173.88143752 -167.58397795 167.48010043 -161.18012049 161.07873206 C-148.13429452 148.03797874 -135.08818368 134.99751041 -122.04190063 121.95721436 C-121.44203144 121.35761975 -120.84216225 120.75802513 -120.22411521 120.14026099 C-80.15418095 80.08873338 -40.07758586 40.04387085 0 0 Z " fill="#EC1C24" transform="translate(429,0)"/>
<path d="M0 0 C9.58799083 4.79399542 16.53823074 14.63855162 23 23 C23.50515137 23.64517578 24.01030273 24.29035156 24.53076172 24.95507812 C56.98748591 66.64542873 75.61664393 115.74987311 82 168 C82.103125 168.81315674 82.20625 169.62631348 82.3125 170.46411133 C85.07559235 195.69459833 84.35270035 223.02574623 80 248 C79.80132324 249.14500977 79.60264648 250.29001953 79.39794922 251.46972656 C69.99002132 303.88633158 48.28757339 353.99969631 14 395 C13.19433594 395.97839844 12.38867188 396.95679688 11.55859375 397.96484375 C-3.34414917 415.93929198 -19.56038283 432.62494786 -38.24951172 446.68212891 C-39.99938849 447.99953962 -41.73587194 449.33336662 -43.47265625 450.66796875 C-83.87542214 481.3618444 -131.20281311 500.35942423 -181 509 C-182.02899414 509.17934082 -183.05798828 509.35868164 -184.11816406 509.54345703 C-213.78969932 514.43367569 -246.39277884 514.12711635 -276 509 C-276.99370605 508.82839355 -277.98741211 508.65678711 -279.01123047 508.47998047 C-301.39317122 504.46693902 -323.1900276 498.1845994 -344 489 C-344.90041016 488.60329102 -345.80082031 488.20658203 -346.72851562 487.79785156 C-366.80972081 478.82880323 -386.01528765 468.04642878 -403 454 C-403.94746094 453.24203125 -404.89492188 452.4840625 -405.87109375 451.703125 C-413.93812218 445.21369852 -421.79527124 438.44488639 -429 431 C-427.67005617 428.04734888 -426.22220684 425.97649784 -423.92724609 423.70019531 C-422.99650772 422.76968353 -422.99650772 422.76968353 -422.04696655 421.82037354 C-421.37920197 421.16293152 -420.71143738 420.5054895 -420.0234375 419.828125 C-419.33819 419.1457074 -418.6529425 418.46328979 -417.94692993 417.76019287 C-415.76094155 415.58538402 -413.56809571 413.41763928 -411.375 411.25 C-409.89016745 409.7752001 -408.40578694 408.29994494 -406.921875 406.82421875 C-403.2864709 403.21084552 -399.64490176 399.60379147 -396 396 C-394.72090732 396.94868878 -393.44327612 397.89934823 -392.16625977 398.85083008 C-391.45462173 399.38001541 -390.7429837 399.90920074 -390.00978088 400.454422 C-387.49947898 402.38491474 -385.2237405 404.49791357 -382.9375 406.6875 C-347.678586 439.04045955 -302.13647357 455.33451684 -255.484375 461.65869141 C-253.55286446 461.92404633 -251.62565498 462.22078608 -249.70068359 462.5300293 C-245.79689336 463.02579366 -241.96641957 463.16170733 -238.0390625 463.16796875 C-237.29022797 463.17129715 -236.54139343 463.17462555 -235.76986694 463.17805481 C-234.18821826 463.18309321 -232.60655905 463.18546409 -231.02490234 463.18530273 C-228.66614989 463.18746232 -226.30788703 463.2055759 -223.94921875 463.22460938 C-186.59462366 463.36622264 -149.51787348 453.11000047 -116 437 C-115.17886719 436.60731934 -114.35773438 436.21463867 -113.51171875 435.81005859 C-92.39373786 425.56237926 -72.53057657 411.98249471 -55.265625 396.08203125 C-53.19107964 394.1755956 -51.07734069 392.3323439 -48.9375 390.5 C-41.6829538 384.14863023 -35.24402965 377.31631426 -29.23046875 369.78125 C-27.82468743 368.02833178 -26.3928724 366.29568625 -24.92578125 364.59375 C-3.47855925 339.53895462 11.65903327 309.12362389 22 278 C22.27972656 277.16307617 22.55945313 276.32615234 22.84765625 275.46386719 C43.00123287 213.85915411 36.01304929 146.50079331 7.07543945 89.07421875 C-2.37753949 70.6903779 -14.36635063 52.88721546 -29.49316406 38.66040039 C-31 37 -31 37 -33 33 C-22.11 22.11 -11.22 11.22 0 0 Z " fill="#05702D" transform="translate(429,0)"/>
<path d="M0 0 C3.30532457 1.10177486 4.01303027 1.89683433 6.1875 4.5 C8.65100468 7.41609009 11.15935631 10.25907244 13.75 13.0625 C34.61736403 36.62372412 49.98651356 65.96080094 59 96 C59.40557129 97.34843994 59.40557129 97.34843994 59.81933594 98.72412109 C64.02064673 113.00808294 66.51042608 127.19921377 68 142 C68.13148438 143.20140625 68.26296875 144.4028125 68.3984375 145.640625 C70.24076822 165.85647015 69.21859144 185.99801711 66 206 C65.7831958 207.36680908 65.7831958 207.36680908 65.56201172 208.76123047 C57.53521155 257.97982684 34.38255685 305.81437959 0 342 C-1.17380563 343.34798324 -2.34097432 344.70178771 -3.5 346.0625 C-10.15144781 353.67747529 -17.34631989 360.50932749 -25.25390625 366.8046875 C-26.99467332 368.19631067 -28.71410728 369.61540953 -30.40234375 371.0703125 C-44.15812517 382.84856452 -59.92805191 392.69816543 -76 401 C-76.70205566 401.36399902 -77.40411133 401.72799805 -78.12744141 402.10302734 C-113.69390857 420.2919471 -153.78182364 430.49329339 -193.75 430.3125 C-194.92106293 430.31126129 -194.92106293 430.31126129 -196.11578369 430.30999756 C-207.90906606 430.28141617 -219.30854304 429.55165565 -230.921875 427.37158203 C-234.05707877 426.81098756 -237.21449251 426.45057116 -240.375 426.0625 C-247.76324496 424.98847611 -254.86060802 423.15709771 -262 421 C-263.16595703 420.65026123 -263.16595703 420.65026123 -264.35546875 420.29345703 C-297.22984626 410.27502919 -326.28875362 393.72721508 -352 371 C-352.92425781 370.18660156 -353.84851563 369.37320312 -354.80078125 368.53515625 C-356.87557938 366.69913738 -358.94255938 364.85541802 -361 363 C-359.66627583 360.03845002 -358.20842075 357.96023206 -355.91220093 355.67169189 C-354.9614846 354.71685158 -354.9614846 354.71685158 -353.99156189 353.74272156 C-352.95038963 352.71233513 -352.95038963 352.71233513 -351.88818359 351.66113281 C-351.15637375 350.92903091 -350.4245639 350.19692902 -349.670578 349.44264221 C-347.25124171 347.02469891 -344.82489887 344.61391631 -342.3984375 342.203125 C-340.71934198 340.52775971 -339.04068757 338.85195222 -337.36245728 337.17572021 C-332.94454638 332.76544498 -328.52066219 328.36120887 -324.09552002 323.95819092 C-319.58090013 319.4640308 -315.07193767 314.96420262 -310.5625 310.46484375 C-301.71387054 301.63766304 -292.85892225 292.81685002 -284 284 C-283.34 284.33 -282.68 284.66 -282 285 C-310.71 313.71 -310.71 313.71 -340 343 C-333.73 343.33 -327.46 343.66 -321 344 C-315.20806336 344.67317994 -309.45080418 345.39037459 -303.6875 346.25 C-302.93142456 346.36115143 -302.17534912 346.47230286 -301.3963623 346.58682251 C-270.35056803 351.17740807 -241.21462829 360.55248683 -212.03369141 371.88891602 C-200.34568229 376.407855 -188.58352564 379.94245731 -176.25 382.1875 C-175.39535156 382.35185547 -174.54070312 382.51621094 -173.66015625 382.68554688 C-163.81545367 384.52491264 -154.19621967 385.17289243 -144.1875 385.125 C-143.1250708 385.12016602 -142.0626416 385.11533203 -140.96801758 385.11035156 C-113.37978029 384.89899603 -88.22014917 378.2489742 -64 365 C-62.95585937 364.43539063 -61.91171875 363.87078125 -60.8359375 363.2890625 C-47.82290092 355.97566727 -36.13785644 346.8900468 -25 337 C-24.34644531 336.41992188 -23.69289063 335.83984375 -23.01953125 335.2421875 C7.22552384 306.64947509 26.08692734 262.46303953 27.25 221.19140625 C27.71163234 190.43595681 20.98826752 163.76715798 10.0234375 135.15625 C9.76596741 134.48429596 9.50849731 133.81234192 9.2432251 133.12002563 C8.98378113 132.4431369 8.72433716 131.76624817 8.45703125 131.06884766 C3.3360094 117.70366069 -1.20714348 104.44600611 -4.42822266 90.47216797 C-4.97417088 88.11167619 -5.54971392 85.76072997 -6.13671875 83.41015625 C-7.88556551 76.33538442 -9.39912978 69.23567426 -10.6875 62.0625 C-10.80697998 61.40072754 -10.92645996 60.73895508 -11.04956055 60.05712891 C-13.50831984 45.76748222 -13.4620584 31.52442328 -14 17 C-34.13 37.13 -54.26 57.26 -75 78 C-75.66 77.67 -76.32 77.34 -77 77 C-51.59 51.59 -26.18 26.18 0 0 Z " fill="#BD161D" transform="translate(395,34)"/>
<path d="M0 0 C3.15381975 2.9355547 4.69289819 6.214629 6.375 10.125 C6.67954102 10.82858643 6.98408203 11.53217285 7.29785156 12.25708008 C10.54638461 19.97960488 12.8892167 27.90266747 15 36 C15.309375 37.17949219 15.61875 38.35898438 15.9375 39.57421875 C25.1870887 77.15067283 16.8337005 118.46146297 -2.63647461 151.42504883 C-7.67141799 159.60621151 -13.46382625 166.97376637 -20 174 C-20.56348145 174.60730957 -21.12696289 175.21461914 -21.70751953 175.84033203 C-39.82623725 195.14102644 -60.97349183 208.39863319 -86 217 C-87.1446875 217.39960938 -88.289375 217.79921875 -89.46875 218.2109375 C-126.04190542 229.79243672 -165.67404833 224.96465995 -200 209 C-201.68496298 208.03114628 -203.36034667 207.04370241 -205 206 C-200.48807901 200.59307623 -195.71123255 195.57178196 -190.72366333 190.60340881 C-189.90590986 189.78480092 -189.08815639 188.96619303 -188.24562252 188.12277883 C-185.99206743 185.86786825 -183.73629959 183.61519964 -181.47955132 181.36348569 C-179.04018659 178.92845943 -176.60373311 176.49052316 -174.16691589 174.052948 C-169.9501205 169.83562951 -165.73150529 165.62013861 -161.51163101 161.40590096 C-155.41048381 155.31289792 -149.31211604 149.21711919 -143.21441232 143.12067025 C-133.32002816 133.22847203 -123.4234152 123.33850673 -113.52539062 113.44995117 C-103.91321311 103.84695963 -94.30209162 94.24291318 -84.69238281 84.63745117 C-84.09954703 84.04487812 -83.50671125 83.45230506 -82.89591075 82.84177525 C-79.92168716 79.86885674 -76.94748426 76.89591753 -73.97329164 73.92296803 C-49.31873438 49.27876912 -24.66055577 24.63819636 0 0 Z " fill="#F2777B" transform="translate(317,112)"/>
<path d="M0 0 C47.72378194 40.90609881 70.78827458 105.4736148 75.77294922 166.57324219 C77.4319249 191.61128809 74.98819155 216.45414653 70 241 C69.76023437 242.24007812 69.52046875 243.48015625 69.2734375 244.7578125 C59.55827619 291.89477633 35.55452278 337.45156784 3.03515625 372.78125 C1.2045558 374.77699099 -0.55836483 376.81230611 -2.3125 378.875 C-9.54907322 387.17181534 -17.51937918 394.98408053 -26 402 C-27.47533203 403.25103516 -27.47533203 403.25103516 -28.98046875 404.52734375 C-45.51684925 418.31557146 -63.84061551 430.19612054 -83 440 C-83.72896484 440.37672852 -84.45792969 440.75345703 -85.20898438 441.14160156 C-122.55509067 460.23719551 -165.40693261 471.21441123 -207.375 471.1875 C-209.35149536 471.1862915 -209.35149536 471.1862915 -211.36791992 471.18505859 C-221.57170864 471.13949247 -231.60247463 470.49879542 -241.72705078 469.26464844 C-243.87773266 469.01423607 -246.02613818 468.81426635 -248.18359375 468.6328125 C-292.66426248 464.64389748 -338.52881504 444.18174244 -373 416 C-373.56380371 415.53916016 -374.12760742 415.07832031 -374.70849609 414.60351562 C-380.62938413 409.73393814 -386.45710818 404.82260451 -391.73046875 399.2421875 C-393.0016021 397.87174819 -393.0016021 397.87174819 -395 397 C-393.6415798 393.95667235 -392.11536976 391.87690849 -389.7421875 389.546875 C-389.11699219 388.928125 -388.49179687 388.309375 -387.84765625 387.671875 C-387.19667969 387.03765625 -386.54570312 386.4034375 -385.875 385.75 C-385.21628906 385.1003125 -384.55757813 384.450625 -383.87890625 383.78125 C-382.25703357 382.18288273 -380.6306719 380.58938103 -379 379 C-374.36882839 382.30787322 -370.0908917 385.78903204 -365.9375 389.6875 C-330.678586 422.04045955 -285.13647357 438.33451684 -238.484375 444.65869141 C-236.55286446 444.92404633 -234.62565498 445.22078608 -232.70068359 445.5300293 C-228.79689336 446.02579366 -224.96641957 446.16170733 -221.0390625 446.16796875 C-220.29022797 446.17129715 -219.54139343 446.17462555 -218.76986694 446.17805481 C-217.18821826 446.18309321 -215.60655905 446.18546409 -214.02490234 446.18530273 C-211.66614989 446.18746232 -209.30788703 446.2055759 -206.94921875 446.22460938 C-169.59462366 446.36622264 -132.51787348 436.11000047 -99 420 C-98.17886719 419.60731934 -97.35773438 419.21463867 -96.51171875 418.81005859 C-75.39373786 408.56237926 -55.53057657 394.98249471 -38.265625 379.08203125 C-36.19107964 377.1755956 -34.07734069 375.3323439 -31.9375 373.5 C-24.6829538 367.14863023 -18.24402965 360.31631426 -12.23046875 352.78125 C-10.82468743 351.02833178 -9.3928724 349.29568625 -7.92578125 347.59375 C13.52144075 322.53895462 28.65903327 292.12362389 39 261 C39.27972656 260.16307617 39.55945313 259.32615234 39.84765625 258.46386719 C60.00123287 196.85915411 53.01304929 129.50079331 24.07543945 72.07421875 C14.62246051 53.6903779 2.63364937 35.88721546 -12.49316406 21.66040039 C-14 20 -14 20 -16 16 C-10.72 10.72 -5.44 5.44 0 0 Z " fill="#2E903A" transform="translate(412,17)"/>
<path d="M0 0 C5.24785809 5.24785809 3.24912936 16.25360972 3.25097656 23.14135742 C3.11328298 38.87702227 1.08307686 54.06197822 -4 69 C-4.20463867 69.61617188 -4.40927734 70.23234375 -4.62011719 70.8671875 C-12.01367885 92.88209758 -23.93611522 111.36968769 -40 128 C-40.86238281 128.92554688 -41.72476563 129.85109375 -42.61328125 130.8046875 C-60.65149977 149.67132791 -84.06869687 161.91760433 -109 169 C-109.87785156 169.27714844 -110.75570312 169.55429687 -111.66015625 169.83984375 C-130.45623493 175.53820244 -152.71126392 175.95115301 -172 173 C-167.85521084 168.0581709 -163.54631263 163.40487607 -158.97647095 158.85621643 C-157.95197659 157.83044043 -157.95197659 157.83044043 -156.90678537 156.78394169 C-154.6337442 154.50926267 -152.35716459 152.23815957 -150.08056641 149.96704102 C-148.44401933 148.33077621 -146.80769281 146.69429079 -145.17156982 145.05760193 C-140.74041832 140.62616398 -136.30619436 136.19781207 -131.87140703 131.77001309 C-127.23314833 127.13801336 -122.59772876 122.50317417 -117.96200562 117.86863708 C-110.18453467 110.09375273 -102.40515481 102.32078205 -94.62451172 94.54907227 C-86.61291871 86.54666813 -78.60238401 78.54320704 -70.59326172 70.53833008 C-70.09899679 70.04432788 -69.60473187 69.55032568 -69.09548922 69.04135371 C-66.61573997 66.56290956 -64.13601142 64.0844447 -61.65629315 61.60596955 C-41.10740366 41.06743491 -20.55485531 20.53256405 0 0 Z " fill="#F59195" transform="translate(301,130)"/>
<path d="M0 0 C24.44437764 1.7966854 24.44437764 1.7966854 31.6015625 8.5 C34.84613349 12.41523651 35.67702388 15.8186298 35.3515625 20.86328125 C34.3039002 27.23073988 30.92538923 30.33215695 26 34 C22.285392 35.857304 18.05406882 35.44282906 14 35 C9.09684052 32.63921951 6.45601915 29.82734799 4 25 C1.48629109 16.79678029 0.4464289 8.54372547 0 0 Z " fill="#1B1717" transform="translate(311,311)"/>
<path d="M0 0 C4.559941 1.44174605 7.58966659 4.02143563 11 7.25 C11.50789063 7.71535156 12.01578125 8.18070312 12.5390625 8.66015625 C22.64173656 18.06341441 22.64173656 18.06341441 23.23828125 22.953125 C23.41845566 28.52904883 22.77158562 31.6168059 19 36 C14.23261319 40.3022759 10.56252705 41.36282503 4.28125 41.28125 C-0.47521811 40.69483612 -3.22375322 37.86016535 -6.3125 34.4375 C-9.19565312 30.2729455 -9.26687804 26.96803727 -9 22 C-8.046875 18.28125 -8.046875 18.28125 -6.75 14.5 C-6.52546143 13.84507568 -6.30092285 13.19015137 -6.06958008 12.51538086 C-4.47369239 7.99398114 -2.6313744 3.99579075 0 0 Z " fill="#1A1717" transform="translate(250,347)"/>
<path d="M0 0 C5.67507225 2.00296668 9.30675089 5.61350179 12 11 C12.3962444 16.84460492 11.95926533 20.77196458 9 26 C5.25617621 30.10037844 2.0672987 31.87808425 -3.3828125 32.19921875 C-12.52035012 31.50367484 -21.07972466 27.36240899 -29 23 C-27.55825395 18.440059 -24.97856437 15.41033341 -21.75 12 C-21.05197266 11.23816406 -21.05197266 11.23816406 -20.33984375 10.4609375 C-14.26961211 3.93920103 -9.44402075 -0.95322826 0 0 Z " fill="#1A1717" transform="translate(376,157)"/>
<path d="M0 0 C4.15479755 3.94705767 6.71184699 7.03745473 6.9375 12.875 C6.68714363 17.68830302 5.54652381 21.31170141 2.0703125 24.81640625 C-2.4015808 28.72096981 -6.22581654 29.93550327 -12.0390625 29.83203125 C-20.85879826 28.19408032 -27.68859996 18.27167913 -32.5 11.375 C-33.75390625 8.5390625 -33.75390625 8.5390625 -34.5 6.375 C-23.9147858 0.78406223 -11.90986704 -5.52958113 0 0 Z " fill="#1A1717" transform="translate(381.5,243.625)"/>
<path d="M0 0 C3 1 3 1 4.5703125 4.01953125 C5.09972447 5.27921251 5.61752839 6.54382097 6.125 7.8125 C6.38925781 8.44220703 6.65351563 9.07191406 6.92578125 9.72070312 C10.00018761 17.15702106 11.04016542 23.93381159 10 32 C8.0427193 35.92769752 5.36402983 38.15208956 1.6875 40.4375 C-3.79454673 41.58490513 -8.23883291 41.89719833 -13.3125 39.3125 C-18.16188897 35.13976996 -20.9935435 31.38069506 -21.625 24.9375 C-21.56000374 19.21782911 -18.45467471 16.34726934 -14.58984375 12.43359375 C-4.67403315 3.1160221 -4.67403315 3.1160221 0 0 Z " fill="#191717" transform="translate(178,347)"/>
</svg>
